<svg width="100" height="100" version="1.1" xmlns="http://www.w3.org/2000/svg" desc="Created with imagetracer.js version 1.2.6" ><path fill="rgb(0,0,0)" stroke="rgb(0,0,0)" stroke-width="1" opacity="0" d="M 0 0 L 100 0 L 100 100 L 0 100 L 0 0 Z M 50 10 L 47 11 L 43 17 L 43 19 L 38 19 L 36 21 L 36 27 L 22 27 L 20 28 L 18 30 L 18 74 L 21 76 L 41 76 L 40 84 L 39 85 L 30 85 L 31 90 L 70 90 L 70 85 L 61 85 L 59 79 L 60 76 L 81 76 L 82 75 L 82 30 L 79 27 L 65 27 L 65 19 L 58 19 L 57 14 Q 56 9 50 10 Z " /><path fill="rgb(0,0,0)" stroke="rgb(0,0,0)" stroke-width="1" opacity="0" d="M 48.5 13 Q 53.8 11.8 55 14.5 L 56 19 L 46 19 L 46 15.5 L 48.5 13 Z " /><path fill="rgb(0,0,0)" stroke="rgb(0,0,0)" stroke-width="1" opacity="0" d="M 38 22 L 43 22 L 43 25.5 L 42 29.5 L 45.5 31 Q 47.8 30.3 47 26.5 L 46 22 L 55.5 22 L 56 24.5 Q 53 25.8 54 30 L 57.5 31 L 60 27.5 Q 57 26.3 58 22 L 63 22.5 L 63 50 L 38 50 L 38 22 Z " /><path fill="rgb(0,0,0)" stroke="rgb(0,0,0)" stroke-width="1" opacity="0" d="M 21.5 30 L 36 30.5 L 21 31 L 21 64.5 L 22.5 66 L 77.5 66 L 79 64.5 L 79 31 L 65.5 31 L 65.5 30 L 78.5 30 L 80 31.5 L 80 72.5 L 78.5 74 L 52.5 74 L 52 72.5 Q 54.8 70.8 50.5 69 L 48 70.5 L 47.5 74 L 21.5 74 L 20 72.5 L 20 31.5 L 21.5 30 Z " /><path fill="rgb(0,0,0)" stroke="rgb(0,0,0)" stroke-width="1" opacity="0" d="M 23 33 L 36 33 L 36 52 L 65 52 L 65 33 L 76 33 L 76 63 L 23 63 L 23 33 Z M 34 46 L 33 56 L 69 56 L 69 56 L 69 48 L 67 47 L 67 54 L 67 54 L 35 54 L 35 48 L 34 46 Z " /><path fill="rgb(0,0,0)" stroke="rgb(0,0,0)" stroke-width="1" opacity="0" d="M 44 76 L 55.5 76 L 57 77.5 L 58 85 L 42.5 85 L 42 82.5 L 44 76 Z " /><path fill="rgb(7,3,3)" stroke="rgb(7,3,3)" stroke-width="1" opacity="0.8745098039215686" d="M 54.5 13 L 55.5 15 L 54.5 13 Z " /><path fill="rgb(7,3,3)" stroke="rgb(7,3,3)" stroke-width="1" opacity="0.8745098039215686" d="M 45 27 Q 48 26 47 29 Q 44 30 45 27 Z " /><path fill="rgb(8,4,4)" stroke="rgb(8,4,4)" stroke-width="1" opacity="1" d="M 48.5 11 Q 55.4 10.1 57 14.5 L 56.5 17 L 54.5 13 L 48.5 12 Q 43.7 13.6 45 20 L 64.5 20 L 65 20.5 L 65 28 L 79.5 28 L 82 31.5 L 82 72.5 L 81 75 L 78.5 76 L 58 76 L 57.5 78 L 57 76 L 43.5 76 L 43 78.5 L 41.5 82 L 41 79.5 L 42 76 L 21.5 76 L 19 73.5 L 21.5 75 L 78.5 75 L 81 72.5 L 81 31.5 L 80 29 L 65 29 L 65 52 L 37 52 L 37 29 L 21.5 29 L 19 30.5 Q 18.3 28.3 20.5 29 L 21.5 28 L 37 28 L 37 20 L 44 20 L 44 15.5 L 46.5 12 L 48.5 11 Z M 38 21 L 38 51 L 64 51 L 64 21 L 45 21 L 46 27 L 43 27 Q 42 30 46 29 L 46 30 L 42 29 L 44 26 L 44 21 L 38 21 Z " /><path fill="rgb(8,4,4)" stroke="rgb(8,4,4)" stroke-width="1" opacity="1" d="M 55 26 Q 60.2 23.9 59 28.5 L 55 30 L 55 26 Z M 56 27 Q 55 30 58 29 Q 59 26 56 27 Z " /><path fill="rgb(8,4,4)" stroke="rgb(8,4,4)" stroke-width="1" opacity="1" d="M 22.5 32 L 23 64 L 77 64 L 77 32.5 L 78 32.5 L 78 65 L 22 65 L 22.5 32 Z " /><path fill="rgb(8,4,4)" stroke="rgb(8,4,4)" stroke-width="1" opacity="1" d="M 33.5 47 L 34 54 L 66.5 54 Q 67.8 53.8 67 47.5 L 68 47.5 L 68 54.5 L 67.5 55 L 33 55 L 33.5 47 Z " /><path fill="rgb(8,4,4)" stroke="rgb(8,4,4)" stroke-width="1" opacity="1" d="M 49.5 70 L 52 71.5 Q 52.8 74.1 49.5 73 Q 46.5 71.5 49.5 70 Z " /><path fill="rgb(8,4,4)" stroke="rgb(8,4,4)" stroke-width="1" opacity="1" d="M 58.5 79 L 59 81.5 L 58 81.5 L 58.5 79 Z " /><path fill="rgb(8,4,4)" stroke="rgb(8,4,4)" stroke-width="1" opacity="1" d="M 40.5 83 L 41 86 L 58.5 86 L 59 83.5 L 60 83.5 L 60.5 86 L 68.5 86 L 68.5 87 L 32.5 87 L 32 89 L 69 89.5 L 31 90 L 31 86 L 40 86 L 40.5 83 Z " /><path fill="rgb(7,3,3)" stroke="rgb(7,3,3)" stroke-width="1" opacity="0.7254901960784313" d="M 47.5 11 L 48.5 13 L 47.5 11 Z " /><path fill="rgb(7,3,3)" stroke="rgb(7,3,3)" stroke-width="1" opacity="0.7254901960784313" d="M 44.5 14 L 45.5 16 L 44.5 14 Z " /><path fill="rgb(7,3,3)" stroke="rgb(7,3,3)" stroke-width="1" opacity="0.7254901960784313" d="M 57.5 16 L 58 19 L 56 18.5 L 57.5 16 Z " /><path fill="rgb(7,3,3)" stroke="rgb(7,3,3)" stroke-width="1" opacity="0.7254901960784313" d="M 56 22 Q 59.3 20.9 58 25 Q 54.7 26.1 56 22 Z " /><path fill="rgb(7,3,3)" stroke="rgb(7,3,3)" stroke-width="1" opacity="0.7254901960784313" d="M 18.5 30 L 20 31.5 L 20 71.5 L 18 72.5 L 18.5 30 Z " /><path fill="rgb(7,3,3)" stroke="rgb(7,3,3)" stroke-width="1" opacity="0.7254901960784313" d="M 81.5 30 L 80.5 32 L 81.5 30 Z " /><path fill="rgb(7,3,3)" stroke="rgb(7,3,3)" stroke-width="1" opacity="0.7254901960784313" d="M 22.5 31 L 35.5 31 L 36 33 L 23.5 33 L 22.5 31 Z " /><path fill="rgb(7,3,3)" stroke="rgb(7,3,3)" stroke-width="1" opacity="0.7254901960784313" d="M 65 31 L 78 31.5 L 75.5 33 L 65 33 L 65 31 Z " /><path fill="rgb(7,3,3)" stroke="rgb(7,3,3)" stroke-width="1" opacity="0.7254901960784313" d="M 48.5 70 L 51 71.5 L 49.5 72 L 48.5 70 Z " /><path fill="rgb(7,3,3)" stroke="rgb(7,3,3)" stroke-width="1" opacity="0.7254901960784313" d="M 80.5 72 L 81.5 74 L 80.5 72 Z " /><path fill="rgb(7,3,3)" stroke="rgb(7,3,3)" stroke-width="1" opacity="0.7254901960784313" d="M 21.5 74 L 20.5 76 L 21.5 74 Z " /><path fill="rgb(7,3,3)" stroke="rgb(7,3,3)" stroke-width="1" opacity="0.7254901960784313" d="M 78.5 74 L 79.5 76 L 78.5 74 Z " /><path fill="rgb(7,3,3)" stroke="rgb(7,3,3)" stroke-width="1" opacity="0.7254901960784313" d="M 41.5 78 L 42.5 80 L 41.5 78 Z " /><path fill="rgb(7,3,3)" stroke="rgb(7,3,3)" stroke-width="1" opacity="0.7254901960784313" d="M 40.5 82 L 41.5 84 L 40.5 82 Z " /><path fill="rgb(7,3,3)" stroke="rgb(7,3,3)" stroke-width="1" opacity="0.7254901960784313" d="M 30.5 86 L 31 88.5 L 30 88.5 L 30.5 86 Z " /><path fill="rgb(7,3,3)" stroke="rgb(7,3,3)" stroke-width="1" opacity="0.7254901960784313" d="M 69.5 86 L 70 89.5 L 69 89.5 L 69.5 86 Z " /><path fill="rgb(8,4,4)" stroke="rgb(8,4,4)" stroke-width="1" opacity="0.49019607843137253" d="M 55.5 12 L 56.5 14 L 55.5 12 Z " /><path fill="rgb(8,4,4)" stroke="rgb(8,4,4)" stroke-width="1" opacity="0.49019607843137253" d="M 36.5 20 L 37 26.5 L 36 26.5 L 36.5 20 Z " /><path fill="rgb(8,4,4)" stroke="rgb(8,4,4)" stroke-width="1" opacity="0.49019607843137253" d="M 63.5 22 L 64 49.5 L 62.5 51 L 38.5 51 L 38.5 50 L 63 50 L 63.5 22 Z " /><path fill="rgb(8,4,4)" stroke="rgb(8,4,4)" stroke-width="1" opacity="0.49019607843137253" d="M 43.5 25 L 42.5 27 L 43.5 25 Z " /><path fill="rgb(8,4,4)" stroke="rgb(8,4,4)" stroke-width="1" opacity="0.49019607843137253" d="M 45.5 25 L 46.5 27 L 45.5 25 Z " /><path fill="rgb(8,4,4)" stroke="rgb(8,4,4)" stroke-width="1" opacity="0.49019607843137253" d="M 57.5 27 L 58 29 L 56 28.5 L 57.5 27 Z " /><path fill="rgb(8,4,4)" stroke="rgb(8,4,4)" stroke-width="1" opacity="0.49019607843137253" d="M 21.5 32 L 22 64.5 L 21 64.5 L 21.5 32 Z " /><path fill="rgb(8,4,4)" stroke="rgb(8,4,4)" stroke-width="1" opacity="0.49019607843137253" d="M 78.5 32 L 79 64.5 L 78 64.5 L 78.5 32 Z " /><path fill="rgb(8,4,4)" stroke="rgb(8,4,4)" stroke-width="1" opacity="0.49019607843137253" d="M 80.5 32 L 81 71.5 L 80 71.5 L 80.5 32 Z " /><path fill="rgb(8,4,4)" stroke="rgb(8,4,4)" stroke-width="1" opacity="0.49019607843137253" d="M 36.5 33 L 37 51.5 L 36 51.5 L 36.5 33 Z " /><path fill="rgb(8,4,4)" stroke="rgb(8,4,4)" stroke-width="1" opacity="0.49019607843137253" d="M 34.5 47 L 35 53.5 L 34 53.5 L 34.5 47 Z " /><path fill="rgb(8,4,4)" stroke="rgb(8,4,4)" stroke-width="1" opacity="0.49019607843137253" d="M 68.5 47 L 69 54.5 L 67.5 56 L 33.5 56 L 33.5 55 L 67.5 55 L 68 54.5 L 68.5 47 Z " /><path fill="rgb(8,4,4)" stroke="rgb(8,4,4)" stroke-width="1" opacity="0.49019607843137253" d="M 22.5 74 L 78 74.5 L 22.5 75 L 22.5 74 Z " /><path fill="rgb(8,4,4)" stroke="rgb(8,4,4)" stroke-width="1" opacity="0.49019607843137253" d="M 32.5 88 L 68 88.5 L 32.5 89 L 32.5 88 Z " /><path fill="rgb(8,4,4)" stroke="rgb(8,4,4)" stroke-width="1" opacity="0.24313725490196078" d="M 49.5 10 L 53 10.5 L 49.5 11 L 49.5 10 Z " /><path fill="rgb(8,4,4)" stroke="rgb(8,4,4)" stroke-width="1" opacity="0.24313725490196078" d="M 46.5 11 L 44.5 14 L 46.5 11 Z " /><path fill="rgb(8,4,4)" stroke="rgb(8,4,4)" stroke-width="1" opacity="0.24313725490196078" d="M 49.5 12 L 52 12.5 L 49.5 13 L 49.5 12 Z " /><path fill="rgb(8,4,4)" stroke="rgb(8,4,4)" stroke-width="1" opacity="0.24313725490196078" d="M 47.5 13 L 46.5 15 L 47.5 13 Z " /><path fill="rgb(8,4,4)" stroke="rgb(8,4,4)" stroke-width="1" opacity="0.24313725490196078" d="M 43.5 16 L 44 18.5 Q 42.8 21.3 37.5 20 L 37.5 19 Q 44.5 21.3 43.5 16 Z " /><path fill="rgb(8,4,4)" stroke="rgb(8,4,4)" stroke-width="1" opacity="0.24313725490196078" d="M 45.5 16 L 46 19 L 56 19.5 L 46.5 20 Q 44 19 45.5 16 Z " /><path fill="rgb(8,4,4)" stroke="rgb(8,4,4)" stroke-width="1" opacity="0.24313725490196078" d="M 58.5 19 L 65 19.5 L 58.5 20 L 58.5 19 Z " /><path fill="rgb(8,4,4)" stroke="rgb(8,4,4)" stroke-width="1" opacity="0.24313725490196078" d="M 38.5 21 Q 43 20 44 22.5 L 43.5 25 L 43 22 L 38.5 22 L 38.5 21 Z " /><path fill="rgb(8,4,4)" stroke="rgb(8,4,4)" stroke-width="1" opacity="0.24313725490196078" d="M 46.5 21 L 56 21.5 L 46 22 L 45.5 25 L 45 22.5 L 46.5 21 Z " /><path fill="rgb(8,4,4)" stroke="rgb(8,4,4)" stroke-width="1" opacity="0.24313725490196078" d="M 58.5 21 L 63 21.5 L 58.5 22 L 58.5 21 Z " /><path fill="rgb(8,4,4)" stroke="rgb(8,4,4)" stroke-width="1" opacity="0.24313725490196078" d="M 55.5 25 L 54.5 27 L 55.5 25 Z " /><path fill="rgb(8,4,4)" stroke="rgb(8,4,4)" stroke-width="1" opacity="0.24313725490196078" d="M 21.5 27 L 36 27.5 L 21.5 28 L 21.5 27 Z " /><path fill="rgb(8,4,4)" stroke="rgb(8,4,4)" stroke-width="1" opacity="0.24313725490196078" d="M 65.5 27 L 79 27.5 L 65.5 28 L 65.5 27 Z " /><path fill="rgb(8,4,4)" stroke="rgb(8,4,4)" stroke-width="1" opacity="0.24313725490196078" d="M 19.5 28 L 18.5 30 L 19.5 28 Z " /><path fill="rgb(8,4,4)" stroke="rgb(8,4,4)" stroke-width="1" opacity="0.24313725490196078" d="M 22.5 29 L 36 29.5 L 22.5 30 L 22.5 29 Z " /><path fill="rgb(8,4,4)" stroke="rgb(8,4,4)" stroke-width="1" opacity="0.24313725490196078" d="M 65.5 29 L 78 29.5 L 65.5 30 L 65.5 29 Z " /><path fill="rgb(8,4,4)" stroke="rgb(8,4,4)" stroke-width="1" opacity="0.24313725490196078" d="M 20.5 30 L 21.5 32 L 20.5 30 Z " /><path fill="rgb(8,4,4)" stroke="rgb(8,4,4)" stroke-width="1" opacity="0.24313725490196078" d="M 79.5 30 L 78.5 32 L 79.5 30 Z " /><path fill="rgb(8,4,4)" stroke="rgb(8,4,4)" stroke-width="1" opacity="0.24313725490196078" d="M 76.5 33 L 77 62.5 L 75.5 64 L 23.5 64 L 23.5 63 L 76 63 L 76.5 33 Z " /><path fill="rgb(8,4,4)" stroke="rgb(8,4,4)" stroke-width="1" opacity="0.24313725490196078" d="M 22.5 65 L 78 65.5 L 22.5 66 L 22.5 65 Z " /><path fill="rgb(8,4,4)" stroke="rgb(8,4,4)" stroke-width="1" opacity="0.24313725490196078" d="M 81.5 74 L 80.5 76 L 81.5 74 Z " /><path fill="rgb(8,4,4)" stroke="rgb(8,4,4)" stroke-width="1" opacity="0.24313725490196078" d="M 39.5 84 L 38.5 86 L 30 85.5 L 38.5 85 L 39.5 84 Z " /><path fill="rgb(8,4,4)" stroke="rgb(8,4,4)" stroke-width="1" opacity="0.24313725490196078" d="M 58.5 84 L 59 86 L 42 85.5 L 57.5 85 L 58.5 84 Z " /><path fill="rgb(8,4,4)" stroke="rgb(8,4,4)" stroke-width="1" opacity="0.24313725490196078" d="M 61.5 85 L 70 85.5 L 61.5 86 L 61.5 85 Z " /><path fill="rgb(8,4,4)" stroke="rgb(8,4,4)" stroke-width="1" opacity="0.24313725490196078" d="M 32.5 87 L 68 87.5 L 32.5 88 L 32.5 87 Z " /></svg>