<svg width="100" height="100" version="1.1" xmlns="http://www.w3.org/2000/svg" desc="Created with imagetracer.js version 1.2.6" ><path fill="rgb(255,255,255)" stroke="rgb(255,255,255)" stroke-width="1" opacity="0.23529411764705882" d="M 79.5 23 L 80 86.5 L 78.5 88 L 46.5 88 L 46.5 87 L 79 87 L 79.5 23 Z " /><path fill="rgb(255,255,255)" stroke="rgb(255,255,255)" stroke-width="1" opacity="0.23529411764705882" d="M 24.5 24 L 25 27.5 L 24 27.5 L 24.5 24 Z " /><path fill="rgb(255,255,255)" stroke="rgb(255,255,255)" stroke-width="1" opacity="0.23529411764705882" d="M 56.5 25 L 57 32.5 L 56 32.5 L 56.5 25 Z " /><path fill="rgb(255,255,255)" stroke="rgb(255,255,255)" stroke-width="1" opacity="0.23529411764705882" d="M 24.5 34 L 25 37.5 L 24 37.5 L 24.5 34 Z " /><path fill="rgb(255,255,255)" stroke="rgb(255,255,255)" stroke-width="1" opacity="0.23529411764705882" d="M 24.5 44 L 25 48 L 39 48.5 L 24 49 L 24.5 44 Z " /><path fill="rgb(255,255,255)" stroke="rgb(255,255,255)" stroke-width="1" opacity="0.23529411764705882" d="M 24 54 L 39 54.5 L 25 55 L 24.5 59 L 24 54 Z " /><path fill="rgb(255,255,255)" stroke="rgb(255,255,255)" stroke-width="1" opacity="0.23529411764705882" d="M 24.5 65 L 25 68.5 L 24 68.5 L 24.5 65 Z " /><path fill="rgb(255,255,255)" stroke="rgb(255,255,255)" stroke-width="1" opacity="0.23529411764705882" d="M 24.5 75 L 25 78.5 L 24 78.5 L 24.5 75 Z " /><path fill="rgb(255,255,255)" stroke="rgb(255,255,255)" stroke-width="1" opacity="0.23529411764705882" d="M 12.5 87 L 20 87.5 L 12.5 88 L 12.5 87 Z " /><path fill="rgb(255,255,255)" stroke="rgb(255,255,255)" stroke-width="1" opacity="0.23529411764705882" d="M 23.5 87 L 44 87.5 L 23.5 88 L 23.5 87 Z " /><path fill="rgb(255,255,255)" stroke="rgb(255,255,255)" stroke-width="1" opacity="0.23529411764705882" d="M 82.5 87 L 88 87.5 L 82.5 88 L 82.5 87 Z " /><path fill="rgb(0,0,0)" stroke="rgb(0,0,0)" stroke-width="1" opacity="0" d="M 0 0 L 100 0 L 100 100 L 0 100 L 0 0 Z M 20 11 L 20 87 L 20 87 L 12 87 L 13 90 L 89 90 L 88 87 Q 82 88 82 87 L 82 20 L 80 20 L 68 27 L 67 18 L 47 13 L 42 13 L 42 19 L 20 11 Z " /><path fill="rgb(0,0,0)" stroke="rgb(0,0,0)" stroke-width="1" opacity="0" d="M 23 15 L 54 27 L 54 34.5 L 52.5 35 L 44 40.5 L 44 87 L 23 87 L 23 15 Z M 24 24 L 25 28 L 39 28 L 39 24 L 24 24 Z M 24 34 L 25 38 L 39 38 L 39 34 L 24 34 Z M 24 44 L 24 49 L 39 49 L 39 44 L 24 44 Z M 24 54 L 24 59 L 39 59 L 39 54 L 24 54 Z M 24 65 L 25 69 L 39 69 L 39 65 L 24 65 Z M 24 75 L 25 79 L 39 79 L 39 75 L 24 75 Z " /><path fill="rgb(0,0,0)" stroke="rgb(0,0,0)" stroke-width="1" opacity="0" d="M 45 16 L 64 20 L 64 28.5 L 62.5 30 L 57.5 33 L 57 25 L 45 21 L 45 16 Z " /><path fill="rgb(0,0,0)" stroke="rgb(0,0,0)" stroke-width="1" opacity="0" d="M 78.5 24 L 79 87 L 46 87 L 46 42 L 78.5 24 Z " /><path fill="rgb(255,255,255)" stroke="rgb(255,255,255)" stroke-width="1" opacity="0.7568627450980392" d="M 25.5 13 L 24.5 15 L 25.5 13 Z " /><path fill="rgb(255,255,255)" stroke="rgb(255,255,255)" stroke-width="1" opacity="0.7568627450980392" d="M 30.5 15 L 29.5 17 L 30.5 15 Z " /><path fill="rgb(255,255,255)" stroke="rgb(255,255,255)" stroke-width="1" opacity="0.7568627450980392" d="M 35.5 17 L 34.5 19 L 35.5 17 Z " /><path fill="rgb(255,255,255)" stroke="rgb(255,255,255)" stroke-width="1" opacity="0.7568627450980392" d="M 40.5 19 L 39.5 21 L 40.5 19 Z " /><path fill="rgb(255,255,255)" stroke="rgb(255,255,255)" stroke-width="1" opacity="0.7568627450980392" d="M 45.5 21 L 44.5 23 L 45.5 21 Z " /><path fill="rgb(255,255,255)" stroke="rgb(255,255,255)" stroke-width="1" opacity="0.7568627450980392" d="M 81.5 21 L 82 87.5 L 81 87.5 L 81.5 21 Z " /><path fill="rgb(255,255,255)" stroke="rgb(255,255,255)" stroke-width="1" opacity="0.7568627450980392" d="M 50.5 23 L 49.5 25 L 50.5 23 Z " /><path fill="rgb(255,255,255)" stroke="rgb(255,255,255)" stroke-width="1" opacity="0.7568627450980392" d="M 25.5 24 L 38 24.5 L 25.5 25 L 25.5 24 Z " /><path fill="rgb(255,255,255)" stroke="rgb(255,255,255)" stroke-width="1" opacity="0.7568627450980392" d="M 71.5 25 L 72.5 27 L 71.5 25 Z " /><path fill="rgb(255,255,255)" stroke="rgb(255,255,255)" stroke-width="1" opacity="0.7568627450980392" d="M 54.5 27 L 55 34.5 L 54 34.5 L 54.5 27 Z " /><path fill="rgb(255,255,255)" stroke="rgb(255,255,255)" stroke-width="1" opacity="0.7568627450980392" d="M 64.5 29 L 65.5 31 L 64.5 29 Z " /><path fill="rgb(255,255,255)" stroke="rgb(255,255,255)" stroke-width="1" opacity="0.7568627450980392" d="M 57.5 33 L 58.5 35 L 57.5 33 Z " /><path fill="rgb(255,255,255)" stroke="rgb(255,255,255)" stroke-width="1" opacity="0.7568627450980392" d="M 50.5 37 L 51.5 39 L 50.5 37 Z " /><path fill="rgb(255,255,255)" stroke="rgb(255,255,255)" stroke-width="1" opacity="0.7568627450980392" d="M 44.5 41 L 45 87.5 L 44 87.5 L 44.5 41 Z " /><path fill="rgb(255,255,255)" stroke="rgb(255,255,255)" stroke-width="1" opacity="0.7568627450980392" d="M 25.5 78 L 38 78.5 L 25.5 79 L 25.5 78 Z " /><path fill="rgb(255,255,255)" stroke="rgb(255,255,255)" stroke-width="1" opacity="0.7568627450980392" d="M 13.5 89 L 88 89.5 L 13.5 90 L 13.5 89 Z " /><path fill="rgb(255,255,255)" stroke="rgb(255,255,255)" stroke-width="1" opacity="1" d="M 21 12 L 43 20 L 43 14 L 46.5 14 L 66 19 L 66 27.5 L 67.5 28 L 81 21 L 81 87.5 Q 81.3 88.8 87.5 88 L 87.5 89 L 13 88.5 L 21 88 L 21 12 Z M 22 14 L 22 88 L 45 88 L 45 42 L 53 37 L 55 35 L 55 26 L 22 14 Z M 44 15 L 44 21 L 55 25 L 56 27 L 56 34 L 64 30 L 65 30 L 65 21 L 64 19 L 60 19 L 44 15 Z M 80 22 L 46 41 L 46 88 L 80 88 L 80 22 Z " /><path fill="rgb(255,255,255)" stroke="rgb(255,255,255)" stroke-width="1" opacity="1" d="M 25 25 L 37.5 25 L 38 28 L 25.5 28 L 25 25 Z " /><path fill="rgb(255,255,255)" stroke="rgb(255,255,255)" stroke-width="1" opacity="1" d="M 25 35 L 37.5 35 L 38 38 L 25.5 38 L 25 35 Z " /><path fill="rgb(255,255,255)" stroke="rgb(255,255,255)" stroke-width="1" opacity="1" d="M 25 45 L 37.5 45 L 38 48 L 25.5 48 L 25 45 Z " /><path fill="rgb(255,255,255)" stroke="rgb(255,255,255)" stroke-width="1" opacity="1" d="M 25 55 L 37.5 55 L 38 58 L 25.5 58 L 25 55 Z " /><path fill="rgb(255,255,255)" stroke="rgb(255,255,255)" stroke-width="1" opacity="1" d="M 25 65 L 37.5 65 L 38 68 L 25.5 68 L 25 65 Z " /><path fill="rgb(255,255,255)" stroke="rgb(255,255,255)" stroke-width="1" opacity="1" d="M 25 75 L 37.5 75 L 38 78 L 25.5 78 L 25 75 Z " /><path fill="rgb(255,255,255)" stroke="rgb(255,255,255)" stroke-width="1" opacity="0.5019607843137255" d="M 21.5 11 L 21 12.5 L 20.5 87 L 20 12.5 L 21.5 11 Z " /><path fill="rgb(255,255,255)" stroke="rgb(255,255,255)" stroke-width="1" opacity="0.5019607843137255" d="M 23.5 14 L 23 15.5 L 22.5 87 L 22 15.5 L 23.5 14 Z " /><path fill="rgb(255,255,255)" stroke="rgb(255,255,255)" stroke-width="1" opacity="0.5019607843137255" d="M 42.5 14 L 43 18.5 L 41 19.5 L 42.5 14 Z " /><path fill="rgb(255,255,255)" stroke="rgb(255,255,255)" stroke-width="1" opacity="0.5019607843137255" d="M 44.5 16 L 45 19.5 L 44 19.5 L 44.5 16 Z " /><path fill="rgb(255,255,255)" stroke="rgb(255,255,255)" stroke-width="1" opacity="0.5019607843137255" d="M 66.5 19 L 67 26.5 L 66 26.5 L 66.5 19 Z " /><path fill="rgb(255,255,255)" stroke="rgb(255,255,255)" stroke-width="1" opacity="0.5019607843137255" d="M 64.5 20 L 65 28.5 L 64 28.5 L 64.5 20 Z " /><path fill="rgb(255,255,255)" stroke="rgb(255,255,255)" stroke-width="1" opacity="0.5019607843137255" d="M 38.5 24 L 39 27.5 L 38 27.5 L 38.5 24 Z " /><path fill="rgb(255,255,255)" stroke="rgb(255,255,255)" stroke-width="1" opacity="0.5019607843137255" d="M 25.5 34 L 37.5 34 L 39 35.5 L 38.5 38 L 38 35 L 25.5 35 L 25.5 34 Z " /><path fill="rgb(255,255,255)" stroke="rgb(255,255,255)" stroke-width="1" opacity="0.5019607843137255" d="M 25.5 44 L 37.5 44 L 39 45.5 L 38.5 48 L 38 45 L 25.5 45 L 25.5 44 Z " /><path fill="rgb(255,255,255)" stroke="rgb(255,255,255)" stroke-width="1" opacity="0.5019607843137255" d="M 38.5 55 L 39 57.5 L 37.5 59 L 25.5 59 L 25.5 58 L 37.5 58 L 38.5 55 Z " /><path fill="rgb(255,255,255)" stroke="rgb(255,255,255)" stroke-width="1" opacity="0.5019607843137255" d="M 38.5 65 L 39 67.5 L 37.5 69 L 25.5 69 L 25.5 68 L 37.5 68 L 38.5 65 Z " /><path fill="rgb(255,255,255)" stroke="rgb(255,255,255)" stroke-width="1" opacity="0.5019607843137255" d="M 38.5 75 L 39 78.5 L 38 78.5 L 38.5 75 Z " /></svg>