<svg width="100" height="100" version="1.1" xmlns="http://www.w3.org/2000/svg" desc="Created with imagetracer.js version 1.2.6" ><path fill="rgb(0,0,0)" stroke="rgb(0,0,0)" stroke-width="1" opacity="0" d="M 0 0 L 100 0 L 100 100 L 0 100 L 0 0 Z M 66 15 Q 63 16 64 20 L 61 17 L 57 19 L 58 23 L 53 22 L 52 26 L 55 27 Q 56 31 51 29 L 51 33 L 55 34 L 52 38 L 53 40 L 51 40 L 47 45 L 44 41 L 44 38 L 39 38 L 37 45 L 33 40 L 28 41 L 29 49 L 21 48 L 20 53 L 23 54 L 24 58 L 21 59 L 18 59 L 18 64 L 21 65 Q 25 63 24 68 L 20 71 L 21 75 L 29 74 L 28 82 L 31 83 Q 34 84 33 82 Q 34 78 38 79 L 39 84 L 39 85 L 44 85 L 47 78 L 51 83 Q 55 84 55 81 L 54 77 Q 52 75 55 74 L 61 75 Q 64 74 63 70 L 58 67 L 64 64 L 65 64 L 65 59 L 58 57 L 63 53 L 61 48 L 56 49 Q 54 51 53 49 L 55 45 L 54 42 L 58 40 L 57 43 L 60 46 L 64 43 L 64 47 Q 71 49 69 43 Q 72 42 71 45 L 74 46 L 76 45 L 75 40 L 80 41 L 81 39 L 78 35 L 82 33 Q 84 27 79 29 L 81 26 L 80 22 L 75 23 L 76 21 L 75 17 Q 70 17 70 20 L 69 17 L 66 15 Z " /><path fill="rgb(0,0,0)" stroke="rgb(0,0,0)" stroke-width="1" opacity="0" d="M 66.5 18 L 67 22 L 72.5 21 L 72 22.5 L 73.5 25 L 75.5 26 L 77 25.5 L 76 31 L 79 31.5 L 76 32 L 76 37 L 74.5 37 L 72 40.5 L 72.5 42 L 69.5 40 L 67 41 L 66.5 45 L 66 41 L 62.5 40 L 60 41.5 L 61 39.5 L 57 36.5 L 58 34.5 L 57 32 L 54 31.5 L 57 31 L 58 27.5 L 56.5 25 L 58.5 26 L 61 22 Q 67.8 24.4 66.5 18 Z M 64 25 L 60 30 L 61 36 L 65 38 L 71 37 Q 74 35 73 29 Q 71 24 64 25 Z " /><path fill="rgb(0,0,0)" stroke="rgb(0,0,0)" stroke-width="1" opacity="0" d="M 65.5 27 L 70 28 L 71 32.5 L 66.5 36 L 63 33.5 L 62 30.5 L 65.5 27 Z " /><path fill="rgb(0,0,0)" stroke="rgb(0,0,0)" stroke-width="1" opacity="0" d="M 41.5 40 L 43 46 L 49 47 L 51.5 43 L 52 45.5 L 51 49.5 Q 51.8 52.8 56.5 52 L 59.5 50 L 60 51.5 L 56 54.5 Q 55 59 57.5 60 L 63 61.5 L 56 64.5 Q 55 69 57.5 70 L 60 71.5 L 59.5 73 Q 58.1 70.4 53.5 71 Q 50.3 71.8 51 76.5 L 52 79.5 L 49 77.5 Q 49.9 74.5 45.5 76 L 43 77 L 41.5 83 L 40 77 L 34.5 76 L 31.5 80 L 30 79.5 L 32 73.5 Q 31.3 70.3 26.5 71 L 23.5 73 L 23 71.5 L 27 69 L 26 63 L 20 61.5 L 26 60 L 27 54 L 23 51.5 L 23.5 50 Q 24.9 52.6 29.5 52 Q 32.5 51.5 32 47.5 L 30 43.5 L 31.5 43 L 34.5 47 L 40 46 L 41.5 40 Z M 41 47 L 39 50 L 43 51 Q 45 46 41 47 Z M 33 49 L 35 53 L 37 52 Q 38 47 33 49 Z M 46 49 L 46 52 L 49 53 L 50 51 L 46 49 Z M 40 52 L 37 53 L 32 59 L 33 67 L 39 71 L 47 70 L 51 64 Q 52 58 49 56 Q 47 51 40 52 Z M 31 53 L 29 55 Q 28 59 32 57 L 32 53 L 31 53 Z M 52 53 L 50 57 Q 55 59 54 55 L 52 53 Z M 27 60 Q 25 65 31 63 Q 33 58 27 60 Z M 52 60 Q 50 65 56 63 Q 58 58 52 60 Z M 29 66 Q 27 72 32 70 Q 34 64 29 66 Z M 52 66 L 50 68 L 52 70 L 54 69 Q 55 65 52 66 Z M 35 70 L 33 74 Q 38 76 37 72 L 35 70 Z M 48 70 L 46 72 Q 45 75 49 74 Q 51 73 49 72 Q 50 69 48 70 Z M 41 72 L 39 75 L 43 76 Q 45 71 41 72 Z " /><path fill="rgb(0,0,0)" stroke="rgb(0,0,0)" stroke-width="1" opacity="0" d="M 40.5 54 Q 46.1 54.5 48 58.5 L 49 61.5 L 44.5 68 L 40.5 69 L 36 67 L 34 60.5 L 38.5 55 L 40.5 54 Z " /><path fill="rgb(16,0,0)" stroke="rgb(16,0,0)" stroke-width="1" opacity="0.06274509803921569" d="M 61.5 35 L 62.5 37 L 61.5 35 Z " /><path fill="rgb(16,0,0)" stroke="rgb(16,0,0)" stroke-width="1" opacity="0.06274509803921569" d="M 29.5 48 L 28.5 50 L 27 49.5 L 29.5 48 Z " /><path fill="rgb(16,0,0)" stroke="rgb(16,0,0)" stroke-width="1" opacity="0.06274509803921569" d="M 36.5 56 L 35.5 58 L 36.5 56 Z " /><path fill="rgb(16,0,0)" stroke="rgb(16,0,0)" stroke-width="1" opacity="0.06274509803921569" d="M 54.5 73 L 53.5 75 L 54.5 73 Z " /><path fill="rgb(11,5,5)" stroke="rgb(11,5,5)" stroke-width="1" opacity="0.18823529411764706" d="M 65.5 15 L 68 15.5 L 64.5 17 L 65.5 15 Z " /><path fill="rgb(11,5,5)" stroke="rgb(11,5,5)" stroke-width="1" opacity="0.18823529411764706" d="M 71.5 21 L 72.5 23 L 71.5 21 Z " /><path fill="rgb(11,5,5)" stroke="rgb(11,5,5)" stroke-width="1" opacity="0.18823529411764706" d="M 65.5 37 L 68 37.5 L 65.5 38 L 65.5 37 Z " /><path fill="rgb(11,5,5)" stroke="rgb(11,5,5)" stroke-width="1" opacity="0.18823529411764706" d="M 31.5 49 L 29.5 52 L 31.5 49 Z " /><path fill="rgb(11,5,5)" stroke="rgb(11,5,5)" stroke-width="1" opacity="0.18823529411764706" d="M 47.5 54 L 48.5 56 L 47.5 54 Z " /><path fill="rgb(11,5,5)" stroke="rgb(11,5,5)" stroke-width="1" opacity="0.18823529411764706" d="M 45.5 55 L 47.5 58 L 45.5 55 Z " /><path fill="rgb(11,5,5)" stroke="rgb(11,5,5)" stroke-width="1" opacity="0.18823529411764706" d="M 50.5 60 L 51 62.5 L 50 62.5 L 50.5 60 Z " /><path fill="rgb(11,5,5)" stroke="rgb(11,5,5)" stroke-width="1" opacity="0.18823529411764706" d="M 48.5 67 L 47.5 69 L 48.5 67 Z " /><path fill="rgb(11,5,5)" stroke="rgb(11,5,5)" stroke-width="1" opacity="0.18823529411764706" d="M 29.5 71 L 31.5 74 L 29.5 71 Z " /><path fill="rgb(8,4,4)" stroke="rgb(8,4,4)" stroke-width="1" opacity="0.3764705882352941" d="M 59.5 17 L 62 18.5 L 60.5 18 L 59.5 17 Z " /><path fill="rgb(8,4,4)" stroke="rgb(8,4,4)" stroke-width="1" opacity="0.3764705882352941" d="M 72.5 17 L 74 17.5 L 71.5 19 L 72.5 17 Z " /><path fill="rgb(8,4,4)" stroke="rgb(8,4,4)" stroke-width="1" opacity="0.3764705882352941" d="M 67.5 20 L 68.5 22 L 67.5 20 Z " /><path fill="rgb(8,4,4)" stroke="rgb(8,4,4)" stroke-width="1" opacity="0.3764705882352941" d="M 74.5 22 L 75.5 24 L 74.5 22 Z " /><path fill="rgb(8,4,4)" stroke="rgb(8,4,4)" stroke-width="1" opacity="0.3764705882352941" d="M 54.5 24 L 56.5 27 L 54.5 24 Z " /><path fill="rgb(8,4,4)" stroke="rgb(8,4,4)" stroke-width="1" opacity="0.3764705882352941" d="M 62.5 26 L 61.5 28 L 62.5 26 Z " /><path fill="rgb(8,4,4)" stroke="rgb(8,4,4)" stroke-width="1" opacity="0.3764705882352941" d="M 70.5 26 L 71.5 28 L 70.5 26 Z " /><path fill="rgb(8,4,4)" stroke="rgb(8,4,4)" stroke-width="1" opacity="0.3764705882352941" d="M 60.5 29 L 61 32.5 L 60 32.5 L 60.5 29 Z " /><path fill="rgb(8,4,4)" stroke="rgb(8,4,4)" stroke-width="1" opacity="0.3764705882352941" d="M 76.5 29 L 79 30.5 L 77.5 31 L 76.5 29 Z " /><path fill="rgb(8,4,4)" stroke="rgb(8,4,4)" stroke-width="1" opacity="0.3764705882352941" d="M 54.5 33 L 55.5 35 L 54.5 33 Z " /><path fill="rgb(8,4,4)" stroke="rgb(8,4,4)" stroke-width="1" opacity="0.3764705882352941" d="M 64.5 35 L 63.5 37 L 64.5 35 Z " /><path fill="rgb(8,4,4)" stroke="rgb(8,4,4)" stroke-width="1" opacity="0.3764705882352941" d="M 78.5 35 L 80.5 38 L 78.5 35 Z " /><path fill="rgb(8,4,4)" stroke="rgb(8,4,4)" stroke-width="1" opacity="0.3764705882352941" d="M 74.5 37 L 76 37.5 L 73.5 39 L 74.5 37 Z " /><path fill="rgb(8,4,4)" stroke="rgb(8,4,4)" stroke-width="1" opacity="0.3764705882352941" d="M 71.5 41 L 74 42.5 L 72.5 43 L 71.5 41 Z " /><path fill="rgb(8,4,4)" stroke="rgb(8,4,4)" stroke-width="1" opacity="0.3764705882352941" d="M 33.5 42 L 34.5 44 L 33.5 42 Z " /><path fill="rgb(8,4,4)" stroke="rgb(8,4,4)" stroke-width="1" opacity="0.3764705882352941" d="M 51.5 42 L 49.5 45 L 47 44.5 L 51.5 42 Z " /><path fill="rgb(8,4,4)" stroke="rgb(8,4,4)" stroke-width="1" opacity="0.3764705882352941" d="M 63.5 42 L 65 44.5 L 64 44.5 L 63.5 42 Z " /><path fill="rgb(8,4,4)" stroke="rgb(8,4,4)" stroke-width="1" opacity="0.3764705882352941" d="M 57.5 43 L 58.5 45 L 57.5 43 Z " /><path fill="rgb(8,4,4)" stroke="rgb(8,4,4)" stroke-width="1" opacity="0.3764705882352941" d="M 75.5 43 L 74.5 45 L 75.5 43 Z " /><path fill="rgb(8,4,4)" stroke="rgb(8,4,4)" stroke-width="1" opacity="0.3764705882352941" d="M 21.5 49 L 22.5 51 L 21.5 49 Z " /><path fill="rgb(8,4,4)" stroke="rgb(8,4,4)" stroke-width="1" opacity="0.3764705882352941" d="M 51.5 49 L 53.5 52 L 51.5 49 Z " /><path fill="rgb(8,4,4)" stroke="rgb(8,4,4)" stroke-width="1" opacity="0.3764705882352941" d="M 60.5 51 L 61 53.5 L 59.5 55 L 59 52.5 L 60.5 51 Z " /><path fill="rgb(8,4,4)" stroke="rgb(8,4,4)" stroke-width="1" opacity="0.3764705882352941" d="M 23.5 52 L 25 53.5 L 24.5 56 L 23 54.5 L 23.5 52 Z " /><path fill="rgb(8,4,4)" stroke="rgb(8,4,4)" stroke-width="1" opacity="0.3764705882352941" d="M 40.5 52 L 43 52.5 L 40.5 53 L 40.5 52 Z " /><path fill="rgb(8,4,4)" stroke="rgb(8,4,4)" stroke-width="1" opacity="0.3764705882352941" d="M 35.5 54 L 34.5 56 L 35.5 54 Z " /><path fill="rgb(8,4,4)" stroke="rgb(8,4,4)" stroke-width="1" opacity="0.3764705882352941" d="M 24.5 57 L 23.5 59 L 22 58.5 L 24.5 57 Z " /><path fill="rgb(8,4,4)" stroke="rgb(8,4,4)" stroke-width="1" opacity="0.3764705882352941" d="M 32.5 59 L 33 63.5 L 32 63.5 L 32.5 59 Z " /><path fill="rgb(8,4,4)" stroke="rgb(8,4,4)" stroke-width="1" opacity="0.3764705882352941" d="M 64.5 59 L 65 63.5 L 64 63.5 L 64.5 59 Z " /><path fill="rgb(8,4,4)" stroke="rgb(8,4,4)" stroke-width="1" opacity="0.3764705882352941" d="M 20.5 60 L 20.5 63 Q 17.5 61.5 20.5 60 Z " /><path fill="rgb(8,4,4)" stroke="rgb(8,4,4)" stroke-width="1" opacity="0.3764705882352941" d="M 22.5 64 L 25 65.5 L 23.5 65 L 22.5 64 Z " /><path fill="rgb(8,4,4)" stroke="rgb(8,4,4)" stroke-width="1" opacity="0.3764705882352941" d="M 24.5 67 L 23.5 69 L 24.5 67 Z " /><path fill="rgb(8,4,4)" stroke="rgb(8,4,4)" stroke-width="1" opacity="0.3764705882352941" d="M 34.5 67 L 35.5 69 L 34.5 67 Z " /><path fill="rgb(8,4,4)" stroke="rgb(8,4,4)" stroke-width="1" opacity="0.3764705882352941" d="M 59.5 68 L 60.5 70 L 59.5 68 Z " /><path fill="rgb(8,4,4)" stroke="rgb(8,4,4)" stroke-width="1" opacity="0.3764705882352941" d="M 39.5 70 L 43 70.5 L 39.5 71 L 39.5 70 Z " /><path fill="rgb(8,4,4)" stroke="rgb(8,4,4)" stroke-width="1" opacity="0.3764705882352941" d="M 53.5 71 L 51.5 74 L 53.5 71 Z " /><path fill="rgb(8,4,4)" stroke="rgb(8,4,4)" stroke-width="1" opacity="0.3764705882352941" d="M 22.5 72 L 21.5 74 L 22.5 72 Z " /><path fill="rgb(8,4,4)" stroke="rgb(8,4,4)" stroke-width="1" opacity="0.3764705882352941" d="M 47.5 78 L 49.5 78 L 52 80.5 L 49.5 79 L 48.5 80 L 47.5 78 Z " /><path fill="rgb(8,4,4)" stroke="rgb(8,4,4)" stroke-width="1" opacity="0.3764705882352941" d="M 32.5 79 L 35 79.5 L 31.5 81 L 29.5 82 L 30.5 80 L 32.5 79 Z " /><path fill="rgb(7,3,3)" stroke="rgb(7,3,3)" stroke-width="1" opacity="0.8588235294117647" d="M 65 16 Q 68.8 14.5 68 17.5 L 69 20 L 75 18 L 74 22.5 Q 75.3 25.3 76.5 23 L 78.5 22 L 80 25.5 L 78 29 L 82 30.5 L 82 33 Q 76.8 30.9 78 35.5 Q 80.8 36.6 80 40 L 75.5 39 Q 72.8 40.3 75 41.5 L 73.5 45 L 69.5 42 L 68 47 Q 63.5 48.8 65 43.5 Q 62.7 39.7 60.5 45 L 58 43.5 L 59 39 L 54.5 40 L 53 37.5 L 56 34.5 L 54.5 33 Q 49.3 34.5 51 30 L 55 29 L 53 23.5 Q 54.3 20.8 55.5 23 L 57.5 24 L 59 21.5 L 58 18 L 63.5 20 L 65 16 Z M 67 17 L 66 21 L 64 22 L 61 20 L 59 25 L 56 24 L 54 25 Q 58 26 57 30 L 53 32 L 56 32 L 57 36 L 56 38 Q 62 36 60 42 L 60 43 L 65 41 L 67 45 L 68 41 Q 71 40 73 43 L 74 43 L 73 40 L 78 38 L 76 34 L 80 32 L 78 30 L 76 28 L 79 24 L 77 25 L 73 24 L 74 21 L 74 19 L 70 22 L 67 17 Z " /><path fill="rgb(7,3,3)" stroke="rgb(7,3,3)" stroke-width="1" opacity="0.8588235294117647" d="M 65.5 25 Q 70.3 25.3 72 28.5 L 73 31.5 L 69.5 37 Q 63 38 61 34.5 Q 59.5 27.5 63.5 26 L 65.5 25 Z M 67 26 L 65 27 Q 61 28 62 34 Q 63 37 69 36 Q 72 35 71 30 L 67 26 Z " /><path fill="rgb(7,3,3)" stroke="rgb(7,3,3)" stroke-width="1" opacity="0.8588235294117647" d="M 39 38 Q 42.8 37 44 39.5 Q 43 44 45.5 45 L 49 43.5 L 50.5 41 L 55 42.5 L 53 48.5 L 56.5 50 L 61 48 L 62 53 L 58 55.5 L 59.5 59 L 64 59 L 64 64 Q 59.4 62.8 58 65.5 Q 57.5 69.5 60.5 70 Q 63.1 69.2 62 72.5 L 61 75 L 54.5 73 L 53 76.5 L 55 80.5 L 50.5 82 L 47.5 78 L 44 79.5 Q 45 84 42.5 85 Q 36.8 86.8 39 80.5 L 38 78 Q 34.2 77.3 33 80.5 Q 33.8 83.1 30.5 82 L 28 81 L 30 74.5 L 26.5 73 L 22 75 L 21 70.5 L 25 67.5 L 23.5 64 Q 19 65 18 62.5 L 19.5 59 Q 24 60 25 57.5 L 23.5 54 L 21 52.5 L 22 48 L 28.5 50 L 30 47.5 L 28 42 L 33 41 L 35.5 45 Q 38.8 46.1 38 43.5 L 39 38 Z M 40 40 L 40 45 L 36 47 L 32 43 L 30 44 L 31 48 L 32 49 L 29 52 L 22 50 L 25 54 Q 28 53 26 59 L 19 62 Q 20 64 25 63 Q 27 64 26 69 L 24 70 L 22 73 L 28 72 L 29 71 L 32 75 L 30 78 Q 28 82 32 81 L 36 76 L 39 77 Q 41 78 40 83 Q 45 85 43 79 L 48 76 L 49 79 Q 51 83 53 80 L 51 76 L 55 71 L 59 73 L 61 72 L 56 68 L 57 65 Q 58 62 63 63 Q 65 58 59 60 L 56 56 L 60 53 Q 63 52 60 50 L 56 51 L 55 52 L 51 49 L 53 45 L 52 42 L 48 47 L 43 45 Q 45 38 40 40 Z " /><path fill="rgb(7,3,3)" stroke="rgb(7,3,3)" stroke-width="1" opacity="0.8588235294117647" d="M 40 48 Q 44.1 46.7 43 50 Q 38.9 51.3 40 48 Z " /><path fill="rgb(7,3,3)" stroke="rgb(7,3,3)" stroke-width="1" opacity="0.8588235294117647" d="M 34 49 L 37 50.5 L 34 52 L 34 49 Z " /><path fill="rgb(7,3,3)" stroke="rgb(7,3,3)" stroke-width="1" opacity="0.8588235294117647" d="M 47.5 49 L 49 52 Q 45.2 53.5 46 50.5 L 47.5 49 Z " /><path fill="rgb(7,3,3)" stroke="rgb(7,3,3)" stroke-width="1" opacity="0.8588235294117647" d="M 37.5 53 Q 46.5 51.5 49 56.5 L 50 64.5 L 46.5 69 L 37.5 70 Q 31 68 33 57.5 L 37.5 53 Z M 39 54 L 34 59 Q 33 68 39 69 L 46 68 L 49 64 L 48 58 Q 46 53 39 54 Z " /><path fill="rgb(7,3,3)" stroke="rgb(7,3,3)" stroke-width="1" opacity="0.8588235294117647" d="M 29 54 Q 32.8 52.5 32 55.5 Q 30.5 58.5 29 55.5 L 29 54 Z " /><path fill="rgb(7,3,3)" stroke="rgb(7,3,3)" stroke-width="1" opacity="0.8588235294117647" d="M 51 54 L 54 55.5 L 51 57 L 51 54 Z " /><path fill="rgb(7,3,3)" stroke="rgb(7,3,3)" stroke-width="1" opacity="0.8588235294117647" d="M 28.5 60 Q 31.5 59.2 30 63 L 27 61.5 L 28.5 60 Z " /><path fill="rgb(7,3,3)" stroke="rgb(7,3,3)" stroke-width="1" opacity="0.8588235294117647" d="M 53.5 60 Q 56.5 59.2 55 63 L 52 61.5 L 53.5 60 Z " /><path fill="rgb(7,3,3)" stroke="rgb(7,3,3)" stroke-width="1" opacity="0.8588235294117647" d="M 30.5 66 L 32 69 Q 28.3 70.5 29 67.5 L 30.5 66 Z " /><path fill="rgb(7,3,3)" stroke="rgb(7,3,3)" stroke-width="1" opacity="0.8588235294117647" d="M 51 66 L 54 67.5 L 51 69 L 51 66 Z " /><path fill="rgb(7,3,3)" stroke="rgb(7,3,3)" stroke-width="1" opacity="0.8588235294117647" d="M 34 71 L 37 72.5 L 34 74 L 34 71 Z " /><path fill="rgb(7,3,3)" stroke="rgb(7,3,3)" stroke-width="1" opacity="0.8588235294117647" d="M 46 71 Q 49.8 69.5 49 72.5 Q 47.5 75.5 46 72.5 L 46 71 Z " /><path fill="rgb(7,3,3)" stroke="rgb(7,3,3)" stroke-width="1" opacity="0.8588235294117647" d="M 40 73 Q 44.1 71.7 43 75 Q 38.9 76.3 40 73 Z " /><path fill="rgb(8,8,8)" stroke="rgb(8,8,8)" stroke-width="1" opacity="0.12549019607843137" d="M 80.5 25 L 79.5 27 L 80.5 25 Z " /><path fill="rgb(8,8,8)" stroke="rgb(8,8,8)" stroke-width="1" opacity="0.12549019607843137" d="M 51.5 53 L 50.5 55 L 51.5 53 Z " /><path fill="rgb(8,8,8)" stroke="rgb(8,8,8)" stroke-width="1" opacity="0.12549019607843137" d="M 34.5 70 L 33.5 72 L 34.5 70 Z " /></svg>