<svg width="100" height="100" version="1.1" xmlns="http://www.w3.org/2000/svg" desc="Created with imagetracer.js version 1.2.6" ><path fill="rgb(8,3,3)" stroke="rgb(8,3,3)" stroke-width="1" opacity="0.49019607843137253" d="M 82.5 21 L 83 68.5 L 82 68.5 L 82.5 21 Z " /><path fill="rgb(8,3,3)" stroke="rgb(8,3,3)" stroke-width="1" opacity="0.49019607843137253" d="M 69.5 26 L 71.5 27 L 73.5 27 L 76.5 26 L 78.5 27 L 80 26.5 L 77.5 28 L 75.5 28 L 72.5 27 L 69 28 L 69.5 26 Z " /><path fill="rgb(8,3,3)" stroke="rgb(8,3,3)" stroke-width="1" opacity="0.49019607843137253" d="M 39.5 28 L 38.5 30 L 19 29.5 L 38.5 29 L 39.5 28 Z " /><path fill="rgb(8,3,3)" stroke="rgb(8,3,3)" stroke-width="1" opacity="0.49019607843137253" d="M 42.5 30 L 41.5 32 L 42.5 30 Z " /><path fill="rgb(8,3,3)" stroke="rgb(8,3,3)" stroke-width="1" opacity="0.49019607843137253" d="M 43.5 32 L 81 32.5 L 43.5 33 L 43.5 32 Z " /><path fill="rgb(8,3,3)" stroke="rgb(8,3,3)" stroke-width="1" opacity="0.49019607843137253" d="M 33.5 37 L 60 37.5 L 33.5 38 L 33.5 37 Z " /><path fill="rgb(8,3,3)" stroke="rgb(8,3,3)" stroke-width="1" opacity="0.49019607843137253" d="M 62.5 37 L 67 37.5 L 62.5 38 L 62.5 37 Z " /><path fill="rgb(8,3,3)" stroke="rgb(8,3,3)" stroke-width="1" opacity="0.49019607843137253" d="M 33.5 45 L 38 45.5 L 33.5 46 L 33.5 45 Z " /><path fill="rgb(8,3,3)" stroke="rgb(8,3,3)" stroke-width="1" opacity="0.49019607843137253" d="M 40.5 45 L 44 45.5 L 40.5 46 L 40.5 45 Z " /><path fill="rgb(8,3,3)" stroke="rgb(8,3,3)" stroke-width="1" opacity="0.49019607843137253" d="M 46.5 45 L 67 45.5 L 46.5 46 L 46.5 45 Z " /><path fill="rgb(8,3,3)" stroke="rgb(8,3,3)" stroke-width="1" opacity="0.49019607843137253" d="M 33.5 49 L 38 49.5 L 33.5 50 L 33.5 49 Z " /><path fill="rgb(8,3,3)" stroke="rgb(8,3,3)" stroke-width="1" opacity="0.49019607843137253" d="M 41.5 49 L 67 49.5 L 41.5 50 L 40.5 51 L 41.5 49 Z " /><path fill="rgb(8,3,3)" stroke="rgb(8,3,3)" stroke-width="1" opacity="0.49019607843137253" d="M 33.5 53 L 54 53.5 L 33.5 54 L 33.5 53 Z " /><path fill="rgb(8,3,3)" stroke="rgb(8,3,3)" stroke-width="1" opacity="0.49019607843137253" d="M 56.5 53 L 60 53.5 L 56.5 54 L 56.5 53 Z " /><path fill="rgb(8,3,3)" stroke="rgb(8,3,3)" stroke-width="1" opacity="0.49019607843137253" d="M 62.5 53 L 67 53.5 L 62.5 54 L 62.5 53 Z " /><path fill="rgb(8,3,3)" stroke="rgb(8,3,3)" stroke-width="1" opacity="0.49019607843137253" d="M 44.5 63 L 43.5 65 L 44.5 63 Z " /><path fill="rgb(8,3,3)" stroke="rgb(8,3,3)" stroke-width="1" opacity="0.49019607843137253" d="M 55.5 63 L 56.5 65 L 55.5 63 Z " /><path fill="rgb(8,3,3)" stroke="rgb(8,3,3)" stroke-width="1" opacity="0.49019607843137253" d="M 46.5 65 L 45.5 67 L 46.5 65 Z " /><path fill="rgb(8,3,3)" stroke="rgb(8,3,3)" stroke-width="1" opacity="0.49019607843137253" d="M 66.5 67 L 65.5 69 L 66.5 67 Z " /><path fill="rgb(8,3,3)" stroke="rgb(8,3,3)" stroke-width="1" opacity="0.49019607843137253" d="M 39.5 68 Q 44 70 40.5 72 L 39 70.5 L 39.5 68 Z " /><path fill="rgb(8,3,3)" stroke="rgb(8,3,3)" stroke-width="1" opacity="0.49019607843137253" d="M 34.5 69 L 33.5 71 L 34.5 69 Z " /><path fill="rgb(8,3,3)" stroke="rgb(8,3,3)" stroke-width="1" opacity="0.49019607843137253" d="M 59.5 69 Q 63 71 58.5 73 L 58 70.5 L 59.5 69 Z " /><path fill="rgb(8,3,3)" stroke="rgb(8,3,3)" stroke-width="1" opacity="0.49019607843137253" d="M 63.5 69 L 62.5 71 L 63.5 69 Z " /><path fill="rgb(8,3,3)" stroke="rgb(8,3,3)" stroke-width="1" opacity="0.49019607843137253" d="M 47.5 73 L 48 75.5 L 47.5 77 L 46 74.5 L 47.5 73 Z " /><path fill="rgb(8,3,3)" stroke="rgb(8,3,3)" stroke-width="1" opacity="0.49019607843137253" d="M 52.5 73 L 55 74.5 L 53.5 75 L 51 74.5 L 52.5 73 Z " /><path fill="rgb(8,3,3)" stroke="rgb(8,3,3)" stroke-width="1" opacity="0.49019607843137253" d="M 39.5 74 L 40.5 76 L 39.5 74 Z " /><path fill="rgb(8,3,3)" stroke="rgb(8,3,3)" stroke-width="1" opacity="0.49019607843137253" d="M 43.5 74 Q 46.5 75.5 43.5 77 Q 40.5 75.5 43.5 74 Z " /><path fill="rgb(8,3,3)" stroke="rgb(8,3,3)" stroke-width="1" opacity="0.49019607843137253" d="M 60.5 74 L 59.5 78 L 56 76.5 L 60.5 74 Z " /><path fill="rgb(8,4,4)" stroke="rgb(8,4,4)" stroke-width="1" opacity="0.23137254901960785" d="M 44 45 Q 47 44 46 47 Q 43 48 44 45 Z " /><path fill="rgb(8,4,4)" stroke="rgb(8,4,4)" stroke-width="1" opacity="0.23137254901960785" d="M 54.5 53 L 55.5 55 L 54.5 53 Z " /><path fill="rgb(8,4,4)" stroke="rgb(8,4,4)" stroke-width="1" opacity="0.25098039215686274" d="M 18.5 20 L 82 20.5 L 18 21 L 18 68.5 L 18.5 69 L 32.5 69 L 32.5 70 L 18.5 70 L 17 68.5 L 17 21.5 L 18.5 20 Z " /><path fill="rgb(8,4,4)" stroke="rgb(8,4,4)" stroke-width="1" opacity="0.25098039215686274" d="M 33.5 41 L 54 41.5 L 33.5 42 L 33.5 41 Z " /><path fill="rgb(8,4,4)" stroke="rgb(8,4,4)" stroke-width="1" opacity="0.25098039215686274" d="M 56.5 41 L 60 41.5 L 56.5 42 L 56.5 41 Z " /><path fill="rgb(8,4,4)" stroke="rgb(8,4,4)" stroke-width="1" opacity="0.25098039215686274" d="M 62.5 41 Q 67 40 68 42.5 L 66.5 42 Q 61.5 43 62.5 41 Z " /><path fill="rgb(8,4,4)" stroke="rgb(8,4,4)" stroke-width="1" opacity="0.25098039215686274" d="M 25.5 61 L 30 61.5 L 25.5 62 L 25.5 61 Z " /><path fill="rgb(8,4,4)" stroke="rgb(8,4,4)" stroke-width="1" opacity="0.25098039215686274" d="M 35.5 61 Q 41.5 59.5 43 62.5 L 41.5 62 L 35.5 62 L 35.5 61 Z " /><path fill="rgb(8,4,4)" stroke="rgb(8,4,4)" stroke-width="1" opacity="0.25098039215686274" d="M 44.5 61 L 56 61.5 L 44.5 62 L 44.5 61 Z " /><path fill="rgb(8,4,4)" stroke="rgb(8,4,4)" stroke-width="1" opacity="0.25098039215686274" d="M 58.5 61 L 65 61.5 L 58.5 62 L 58.5 61 Z " /><path fill="rgb(8,4,4)" stroke="rgb(8,4,4)" stroke-width="1" opacity="0.25098039215686274" d="M 70.5 61 L 75 61.5 L 70.5 62 L 70.5 61 Z " /><path fill="rgb(8,4,4)" stroke="rgb(8,4,4)" stroke-width="1" opacity="0.25098039215686274" d="M 68.5 69 L 82 69.5 L 68.5 70 L 68.5 69 Z " /><path fill="rgb(0,0,0)" stroke="rgb(0,0,0)" stroke-width="1" opacity="0" d="M 0 0 L 100 0 L 100 100 L 0 100 L 0 0 Z M 19 20 L 17 22 L 17 69 L 19 70 L 33 70 L 35 72 L 40 71 L 39 74 Q 38 77 41 78 L 47 75 L 48 79 Q 47 81 52 80 Q 54 79 53 75 L 58 78 L 61 77 L 60 71 L 65 72 L 67 72 L 68 70 L 82 70 L 83 69 L 83 22 L 82 20 L 19 20 Z " /><path fill="rgb(0,0,0)" stroke="rgb(0,0,0)" stroke-width="1" opacity="0" d="M 19 22 L 80.5 22 L 81 22.5 L 81 31 L 43.5 31 L 39.5 28 L 19 28 L 19 22 Z M 69 26 L 70 28 L 80 28 L 80 26 L 69 26 Z " /><path fill="rgb(0,0,0)" stroke="rgb(0,0,0)" stroke-width="1" opacity="0" d="M 19 30 L 38.5 30 L 42.5 33 L 81 33 L 81 68 L 67.5 68 L 64 66 Q 62.9 63.3 65.5 64 Q 68.4 61.4 74.5 62 L 76 60.5 L 25 60 Q 23.6 63.7 29.5 62 L 36 64 Q 37.1 66.7 34.5 66 L 32.5 68 L 19 68 L 19 30 Z M 34 37 L 32 39 L 60 39 L 60 37 L 34 37 Z M 63 37 L 61 39 L 68 39 Q 69 35 63 37 Z M 34 41 L 33 43 L 60 43 L 60 41 L 56 42 L 54 41 L 34 41 Z M 63 41 L 62 43 L 68 43 Q 67 40 63 41 Z M 34 45 L 33 47 L 39 47 Q 38 44 34 45 Z M 40 45 L 41 47 L 68 47 L 68 45 L 40 45 Z M 34 49 L 33 51 L 39 51 Q 38 48 34 49 Z M 40 49 L 40 51 L 68 51 L 67 49 L 40 49 Z M 34 53 L 33 55 L 60 55 L 60 53 L 56 54 L 55 53 L 34 53 Z M 63 53 L 62 55 L 68 55 Q 67 52 63 53 Z " /><path fill="rgb(0,0,0)" stroke="rgb(0,0,0)" stroke-width="1" opacity="0" d="M 38 62 Q 41.8 61 43 63.5 L 46.5 68 L 50.5 69 L 57 64.5 L 58.5 62 L 63 62.5 L 62 67 L 65 68.5 L 64.5 70 L 60.5 68 Q 57.3 68.8 58 73.5 L 59 75.5 L 54.5 72 L 53.5 73 Q 48.9 71.7 51 77.5 L 49 76.5 Q 50.7 71.7 46.5 73 L 45.5 72 L 41 75.5 L 42 70.5 L 38.5 68 L 35.5 70 L 35 68 L 38 66.5 L 38 62 Z " /><path fill="rgb(0,0,0)" stroke="rgb(0,0,0)" stroke-width="1" opacity="0" d="M 45 62 L 56 62.5 Q 54.8 67.2 47.5 66 L 45 62 Z " /><path fill="rgb(7,3,3)" stroke="rgb(7,3,3)" stroke-width="1" opacity="0.7803921568627451" d="M 73.5 26 L 76 26.5 L 73.5 27 L 73.5 26 Z " /><path fill="rgb(7,3,3)" stroke="rgb(7,3,3)" stroke-width="1" opacity="0.7803921568627451" d="M 43.5 31 L 81 31.5 L 43.5 32 L 43.5 31 Z " /><path fill="rgb(7,3,3)" stroke="rgb(7,3,3)" stroke-width="1" opacity="0.7803921568627451" d="M 33.5 38 L 60 38.5 L 33.5 39 L 33.5 38 Z " /><path fill="rgb(7,3,3)" stroke="rgb(7,3,3)" stroke-width="1" opacity="0.7803921568627451" d="M 62.5 38 L 67 38.5 L 62.5 39 L 62.5 38 Z " /><path fill="rgb(7,3,3)" stroke="rgb(7,3,3)" stroke-width="1" opacity="0.7803921568627451" d="M 33.5 46 L 38 46.5 L 33.5 47 L 33.5 46 Z " /><path fill="rgb(7,3,3)" stroke="rgb(7,3,3)" stroke-width="1" opacity="0.7803921568627451" d="M 40.5 46 L 44 46.5 L 40.5 47 L 40.5 46 Z " /><path fill="rgb(7,3,3)" stroke="rgb(7,3,3)" stroke-width="1" opacity="0.7803921568627451" d="M 46.5 46 L 67 46.5 L 46.5 47 L 46.5 46 Z " /><path fill="rgb(7,3,3)" stroke="rgb(7,3,3)" stroke-width="1" opacity="0.7803921568627451" d="M 33.5 50 L 38 50.5 L 33.5 51 L 33.5 50 Z " /><path fill="rgb(7,3,3)" stroke="rgb(7,3,3)" stroke-width="1" opacity="0.7803921568627451" d="M 41.5 50 L 67 50.5 L 41.5 51 L 41.5 50 Z " /><path fill="rgb(7,3,3)" stroke="rgb(7,3,3)" stroke-width="1" opacity="0.7803921568627451" d="M 32.5 61 L 33 63 L 31 62.5 L 32.5 61 Z " /><path fill="rgb(7,3,3)" stroke="rgb(7,3,3)" stroke-width="1" opacity="0.7803921568627451" d="M 67.5 61 L 68.5 63 Q 65.7 63.7 67.5 61 Z " /><path fill="rgb(7,3,3)" stroke="rgb(7,3,3)" stroke-width="1" opacity="0.7803921568627451" d="M 36.5 64 L 37.5 66 Q 35.3 65.3 36 67.5 L 34 68.5 L 36.5 64 Z " /><path fill="rgb(7,3,3)" stroke="rgb(7,3,3)" stroke-width="1" opacity="0.7803921568627451" d="M 63.5 64 L 64 66 L 62 65.5 L 63.5 64 Z " /><path fill="rgb(7,3,3)" stroke="rgb(7,3,3)" stroke-width="1" opacity="0.7803921568627451" d="M 55.5 65 L 54.5 67 L 55.5 65 Z " /><path fill="rgb(7,3,3)" stroke="rgb(7,3,3)" stroke-width="1" opacity="0.7803921568627451" d="M 66.5 70 L 65.5 72 L 66.5 70 Z " /><path fill="rgb(7,3,3)" stroke="rgb(7,3,3)" stroke-width="1" opacity="0.7803921568627451" d="M 55.5 73 L 56.5 75 L 55.5 73 Z " /><path fill="rgb(7,3,3)" stroke="rgb(7,3,3)" stroke-width="1" opacity="0.7803921568627451" d="M 51 75 L 53 75.5 L 51 76.5 L 51 75 Z " /><path fill="rgb(7,3,3)" stroke="rgb(7,3,3)" stroke-width="1" opacity="0.7803921568627451" d="M 41.5 76 L 42.5 78 L 41.5 76 Z " /><path fill="rgb(8,4,4)" stroke="rgb(8,4,4)" stroke-width="1" opacity="1" d="M 18 21 L 82 21 L 82 69 L 67.5 69 L 63.5 71 L 63.5 70 Q 66.8 71.1 66 68.5 L 63 66.5 L 64.5 66 L 66.5 68 L 81 68 L 81 22 L 19 22 L 19 27.5 L 19.5 28 L 38.5 28 L 39.5 30 L 38.5 29 L 19 29 L 19 68 L 33.5 68 L 35 67.5 L 34 70 L 37 70.5 L 34.5 71 L 32.5 69 L 18 69 L 18 21 Z " /><path fill="rgb(8,4,4)" stroke="rgb(8,4,4)" stroke-width="1" opacity="1" d="M 41.5 30 L 42.5 32 L 41.5 30 Z " /><path fill="rgb(8,4,4)" stroke="rgb(8,4,4)" stroke-width="1" opacity="1" d="M 33.5 42 L 54 42.5 L 33.5 43 L 33.5 42 Z " /><path fill="rgb(8,4,4)" stroke="rgb(8,4,4)" stroke-width="1" opacity="1" d="M 56.5 42 L 60 42.5 L 56.5 43 L 56.5 42 Z " /><path fill="rgb(8,4,4)" stroke="rgb(8,4,4)" stroke-width="1" opacity="1" d="M 62.5 42 L 67 42.5 L 62.5 43 L 62.5 42 Z " /><path fill="rgb(8,4,4)" stroke="rgb(8,4,4)" stroke-width="1" opacity="1" d="M 33.5 54 L 54 54.5 L 33.5 55 L 33.5 54 Z " /><path fill="rgb(8,4,4)" stroke="rgb(8,4,4)" stroke-width="1" opacity="1" d="M 56.5 54 L 59 54.5 L 56.5 55 L 56.5 54 Z " /><path fill="rgb(8,4,4)" stroke="rgb(8,4,4)" stroke-width="1" opacity="1" d="M 62.5 54 L 67 54.5 L 62.5 55 L 62.5 54 Z " /><path fill="rgb(8,4,4)" stroke="rgb(8,4,4)" stroke-width="1" opacity="1" d="M 25.5 60 L 75 60.5 L 68.5 62 L 67.5 61 L 44 61 L 43.5 63 L 43 61 L 32.5 61 L 31.5 62 Q 30.2 59.7 25.5 61 L 25.5 60 Z " /><path fill="rgb(8,4,4)" stroke="rgb(8,4,4)" stroke-width="1" opacity="1" d="M 33.5 62 Q 37.9 60.5 37 63.5 L 35.5 63 Q 32.5 63.5 33.5 62 Z " /><path fill="rgb(8,4,4)" stroke="rgb(8,4,4)" stroke-width="1" opacity="1" d="M 56.5 62 L 57 63.5 L 53 66.5 L 56.5 62 Z " /><path fill="rgb(8,4,4)" stroke="rgb(8,4,4)" stroke-width="1" opacity="1" d="M 63 62 L 67 62.5 L 63.5 64 L 63 62 Z " /><path fill="rgb(8,4,4)" stroke="rgb(8,4,4)" stroke-width="1" opacity="1" d="M 44.5 64 L 46.5 67 L 44.5 64 Z " /><path fill="rgb(8,4,4)" stroke="rgb(8,4,4)" stroke-width="1" opacity="1" d="M 48.5 67 L 52 67.5 L 48.5 68 L 48.5 67 Z " /><path fill="rgb(8,4,4)" stroke="rgb(8,4,4)" stroke-width="1" opacity="1" d="M 38.5 69 L 42 71.5 L 39.5 70 L 38.5 69 Z " /><path fill="rgb(8,4,4)" stroke="rgb(8,4,4)" stroke-width="1" opacity="1" d="M 60.5 69 L 62 69.5 L 58.5 72 L 60.5 69 Z " /><path fill="rgb(8,4,4)" stroke="rgb(8,4,4)" stroke-width="1" opacity="1" d="M 40.5 73 L 41 74.5 Q 38.8 75.8 41.5 77 L 46 73.5 L 41.5 78 L 39 75.5 L 40.5 73 Z " /><path fill="rgb(8,4,4)" stroke="rgb(8,4,4)" stroke-width="1" opacity="1" d="M 54.5 73 L 58.5 77 L 61 75.5 Q 61.8 77.8 59.5 77 L 58.5 78 L 54.5 73 Z " /><path fill="rgb(8,4,4)" stroke="rgb(8,4,4)" stroke-width="1" opacity="1" d="M 48.5 76 L 49 79 Q 51.7 80.1 51 77.5 L 52 77.5 Q 53.2 82.1 48 80 L 48.5 76 Z " /></svg>