<svg width="100" height="100" version="1.1" xmlns="http://www.w3.org/2000/svg" desc="Created with imagetracer.js version 1.2.6" ><path fill="rgb(0,0,0)" stroke="rgb(0,0,0)" stroke-width="1" opacity="0" d="M 0 0 L 100 0 L 100 100 L 0 100 L 0 0 Z M 52 20 L 52 25 L 55 25 L 55 20 L 52 20 Z M 46 22 Q 45 26 49 27 L 50 25 L 46 22 Z M 58 22 L 57 26 L 59 27 Q 58 24 61 25 Q 63 21 58 22 Z M 51 26 L 47 36 L 34 36 L 32 38 L 33 40 L 33 41 L 35 42 L 35 47 L 33 46 L 21 47 L 21 57 L 22 58 Q 23 60 20 59 L 19 56 L 15 58 L 16 61 Q 17 65 14 64 L 15 67 L 28 67 L 30 67 L 35 66 L 36 67 L 86 67 Q 87 63 84 64 L 85 58 L 82 56 L 80 59 L 78 56 Q 74 55 75 59 L 74 59 Q 75 56 72 57 L 72 42 L 74 41 L 74 36 L 60 36 Q 61 32 58 33 L 58 28 Q 57 25 51 26 Z M 43 28 L 43 30 L 48 30 L 48 28 L 43 28 Z M 59 28 L 59 30 L 64 30 L 64 28 L 59 28 Z " /><path fill="rgb(0,0,0)" stroke="rgb(0,0,0)" stroke-width="1" opacity="0" d="M 42 44 Q 47.6 41.8 46 47.5 L 44.5 47 L 42 47.5 L 42 54.5 L 41 54.5 Q 40.3 47.4 42 44 Z " /><path fill="rgb(0,0,0)" stroke="rgb(0,0,0)" stroke-width="1" opacity="0" d="M 51 44 Q 56.6 41.8 55 47.5 L 53.5 47 Q 49.3 48.1 51 44 Z " /><path fill="rgb(0,0,0)" stroke="rgb(0,0,0)" stroke-width="1" opacity="0" d="M 61 44 Q 66.6 41.8 65 47.5 L 63.5 47 L 61.5 48 L 61 44 Z " /><path fill="rgb(0,0,0)" stroke="rgb(0,0,0)" stroke-width="1" opacity="0" d="M 30 52 L 32 52 Q 30.9 54.7 33.5 54 Q 36.3 55.2 34 56.5 L 33.5 60 L 30.5 59 L 28 60 L 29 57.5 L 27.5 55 L 30 53.5 L 30 52 Z " /><path fill="rgb(0,0,0)" stroke="rgb(0,0,0)" stroke-width="1" opacity="0" d="M 46.5 53 L 60 53.5 L 46.5 54 L 46.5 53 Z " /><path fill="rgb(0,0,0)" stroke="rgb(0,0,0)" stroke-width="1" opacity="0" d="M 48 57 Q 53.6 55.1 52 60 Q 49 59 50 62 Q 53 60.8 52 64.5 L 50.5 64 L 48.5 65 L 48 57 Z " /><path fill="rgb(0,0,0)" stroke="rgb(0,0,0)" stroke-width="1" opacity="0" d="M 55 57 L 59 57 L 59 64 Q 53.8 65.7 55 62 Q 58 63 57 60 Q 53.7 61.1 55 57 Z " /><path fill="rgb(0,0,0)" stroke="rgb(0,0,0)" stroke-width="1" opacity="0" d="M 20.5 61 L 21 63.5 L 20 63.5 L 20.5 61 Z " /><path fill="rgb(0,0,0)" stroke="rgb(0,0,0)" stroke-width="1" opacity="0" d="M 74.5 61 L 75 63.5 L 74 63.5 L 74.5 61 Z " /><path fill="rgb(0,0,0)" stroke="rgb(0,0,0)" stroke-width="1" opacity="0" d="M 79.5 61 L 80 63.5 L 79 63.5 L 79.5 61 Z " /><path fill="rgb(112,112,112)" stroke="rgb(112,112,112)" stroke-width="1" opacity="0.1803921568627451" d="M 34.5 40 L 48 40.5 L 36.5 41 L 35.5 42 L 34.5 40 Z " /><path fill="rgb(112,112,112)" stroke="rgb(112,112,112)" stroke-width="1" opacity="0.1803921568627451" d="M 49.5 40 L 73 40.5 L 49.5 41 L 49.5 40 Z " /><path fill="rgb(112,112,112)" stroke="rgb(112,112,112)" stroke-width="1" opacity="0.1803921568627451" d="M 42.5 43 L 44 43.5 L 41.5 45 L 42.5 43 Z " /><path fill="rgb(112,112,112)" stroke="rgb(112,112,112)" stroke-width="1" opacity="0.1803921568627451" d="M 61.5 43 L 63 43.5 L 60.5 45 L 61.5 43 Z " /><path fill="rgb(112,112,112)" stroke="rgb(112,112,112)" stroke-width="1" opacity="0.1803921568627451" d="M 55.5 44 L 56 47.5 L 55 47.5 L 55.5 44 Z " /><path fill="rgb(112,112,112)" stroke="rgb(112,112,112)" stroke-width="1" opacity="0.1803921568627451" d="M 48.5 52 L 59 52.5 L 48.5 53 L 48.5 52 Z " /><path fill="rgb(112,112,112)" stroke="rgb(112,112,112)" stroke-width="1" opacity="0.1803921568627451" d="M 55.5 54 L 58 54.5 L 55.5 55 L 55.5 54 Z " /><path fill="rgb(112,112,112)" stroke="rgb(112,112,112)" stroke-width="1" opacity="0.1803921568627451" d="M 73.5 61 L 74 63.5 L 73 63.5 L 73.5 61 Z " /><path fill="rgb(112,112,112)" stroke="rgb(112,112,112)" stroke-width="1" opacity="0.1803921568627451" d="M 54.5 63 L 58 64.5 L 54 65 L 54.5 63 Z " /><path fill="rgb(183,183,182)" stroke="rgb(183,183,182)" stroke-width="1" opacity="0.1568627450980392" d="M 54.5 20 L 55 24.5 L 54 24.5 L 54.5 20 Z " /><path fill="rgb(183,183,182)" stroke="rgb(183,183,182)" stroke-width="1" opacity="0.1568627450980392" d="M 46.5 22 L 50 24.5 L 47.5 23 L 46.5 22 Z " /><path fill="rgb(183,183,182)" stroke="rgb(183,183,182)" stroke-width="1" opacity="0.1568627450980392" d="M 46.5 24 Q 48.8 28.3 51 26.5 L 49.5 28 L 46.5 24 Z " /><path fill="rgb(183,183,182)" stroke="rgb(183,183,182)" stroke-width="1" opacity="0.1568627450980392" d="M 56.5 26 L 59 26.5 L 57.5 29 L 56.5 26 Z " /><path fill="rgb(183,183,182)" stroke="rgb(183,183,182)" stroke-width="1" opacity="0.1568627450980392" d="M 48.5 30 L 49 33 L 60 33.5 L 48 34 L 47.5 36 L 47 33.5 L 48.5 30 Z " /><path fill="rgb(183,183,182)" stroke="rgb(183,183,182)" stroke-width="1" opacity="0.1568627450980392" d="M 49.5 35 L 57 35.5 L 49.5 36 L 49.5 35 Z " /><path fill="rgb(183,183,182)" stroke="rgb(183,183,182)" stroke-width="1" opacity="0.1568627450980392" d="M 71.5 41 L 72 63.5 L 71 63.5 L 71.5 41 Z " /><path fill="rgb(183,183,182)" stroke="rgb(183,183,182)" stroke-width="1" opacity="0.1568627450980392" d="M 21 47 L 23 47.5 L 21 48.5 L 21 47 Z " /><path fill="rgb(183,183,182)" stroke="rgb(183,183,182)" stroke-width="1" opacity="0.1568627450980392" d="M 25.5 47 L 28 47.5 L 25.5 48 L 25.5 47 Z " /><path fill="rgb(183,183,182)" stroke="rgb(183,183,182)" stroke-width="1" opacity="0.1568627450980392" d="M 34.5 47 L 41 47.5 L 34.5 48 L 34.5 47 Z " /><path fill="rgb(183,183,182)" stroke="rgb(183,183,182)" stroke-width="1" opacity="0.1568627450980392" d="M 42.5 47 L 45 47.5 L 42.5 48 L 42.5 47 Z " /><path fill="rgb(183,183,182)" stroke="rgb(183,183,182)" stroke-width="1" opacity="0.1568627450980392" d="M 51.5 47 L 54 47.5 L 51.5 48 L 51.5 47 Z " /><path fill="rgb(183,183,182)" stroke="rgb(183,183,182)" stroke-width="1" opacity="0.1568627450980392" d="M 59.5 52 Q 62.5 51.2 61 55 L 58 54.5 L 60 53.5 L 59.5 52 Z " /><path fill="rgb(183,183,182)" stroke="rgb(183,183,182)" stroke-width="1" opacity="0.1568627450980392" d="M 29.5 53 L 28.5 55 L 27 55.5 L 28.5 58 Q 24 56 27.5 54 L 29.5 53 Z " /><path fill="rgb(183,183,182)" stroke="rgb(183,183,182)" stroke-width="1" opacity="0.1568627450980392" d="M 34.5 54 L 37 54.5 L 34 56.5 L 34.5 54 Z " /><path fill="rgb(183,183,182)" stroke="rgb(183,183,182)" stroke-width="1" opacity="0.1568627450980392" d="M 41.5 55 L 42 56.5 Q 40.5 63 35.5 66 L 33.5 67 L 39 60.5 L 41.5 55 Z " /><path fill="rgb(183,183,182)" stroke="rgb(183,183,182)" stroke-width="1" opacity="0.1568627450980392" d="M 16.5 56 L 16 57.5 L 15.5 60 L 15 57.5 L 16.5 56 Z " /><path fill="rgb(183,183,182)" stroke="rgb(183,183,182)" stroke-width="1" opacity="0.1568627450980392" d="M 18.5 56 L 19.5 58 L 18.5 56 Z " /><path fill="rgb(183,183,182)" stroke="rgb(183,183,182)" stroke-width="1" opacity="0.1568627450980392" d="M 55.5 56 L 57 56.5 L 54.5 58 L 55.5 56 Z " /><path fill="rgb(183,183,182)" stroke="rgb(183,183,182)" stroke-width="1" opacity="0.1568627450980392" d="M 81.5 56 L 80.5 58 L 81.5 56 Z " /><path fill="rgb(183,183,182)" stroke="rgb(183,183,182)" stroke-width="1" opacity="0.1568627450980392" d="M 83.5 56 L 85 59.5 L 84 59.5 L 83.5 56 Z " /><path fill="rgb(183,183,182)" stroke="rgb(183,183,182)" stroke-width="1" opacity="0.1568627450980392" d="M 22.5 58 L 28 66.5 L 27 66.5 Q 27.8 64.3 25.5 65 L 22 60.5 L 22.5 58 Z " /><path fill="rgb(183,183,182)" stroke="rgb(183,183,182)" stroke-width="1" opacity="0.1568627450980392" d="M 30.5 59 L 33 59.5 L 30.5 60 L 30.5 59 Z " /><path fill="rgb(183,183,182)" stroke="rgb(183,183,182)" stroke-width="1" opacity="0.1568627450980392" d="M 54.5 59 L 55 62.5 L 54 62.5 L 54.5 59 Z " /><path fill="rgb(183,183,182)" stroke="rgb(183,183,182)" stroke-width="1" opacity="0.1568627450980392" d="M 78.5 62 L 79.5 64 L 81 63.5 Q 79.5 66.5 78 63.5 L 78.5 62 Z " /><path fill="rgb(96,96,96)" stroke="rgb(96,96,96)" stroke-width="1" opacity="0.5529411764705883" d="M 44.5 28 L 47 28.5 L 44.5 29 L 44.5 28 Z " /><path fill="rgb(96,96,96)" stroke="rgb(96,96,96)" stroke-width="1" opacity="0.5529411764705883" d="M 60.5 28 L 63 28.5 L 60.5 29 L 60.5 28 Z " /><path fill="rgb(96,96,96)" stroke="rgb(96,96,96)" stroke-width="1" opacity="0.5529411764705883" d="M 73.5 37 L 74 39.5 L 73 39.5 L 73.5 37 Z " /><path fill="rgb(96,96,96)" stroke="rgb(96,96,96)" stroke-width="1" opacity="0.5529411764705883" d="M 35.5 42 L 36 45.5 L 35 45.5 L 35.5 42 Z " /><path fill="rgb(96,96,96)" stroke="rgb(96,96,96)" stroke-width="1" opacity="0.5529411764705883" d="M 46.5 44 L 47 46.5 L 46 46.5 L 46.5 44 Z " /><path fill="rgb(96,96,96)" stroke="rgb(96,96,96)" stroke-width="1" opacity="0.5529411764705883" d="M 47.5 57 L 48 64.5 L 47 64.5 L 47.5 57 Z " /><path fill="rgb(96,96,96)" stroke="rgb(96,96,96)" stroke-width="1" opacity="0.5529411764705883" d="M 72.5 58 L 75 59 L 74.5 61 L 72.5 58 Z " /><path fill="rgb(96,96,96)" stroke="rgb(96,96,96)" stroke-width="1" opacity="0.5529411764705883" d="M 78.5 58 L 81 59.5 L 79 60.5 L 78.5 58 Z " /><path fill="rgb(96,96,96)" stroke="rgb(96,96,96)" stroke-width="1" opacity="0.5529411764705883" d="M 72.5 61 L 73 63.5 L 72 63.5 L 72.5 61 Z " /><path fill="rgb(134,134,134)" stroke="rgb(134,134,134)" stroke-width="1" opacity="0.5098039215686274" d="M 52.5 21 L 54 24.5 L 52 23.5 L 52.5 21 Z " /><path fill="rgb(134,134,134)" stroke="rgb(134,134,134)" stroke-width="1" opacity="0.5098039215686274" d="M 59.5 22 L 60.5 24 Q 59.3 21.7 58 24.5 L 58.5 26 Q 55 24 59.5 22 Z " /><path fill="rgb(134,134,134)" stroke="rgb(134,134,134)" stroke-width="1" opacity="0.5098039215686274" d="M 55.5 26 L 56.5 28 L 55.5 26 Z " /><path fill="rgb(134,134,134)" stroke="rgb(134,134,134)" stroke-width="1" opacity="0.5098039215686274" d="M 57.5 29 L 58 32.5 L 57 32.5 L 57.5 29 Z " /><path fill="rgb(134,134,134)" stroke="rgb(134,134,134)" stroke-width="1" opacity="0.5098039215686274" d="M 55.5 31 L 54.5 33 L 49 32.5 L 55.5 31 Z " /><path fill="rgb(134,134,134)" stroke="rgb(134,134,134)" stroke-width="1" opacity="0.5098039215686274" d="M 48.5 35 Q 50.2 37.7 56.5 36 L 58.5 35 L 59.5 36 L 73 36.5 L 33.5 37 L 33.5 36 L 47.5 36 L 48.5 35 Z " /><path fill="rgb(134,134,134)" stroke="rgb(134,134,134)" stroke-width="1" opacity="0.5098039215686274" d="M 36.5 41 L 71 41.5 L 36.5 42 L 36.5 41 Z " /><path fill="rgb(134,134,134)" stroke="rgb(134,134,134)" stroke-width="1" opacity="0.5098039215686274" d="M 50.5 44 L 51 46.5 L 50 46.5 L 50.5 44 Z " /><path fill="rgb(134,134,134)" stroke="rgb(134,134,134)" stroke-width="1" opacity="0.5098039215686274" d="M 36.5 46 L 40 46.5 L 36.5 47 L 36.5 46 Z " /><path fill="rgb(134,134,134)" stroke="rgb(134,134,134)" stroke-width="1" opacity="0.5098039215686274" d="M 42.5 48 L 43 50.5 L 42 50.5 L 42.5 48 Z " /><path fill="rgb(134,134,134)" stroke="rgb(134,134,134)" stroke-width="1" opacity="0.5098039215686274" d="M 32.5 52 L 33.5 54 L 32.5 52 Z " /><path fill="rgb(134,134,134)" stroke="rgb(134,134,134)" stroke-width="1" opacity="0.5098039215686274" d="M 51.5 56 L 53 56.5 L 53 64.5 L 52 64.5 L 51 60.5 L 52 57.5 L 51.5 56 Z " /><path fill="rgb(134,134,134)" stroke="rgb(134,134,134)" stroke-width="1" opacity="0.5098039215686274" d="M 57.5 56 L 60 57.5 L 59.5 65 L 59 57 L 57.5 56 Z " /><path fill="rgb(134,134,134)" stroke="rgb(134,134,134)" stroke-width="1" opacity="0.5098039215686274" d="M 76.5 56 L 75.5 58 L 76.5 56 Z " /><path fill="rgb(134,134,134)" stroke="rgb(134,134,134)" stroke-width="1" opacity="0.5098039215686274" d="M 34.5 57 L 35 59.5 L 34 59.5 L 34.5 57 Z " /><path fill="rgb(134,134,134)" stroke="rgb(134,134,134)" stroke-width="1" opacity="0.5098039215686274" d="M 16.5 60 L 17 63.5 L 15 64.5 L 16.5 60 Z " /><path fill="rgb(134,134,134)" stroke="rgb(134,134,134)" stroke-width="1" opacity="0.5098039215686274" d="M 24.5 61 L 23.5 63 L 24.5 61 Z " /><path fill="rgb(134,134,134)" stroke="rgb(134,134,134)" stroke-width="1" opacity="0.5098039215686274" d="M 75.5 61 L 76 64.5 L 75 64.5 L 75.5 61 Z " /><path fill="rgb(134,134,134)" stroke="rgb(134,134,134)" stroke-width="1" opacity="0.5098039215686274" d="M 26.5 65 L 27 67 L 15 66.5 L 25.5 66 L 26.5 65 Z " /><path fill="rgb(134,134,134)" stroke="rgb(134,134,134)" stroke-width="1" opacity="0.5098039215686274" d="M 28.5 65 L 29.5 67 L 28.5 65 Z " /><path fill="rgb(134,134,134)" stroke="rgb(134,134,134)" stroke-width="1" opacity="0.5098039215686274" d="M 35.5 66 L 86 66.5 L 35.5 67 L 35.5 66 Z " /><path fill="rgb(101,101,101)" stroke="rgb(101,101,101)" stroke-width="1" opacity="0.9921568627450981" d="M 53.5 21 L 54 23.5 L 53 23.5 L 53.5 21 Z " /><path fill="rgb(101,101,101)" stroke="rgb(101,101,101)" stroke-width="1" opacity="0.9921568627450981" d="M 47.5 23 L 48.5 25 L 47.5 23 Z " /><path fill="rgb(101,101,101)" stroke="rgb(101,101,101)" stroke-width="1" opacity="0.9921568627450981" d="M 59.5 23 L 58.5 25 L 59.5 23 Z " /><path fill="rgb(101,101,101)" stroke="rgb(101,101,101)" stroke-width="1" opacity="0.9921568627450981" d="M 51.5 27 Q 56 26 57 28.5 L 56.5 32 L 55.5 28 L 54 32 L 49 31.5 L 51.5 27 Z " /><path fill="rgb(101,101,101)" stroke="rgb(101,101,101)" stroke-width="1" opacity="0.9921568627450981" d="M 48.5 34 L 59 34.5 L 48.5 35 L 48.5 34 Z " /><path fill="rgb(101,101,101)" stroke="rgb(101,101,101)" stroke-width="1" opacity="0.9921568627450981" d="M 34 37 L 72.5 37 L 73 40 L 34.5 40 L 34 37 Z " /><path fill="rgb(101,101,101)" stroke="rgb(101,101,101)" stroke-width="1" opacity="0.9921568627450981" d="M 36 42 L 71 42 L 71 55.5 Q 68.2 57.2 70 63.5 Q 71.4 66.3 76 65 L 75 60.5 L 76 57 L 78 57.5 L 78 65 L 81 65 L 81 58.5 L 82.5 57 Q 85.3 58.3 83 59.5 Q 81.8 65.6 84.5 65 L 84.5 66 L 37 65.5 Q 43.7 60.5 43 49 L 47 47.5 L 47 43 L 41 43 L 41 46 L 36 46 L 36 42 Z M 50 43 Q 49 48 52 49 Q 55 50 56 48 L 56 43 L 50 43 Z M 60 43 L 60 49 Q 65 50 66 48 L 66 43 L 60 43 Z M 47 51 L 45 55 L 62 55 L 62 53 L 61 51 L 47 51 Z M 47 56 L 47 65 L 53 65 L 53 56 L 47 56 Z M 54 56 L 54 65 L 60 65 L 60 56 L 54 56 Z " /><path fill="rgb(101,101,101)" stroke="rgb(101,101,101)" stroke-width="1" opacity="0.9921568627450981" d="M 30.5 47 L 40 49 L 41 51.5 L 39 59.5 L 34.5 65 L 29.5 66 Q 21.1 61.6 22 49 Q 27.5 49.8 30.5 47 Z M 30 50 L 30 52 L 25 54 L 27 58 L 27 62 L 31 60 L 36 62 L 35 60 Q 35 55 38 55 L 36 53 Q 32 54 33 52 L 30 50 Z " /><path fill="rgb(101,101,101)" stroke="rgb(101,101,101)" stroke-width="1" opacity="0.9921568627450981" d="M 17.5 57 Q 20.8 58.9 19 65 Q 23.1 66.7 22 62.5 L 24 63.5 Q 23.3 65.8 25.5 65 L 25.5 66 L 15 65.5 L 17 65 L 16 58.5 L 17.5 57 Z " /><path fill="rgb(107,107,107)" stroke="rgb(107,107,107)" stroke-width="1" opacity="0.8117647058823529" d="M 47.5 24 L 48.5 26 L 47.5 24 Z " /><path fill="rgb(107,107,107)" stroke="rgb(107,107,107)" stroke-width="1" opacity="0.8117647058823529" d="M 52.5 26 L 55 26.5 L 52.5 27 L 52.5 26 Z " /><path fill="rgb(107,107,107)" stroke="rgb(107,107,107)" stroke-width="1" opacity="0.8117647058823529" d="M 55.5 28 L 54.5 30 L 55.5 28 Z " /><path fill="rgb(107,107,107)" stroke="rgb(107,107,107)" stroke-width="1" opacity="0.8117647058823529" d="M 44.5 29 L 47 29.5 L 44.5 30 L 44.5 29 Z " /><path fill="rgb(107,107,107)" stroke="rgb(107,107,107)" stroke-width="1" opacity="0.8117647058823529" d="M 60.5 29 L 63 29.5 L 60.5 30 L 60.5 29 Z " /><path fill="rgb(107,107,107)" stroke="rgb(107,107,107)" stroke-width="1" opacity="0.8117647058823529" d="M 54.5 31 L 57 32.5 L 55.5 33 L 54.5 31 Z " /><path fill="rgb(107,107,107)" stroke="rgb(107,107,107)" stroke-width="1" opacity="0.8117647058823529" d="M 33.5 37 L 34 39.5 L 33 39.5 L 33.5 37 Z " /><path fill="rgb(107,107,107)" stroke="rgb(107,107,107)" stroke-width="1" opacity="0.8117647058823529" d="M 46.5 47 L 45.5 49 L 43 48.5 L 46.5 47 Z " /><path fill="rgb(107,107,107)" stroke="rgb(107,107,107)" stroke-width="1" opacity="0.8117647058823529" d="M 50.5 47 L 55 48.5 L 51.5 49 L 50.5 47 Z " /><path fill="rgb(107,107,107)" stroke="rgb(107,107,107)" stroke-width="1" opacity="0.8117647058823529" d="M 22.5 48 L 27 48.5 L 22.5 49 L 22.5 48 Z " /><path fill="rgb(107,107,107)" stroke="rgb(107,107,107)" stroke-width="1" opacity="0.8117647058823529" d="M 36.5 48 Q 40.3 47.3 41 49.5 L 40.5 51 L 40 49 Q 35.6 50 36.5 48 Z " /><path fill="rgb(107,107,107)" stroke="rgb(107,107,107)" stroke-width="1" opacity="0.8117647058823529" d="M 60.5 48 L 65 48.5 L 60.5 49 L 60.5 48 Z " /><path fill="rgb(107,107,107)" stroke="rgb(107,107,107)" stroke-width="1" opacity="0.8117647058823529" d="M 46.5 51 L 60.5 51 L 62 52.5 L 61.5 55 L 61 52 L 46.5 52 L 46.5 51 Z " /><path fill="rgb(107,107,107)" stroke="rgb(107,107,107)" stroke-width="1" opacity="0.8117647058823529" d="M 37.5 54 L 35.5 57 L 37.5 54 Z " /><path fill="rgb(107,107,107)" stroke="rgb(107,107,107)" stroke-width="1" opacity="0.8117647058823529" d="M 25.5 55 L 28 58.5 L 27 58.5 L 25.5 55 Z " /><path fill="rgb(107,107,107)" stroke="rgb(107,107,107)" stroke-width="1" opacity="0.8117647058823529" d="M 70.5 56 L 71 63.5 L 70 63.5 L 70.5 56 Z " /><path fill="rgb(107,107,107)" stroke="rgb(107,107,107)" stroke-width="1" opacity="0.8117647058823529" d="M 19.5 59 L 23 61.5 L 21.5 61 Q 17.5 62 19.5 59 Z " /><path fill="rgb(107,107,107)" stroke="rgb(107,107,107)" stroke-width="1" opacity="0.8117647058823529" d="M 72.5 59 L 73.5 61 Q 70.7 61.7 72.5 59 Z " /><path fill="rgb(107,107,107)" stroke="rgb(107,107,107)" stroke-width="1" opacity="0.8117647058823529" d="M 83.5 59 L 84 64.5 L 83 64.5 L 83.5 59 Z " /><path fill="rgb(107,107,107)" stroke="rgb(107,107,107)" stroke-width="1" opacity="0.8117647058823529" d="M 25.5 62 L 27.5 65 L 25.5 62 Z " /></svg>