<svg width="256" height="256" version="1.1" xmlns="http://www.w3.org/2000/svg" desc="Created with imagetracer.js version 1.2.6" ><path fill="rgb(0,0,0)" stroke="rgb(0,0,0)" stroke-width="1" opacity="0" d="M 0 0 L 256 0 L 256 256 L 0 256 L 0 0 Z M 164 47 L 163 48 L 145 48 L 144 52 L 158 53 L 137 72 L 106 92 Q 75 109 41 122 L 39 126 L 49 124 L 70 115 L 111 94 L 144 72 L 161 56 L 161 69 L 162 70 Q 161 73 165 71 L 166 69 L 166 49 L 164 47 Z M 182 66 L 182 200 L 184 201 L 211 201 L 212 200 L 212 67 L 212 66 L 182 66 Z M 148 82 L 148 201 L 177 201 L 178 200 L 178 85 L 177 84 L 177 82 L 148 82 Z M 115 98 L 113 100 L 113 200 L 115 201 L 143 201 L 143 99 L 143 98 L 115 98 Z M 79 120 L 79 201 L 108 201 L 109 200 L 109 122 L 108 120 L 79 120 Z M 46 143 L 44 145 L 44 200 L 46 201 L 74 201 L 74 143 L 46 143 Z M 33 205 L 31 207 L 33 209 L 225 209 L 225 207 L 224 205 L 33 205 Z " /><path fill="rgb(0,0,0)" stroke="rgb(0,0,0)" stroke-width="1" opacity="0" d="M 186 70 L 207.5 70 L 208 70.5 L 208 197 L 186.5 197 L 186 196.5 L 186 70 Z " /><path fill="rgb(0,0,0)" stroke="rgb(0,0,0)" stroke-width="1" opacity="0" d="M 152 86 L 172.5 86 L 173 86.5 L 173 197 L 152.5 197 L 152 196.5 L 152 86 Z " /><path fill="rgb(0,0,0)" stroke="rgb(0,0,0)" stroke-width="1" opacity="0" d="M 117 102 L 138.5 102 L 139 102.5 L 139 197 L 117.5 197 L 117 196.5 L 117 102 Z " /><path fill="rgb(0,0,0)" stroke="rgb(0,0,0)" stroke-width="1" opacity="0" d="M 83 124 L 103.5 124 L 104 124.5 L 104 197 L 83.5 197 L 83 196.5 L 83 124 Z " /><path fill="rgb(0,0,0)" stroke="rgb(0,0,0)" stroke-width="1" opacity="0" d="M 48 147 L 70 147 L 70 197 L 48 197 L 48 147 Z " /><path fill="rgb(7,3,3)" stroke="rgb(7,3,3)" stroke-width="1" opacity="0.9294117647058824" d="M 146.5 48 L 164.5 48 L 166 49.5 L 165 50.5 L 165 70 L 162 69.5 L 162 55.5 L 155.5 61 Q 134.8 79.8 109.5 94 Q 77.5 112.5 40.5 126 Q 37 124 41.5 122 Q 80.7 108.2 113.5 88 Q 139.3 73.3 159 52.5 L 146.5 52 L 144 51 Q 142.9 48.3 145.5 49 L 146.5 48 Z " /><path fill="rgb(7,3,3)" stroke="rgb(7,3,3)" stroke-width="1" opacity="0.9294117647058824" d="M 184.5 66 L 210.5 66 L 211 67.5 L 212 68.5 L 212 198.5 L 209.5 201 L 184.5 201 L 182 198.5 L 182 68.5 L 184.5 66 Z M 186 69 L 186 197 L 187 197 L 208 197 L 208 70 L 208 69 L 186 69 Z " /><path fill="rgb(7,3,3)" stroke="rgb(7,3,3)" stroke-width="1" opacity="0.9294117647058824" d="M 148 83 L 176.5 83 L 177 83.5 L 177 199.5 L 175.5 201 L 149.5 201 L 148 199.5 L 148 83 Z M 151 86 L 151 197 L 152 197 L 174 197 L 174 87 L 174 86 L 151 86 Z " /><path fill="rgb(7,3,3)" stroke="rgb(7,3,3)" stroke-width="1" opacity="0.9294117647058824" d="M 115.5 98 L 140.5 98 L 143 100.5 L 143 198.5 L 140.5 201 L 115.5 201 L 114 199.5 L 114 99.5 L 115.5 98 Z M 117 102 L 117 197 L 118 197 L 139 197 L 139 103 L 139 102 L 117 102 Z " /><path fill="rgb(7,3,3)" stroke="rgb(7,3,3)" stroke-width="1" opacity="0.9294117647058824" d="M 80.5 120 L 106.5 120 L 108 121.5 L 108 199.5 L 106.5 201 L 80.5 201 L 79 199.5 L 79 121.5 L 80.5 120 Z M 82 124 L 82 197 L 83 197 L 105 197 L 105 125 L 105 124 L 82 124 Z " /><path fill="rgb(7,3,3)" stroke="rgb(7,3,3)" stroke-width="1" opacity="0.9294117647058824" d="M 46.5 143 L 71.5 143 L 74 145.5 L 74 198.5 L 71.5 201 L 46.5 201 L 45 199.5 L 45 144.5 L 46.5 143 Z M 48 147 L 48 197 L 70 197 L 70 147 L 48 147 Z " /><path fill="rgb(7,3,3)" stroke="rgb(7,3,3)" stroke-width="1" opacity="0.9294117647058824" d="M 32 206 L 223.5 206 L 224 209 L 32.5 209 L 32 206 Z " /><path fill="rgb(8,4,4)" stroke="rgb(8,4,4)" stroke-width="1" opacity="0.2549019607843137" d="M 163.5 47 L 166 48.5 L 164.5 48 L 163.5 47 Z " /><path fill="rgb(8,4,4)" stroke="rgb(8,4,4)" stroke-width="1" opacity="0.2549019607843137" d="M 165.5 50 L 166 68.5 L 165 68.5 L 165.5 50 Z " /><path fill="rgb(8,4,4)" stroke="rgb(8,4,4)" stroke-width="1" opacity="0.2549019607843137" d="M 158.5 52 L 150.5 61 L 158.5 52 Z " /><path fill="rgb(8,4,4)" stroke="rgb(8,4,4)" stroke-width="1" opacity="0.2549019607843137" d="M 161.5 55 L 162 68.5 L 161 68.5 L 161.5 55 Z " /><path fill="rgb(8,4,4)" stroke="rgb(8,4,4)" stroke-width="1" opacity="0.2549019607843137" d="M 145.5 64 L 144.5 66 L 145.5 64 Z " /><path fill="rgb(8,4,4)" stroke="rgb(8,4,4)" stroke-width="1" opacity="0.2549019607843137" d="M 151.5 64 L 149.5 67 L 151.5 64 Z " /><path fill="rgb(8,4,4)" stroke="rgb(8,4,4)" stroke-width="1" opacity="0.2549019607843137" d="M 140.5 68 L 139.5 70 L 140.5 68 Z " /><path fill="rgb(8,4,4)" stroke="rgb(8,4,4)" stroke-width="1" opacity="0.2549019607843137" d="M 144.5 70 L 143.5 72 L 144.5 70 Z " /><path fill="rgb(8,4,4)" stroke="rgb(8,4,4)" stroke-width="1" opacity="0.2549019607843137" d="M 162.5 70 L 165 70.5 L 162.5 71 L 162.5 70 Z " /><path fill="rgb(8,4,4)" stroke="rgb(8,4,4)" stroke-width="1" opacity="0.2549019607843137" d="M 140.5 73 L 139.5 75 L 140.5 73 Z " /><path fill="rgb(8,4,4)" stroke="rgb(8,4,4)" stroke-width="1" opacity="0.2549019607843137" d="M 136.5 76 L 135.5 78 L 136.5 76 Z " /><path fill="rgb(8,4,4)" stroke="rgb(8,4,4)" stroke-width="1" opacity="0.2549019607843137" d="M 177.5 84 L 178 199.5 L 177 199.5 L 177.5 84 Z " /><path fill="rgb(8,4,4)" stroke="rgb(8,4,4)" stroke-width="1" opacity="0.2549019607843137" d="M 151.5 86 L 152 196.5 L 151 196.5 L 151.5 86 Z " /><path fill="rgb(8,4,4)" stroke="rgb(8,4,4)" stroke-width="1" opacity="0.2549019607843137" d="M 173.5 86 L 174 196.5 L 173 196.5 L 173.5 86 Z " /><path fill="rgb(8,4,4)" stroke="rgb(8,4,4)" stroke-width="1" opacity="0.2549019607843137" d="M 108.5 121 L 109 199.5 L 108 199.5 L 108.5 121 Z " /><path fill="rgb(8,4,4)" stroke="rgb(8,4,4)" stroke-width="1" opacity="0.2549019607843137" d="M 82.5 124 L 83 196.5 L 82 196.5 L 82.5 124 Z " /><path fill="rgb(8,4,4)" stroke="rgb(8,4,4)" stroke-width="1" opacity="0.2549019607843137" d="M 104.5 124 L 105 196.5 L 104 196.5 L 104.5 124 Z " /><path fill="rgb(8,4,4)" stroke="rgb(8,4,4)" stroke-width="1" opacity="0.2549019607843137" d="M 32.5 205 L 31.5 207 L 32.5 205 Z " /><path fill="rgb(7,3,3)" stroke="rgb(7,3,3)" stroke-width="1" opacity="0.5137254901960784" d="M 149.5 61 L 148.5 63 L 149.5 61 Z " /><path fill="rgb(7,3,3)" stroke="rgb(7,3,3)" stroke-width="1" opacity="0.5137254901960784" d="M 154.5 61 L 153.5 63 L 154.5 61 Z " /><path fill="rgb(7,3,3)" stroke="rgb(7,3,3)" stroke-width="1" opacity="0.5137254901960784" d="M 183.5 66 L 182.5 68 L 183.5 66 Z " /><path fill="rgb(7,3,3)" stroke="rgb(7,3,3)" stroke-width="1" opacity="0.5137254901960784" d="M 141.5 98 L 142.5 100 L 141.5 98 Z " /><path fill="rgb(7,3,3)" stroke="rgb(7,3,3)" stroke-width="1" opacity="0.5137254901960784" d="M 40.5 122 L 39.5 124 L 40.5 122 Z " /><path fill="rgb(7,3,3)" stroke="rgb(7,3,3)" stroke-width="1" opacity="0.5137254901960784" d="M 72.5 143 L 73.5 145 L 72.5 143 Z " /><path fill="rgb(7,3,3)" stroke="rgb(7,3,3)" stroke-width="1" opacity="0.5137254901960784" d="M 73.5 199 L 72.5 201 L 73.5 199 Z " /><path fill="rgb(7,3,3)" stroke="rgb(7,3,3)" stroke-width="1" opacity="0.5137254901960784" d="M 142.5 199 L 141.5 201 L 142.5 199 Z " /><path fill="rgb(7,3,3)" stroke="rgb(7,3,3)" stroke-width="1" opacity="0.5137254901960784" d="M 182.5 199 L 183.5 201 L 182.5 199 Z " /><path fill="rgb(7,3,3)" stroke="rgb(7,3,3)" stroke-width="1" opacity="0.5137254901960784" d="M 211.5 199 L 210.5 201 L 211.5 199 Z " /><path fill="rgb(8,4,4)" stroke="rgb(8,4,4)" stroke-width="1" opacity="0.5019607843137255" d="M 186.5 69 L 208 69.5 L 186.5 70 L 186.5 69 Z " /><path fill="rgb(8,4,4)" stroke="rgb(8,4,4)" stroke-width="1" opacity="0.5019607843137255" d="M 149.5 82 L 176 82.5 L 149.5 83 L 149.5 82 Z " /><path fill="rgb(8,4,4)" stroke="rgb(8,4,4)" stroke-width="1" opacity="0.5019607843137255" d="M 113.5 99 L 114 199.5 L 113 199.5 L 113.5 99 Z " /><path fill="rgb(8,4,4)" stroke="rgb(8,4,4)" stroke-width="1" opacity="0.5019607843137255" d="M 44.5 144 L 45 199.5 L 44 199.5 L 44.5 144 Z " /><path fill="rgb(8,4,4)" stroke="rgb(8,4,4)" stroke-width="1" opacity="0.5019607843137255" d="M 33.5 205 L 223 205.5 L 33.5 206 L 33.5 205 Z " /></svg>