<svg width="256" height="256" version="1.1" xmlns="http://www.w3.org/2000/svg" desc="Created with imagetracer.js version 1.2.6" ><path fill="rgb(8,3,3)" stroke="rgb(8,3,3)" stroke-width="1" opacity="0.23137254901960785" d="M 227.5 44 L 228.5 46 L 227.5 44 Z " /><path fill="rgb(8,3,3)" stroke="rgb(8,3,3)" stroke-width="1" opacity="0.23137254901960785" d="M 31.5 48 L 30.5 50 L 31.5 48 Z " /><path fill="rgb(8,3,3)" stroke="rgb(8,3,3)" stroke-width="1" opacity="0.23137254901960785" d="M 232.5 51 L 233 181.5 L 232 181.5 L 232.5 51 Z " /><path fill="rgb(8,3,3)" stroke="rgb(8,3,3)" stroke-width="1" opacity="0.23137254901960785" d="M 228.5 52 L 229 57 L 29 56.5 L 228 56 L 228.5 52 Z " /><path fill="rgb(8,3,3)" stroke="rgb(8,3,3)" stroke-width="1" opacity="0.23137254901960785" d="M 29.5 60 L 229 60 L 229 167.5 L 228 167.5 L 228 61 L 29.5 61 L 29.5 60 Z " /><path fill="rgb(8,3,3)" stroke="rgb(8,3,3)" stroke-width="1" opacity="0.23137254901960785" d="M 168.5 75 L 169.5 77 L 168.5 75 Z " /><path fill="rgb(8,3,3)" stroke="rgb(8,3,3)" stroke-width="1" opacity="0.23137254901960785" d="M 208.5 76 L 211.5 80 L 208.5 76 Z " /><path fill="rgb(8,3,3)" stroke="rgb(8,3,3)" stroke-width="1" opacity="0.23137254901960785" d="M 186.5 77 L 185.5 79 L 186.5 77 Z " /><path fill="rgb(8,3,3)" stroke="rgb(8,3,3)" stroke-width="1" opacity="0.23137254901960785" d="M 172.5 79 L 173.5 81 L 172.5 79 Z " /><path fill="rgb(8,3,3)" stroke="rgb(8,3,3)" stroke-width="1" opacity="0.23137254901960785" d="M 190.5 79 L 187.5 83 L 190.5 79 Z " /><path fill="rgb(8,3,3)" stroke="rgb(8,3,3)" stroke-width="1" opacity="0.23137254901960785" d="M 150.5 80 L 149.5 82 L 150.5 80 Z " /><path fill="rgb(8,3,3)" stroke="rgb(8,3,3)" stroke-width="1" opacity="0.23137254901960785" d="M 48.5 81 L 130.5 81 L 132 82.5 L 130.5 86 L 48 85.5 L 131 85 L 130.5 82 L 48.5 82 L 48.5 81 Z " /><path fill="rgb(8,3,3)" stroke="rgb(8,3,3)" stroke-width="1" opacity="0.23137254901960785" d="M 165.5 83 L 163.5 86 L 165.5 83 Z " /><path fill="rgb(8,3,3)" stroke="rgb(8,3,3)" stroke-width="1" opacity="0.23137254901960785" d="M 142.5 88 L 143 90.5 L 142 90.5 L 142.5 88 Z " /><path fill="rgb(8,3,3)" stroke="rgb(8,3,3)" stroke-width="1" opacity="0.23137254901960785" d="M 150.5 91 L 152.5 94 L 150.5 91 Z " /><path fill="rgb(8,3,3)" stroke="rgb(8,3,3)" stroke-width="1" opacity="0.23137254901960785" d="M 162.5 91 L 156.5 98 L 162.5 91 Z " /><path fill="rgb(8,3,3)" stroke="rgb(8,3,3)" stroke-width="1" opacity="0.23137254901960785" d="M 131.5 92 L 132 95.5 L 131 95.5 L 131.5 92 Z " /><path fill="rgb(8,3,3)" stroke="rgb(8,3,3)" stroke-width="1" opacity="0.23137254901960785" d="M 208.5 97 L 205.5 101 L 208.5 97 Z " /><path fill="rgb(8,3,3)" stroke="rgb(8,3,3)" stroke-width="1" opacity="0.23137254901960785" d="M 183.5 98 L 184.5 100 L 183.5 98 Z " /><path fill="rgb(8,3,3)" stroke="rgb(8,3,3)" stroke-width="1" opacity="0.23137254901960785" d="M 188.5 98 L 189.5 100 L 188.5 98 Z " /><path fill="rgb(8,3,3)" stroke="rgb(8,3,3)" stroke-width="1" opacity="0.23137254901960785" d="M 145.5 99 L 149.5 104 L 145.5 99 Z " /><path fill="rgb(8,3,3)" stroke="rgb(8,3,3)" stroke-width="1" opacity="0.23137254901960785" d="M 172.5 100 L 169.5 104 L 172.5 100 Z " /><path fill="rgb(8,3,3)" stroke="rgb(8,3,3)" stroke-width="1" opacity="0.23137254901960785" d="M 210.5 101 L 209.5 103 L 210.5 101 Z " /><path fill="rgb(8,3,3)" stroke="rgb(8,3,3)" stroke-width="1" opacity="0.23137254901960785" d="M 188.5 103 L 189.5 105 L 188.5 103 Z " /><path fill="rgb(8,3,3)" stroke="rgb(8,3,3)" stroke-width="1" opacity="0.23137254901960785" d="M 150.5 120 L 149.5 122 L 150.5 120 Z " /><path fill="rgb(8,3,3)" stroke="rgb(8,3,3)" stroke-width="1" opacity="0.23137254901960785" d="M 169.5 121 L 170.5 123 L 169.5 121 Z " /><path fill="rgb(8,3,3)" stroke="rgb(8,3,3)" stroke-width="1" opacity="0.23137254901960785" d="M 208.5 121 L 211.5 125 L 208.5 121 Z " /><path fill="rgb(8,3,3)" stroke="rgb(8,3,3)" stroke-width="1" opacity="0.23137254901960785" d="M 172.5 124 L 173.5 126 L 172.5 124 Z " /><path fill="rgb(8,3,3)" stroke="rgb(8,3,3)" stroke-width="1" opacity="0.23137254901960785" d="M 190.5 124 L 187.5 128 L 190.5 124 Z " /><path fill="rgb(8,3,3)" stroke="rgb(8,3,3)" stroke-width="1" opacity="0.23137254901960785" d="M 192.5 126 L 198.5 131 L 204 126.5 L 197.5 132 L 192.5 126 Z " /><path fill="rgb(8,3,3)" stroke="rgb(8,3,3)" stroke-width="1" opacity="0.23137254901960785" d="M 205.5 126 L 206.5 128 L 205.5 126 Z " /><path fill="rgb(8,3,3)" stroke="rgb(8,3,3)" stroke-width="1" opacity="0.23137254901960785" d="M 131.5 129 L 132 132.5 L 131 132.5 L 131.5 129 Z " /><path fill="rgb(8,3,3)" stroke="rgb(8,3,3)" stroke-width="1" opacity="0.23137254901960785" d="M 205.5 130 L 202 134.5 L 207 140.5 L 201 135.5 L 205.5 130 Z " /><path fill="rgb(8,3,3)" stroke="rgb(8,3,3)" stroke-width="1" opacity="0.23137254901960785" d="M 181.5 131 L 182 133.5 L 181 133.5 L 181.5 131 Z " /><path fill="rgb(8,3,3)" stroke="rgb(8,3,3)" stroke-width="1" opacity="0.23137254901960785" d="M 142.5 133 L 143 135.5 L 142 135.5 L 142.5 133 Z " /><path fill="rgb(8,3,3)" stroke="rgb(8,3,3)" stroke-width="1" opacity="0.23137254901960785" d="M 197.5 138 L 192.5 144 L 197.5 138 Z " /><path fill="rgb(8,3,3)" stroke="rgb(8,3,3)" stroke-width="1" opacity="0.23137254901960785" d="M 131.5 140 L 132 143.5 L 131 143.5 L 131.5 140 Z " /><path fill="rgb(8,3,3)" stroke="rgb(8,3,3)" stroke-width="1" opacity="0.23137254901960785" d="M 208.5 142 L 205.5 146 L 208.5 142 Z " /><path fill="rgb(8,3,3)" stroke="rgb(8,3,3)" stroke-width="1" opacity="0.23137254901960785" d="M 188.5 143 L 189.5 145 L 188.5 143 Z " /><path fill="rgb(8,3,3)" stroke="rgb(8,3,3)" stroke-width="1" opacity="0.23137254901960785" d="M 145.5 144 L 146.5 146 L 145.5 144 Z " /><path fill="rgb(8,3,3)" stroke="rgb(8,3,3)" stroke-width="1" opacity="0.23137254901960785" d="M 173.5 144 L 169.5 149 L 173.5 144 Z " /><path fill="rgb(8,3,3)" stroke="rgb(8,3,3)" stroke-width="1" opacity="0.23137254901960785" d="M 210.5 146 L 209.5 148 L 210.5 146 Z " /><path fill="rgb(8,3,3)" stroke="rgb(8,3,3)" stroke-width="1" opacity="0.23137254901960785" d="M 228.5 172 L 229 181.5 L 228 181.5 L 228.5 172 Z " /><path fill="rgb(8,3,3)" stroke="rgb(8,3,3)" stroke-width="1" opacity="0.23137254901960785" d="M 127.5 173 L 131 173.5 L 127.5 174 L 127.5 173 Z " /><path fill="rgb(8,3,3)" stroke="rgb(8,3,3)" stroke-width="1" opacity="0.23137254901960785" d="M 125.5 174 L 123.5 177 L 125.5 174 Z " /><path fill="rgb(8,3,3)" stroke="rgb(8,3,3)" stroke-width="1" opacity="0.23137254901960785" d="M 132.5 174 L 133.5 176 L 132.5 174 Z " /><path fill="rgb(8,3,3)" stroke="rgb(8,3,3)" stroke-width="1" opacity="0.23137254901960785" d="M 128.5 177 L 131 178.5 L 129.5 178 L 128.5 177 Z " /><path fill="rgb(8,3,3)" stroke="rgb(8,3,3)" stroke-width="1" opacity="0.23137254901960785" d="M 130.5 180 L 129.5 182 L 128 181.5 L 130.5 180 Z " /><path fill="rgb(8,3,3)" stroke="rgb(8,3,3)" stroke-width="1" opacity="0.23137254901960785" d="M 123.5 182 L 125.5 185 L 123.5 182 Z " /><path fill="rgb(8,3,3)" stroke="rgb(8,3,3)" stroke-width="1" opacity="0.23137254901960785" d="M 133.5 183 L 132.5 185 L 133.5 183 Z " /><path fill="rgb(8,3,3)" stroke="rgb(8,3,3)" stroke-width="1" opacity="0.23137254901960785" d="M 127.5 185 L 131 185.5 L 127.5 186 L 127.5 185 Z " /><path fill="rgb(8,3,3)" stroke="rgb(8,3,3)" stroke-width="1" opacity="0.23137254901960785" d="M 230.5 186 L 228.5 189 L 230.5 186 Z " /><path fill="rgb(8,3,3)" stroke="rgb(8,3,3)" stroke-width="1" opacity="0.23137254901960785" d="M 87.5 210 L 86.5 212 L 87.5 210 Z " /><path fill="rgb(8,3,3)" stroke="rgb(8,3,3)" stroke-width="1" opacity="0.23137254901960785" d="M 170.5 210 L 172 212.5 L 171 212.5 L 170.5 210 Z " /><path fill="rgb(0,0,0)" stroke="rgb(0,0,0)" stroke-width="1" opacity="0" d="M 0 0 L 256 0 L 256 256 L 0 256 L 0 0 Z M 33 43 L 31 44 L 25 51 L 25 184 L 26 186 L 34 191 L 114 191 L 107 209 L 106 210 L 88 210 L 86 212 L 87 214 L 171 214 L 172 212 L 171 210 L 151 210 L 143 192 L 225 191 L 229 189 L 233 182 L 233 52 L 231 48 L 225 43 L 33 43 Z " /><path fill="rgb(0,0,0)" stroke="rgb(0,0,0)" stroke-width="1" opacity="0" d="M 34.5 47 L 223.5 47 L 228 50.5 Q 228.6 55.9 227.5 56 L 29 56 Q 28.1 50.1 32.5 48 L 34.5 47 Z " /><path fill="rgb(0,0,0)" stroke="rgb(0,0,0)" stroke-width="1" opacity="0" d="M 29 61 L 228 61 L 228 168 L 29 168 L 29 61 Z M 156 73 L 151 75 Q 144 79 142 89 L 143 96 L 145 100 Q 149 105 157 107 Q 165 108 170 104 L 176 95 Q 178 85 174 81 Q 170 72 156 73 Z M 194 73 L 187 77 L 181 87 L 181 93 L 183 99 Q 187 105 196 107 Q 205 108 210 103 L 215 95 Q 217 84 212 80 L 203 73 L 194 73 Z M 48 81 L 49 86 L 131 86 L 132 83 L 131 81 L 48 81 Z M 48 92 L 49 96 L 132 96 L 132 92 L 48 92 Z M 156 118 L 151 120 Q 144 124 142 134 L 143 141 L 145 145 Q 148 151 157 152 Q 165 153 170 149 L 176 141 Q 178 130 174 126 L 167 119 L 156 118 Z M 195 118 L 190 120 Q 183 124 181 132 L 181 138 L 183 144 Q 187 150 195 152 Q 205 153 210 148 L 215 140 Q 217 129 212 125 L 203 118 L 195 118 Z M 48 129 L 49 133 L 132 133 L 132 129 L 48 129 Z M 48 140 L 49 144 L 132 144 L 132 140 L 48 140 Z " /><path fill="rgb(0,0,0)" stroke="rgb(0,0,0)" stroke-width="1" opacity="0" d="M 157.5 77 Q 166.7 76.8 170 82.5 Q 173.2 85.8 172 93.5 L 167.5 100 L 158.5 103 Q 151.9 102.1 149 97.5 Q 145.8 94.2 147 86.5 L 152.5 79 L 157.5 77 Z M 166 83 L 157 92 L 154 89 L 150 92 L 157 98 L 168 87 L 166 83 Z " /><path fill="rgb(0,0,0)" stroke="rgb(0,0,0)" stroke-width="1" opacity="0" d="M 195.5 77 Q 204.5 76.5 208 81.5 Q 211.8 84.7 211 92.5 L 204.5 101 L 197.5 103 Q 190.1 101.9 187 96.5 L 185 89.5 Q 186.1 82.1 191.5 79 L 195.5 77 Z " /><path fill="rgb(0,0,0)" stroke="rgb(0,0,0)" stroke-width="1" opacity="0" d="M 157.5 122 Q 166.7 121.8 170 127.5 Q 173.2 130.8 172 138.5 L 167.5 145 Q 164.5 148 158.5 148 Q 151.9 147.1 149 142.5 Q 145.8 139.2 147 131.5 L 152.5 124 L 157.5 122 Z " /><path fill="rgb(0,0,0)" stroke="rgb(0,0,0)" stroke-width="1" opacity="0" d="M 196.5 122 Q 204.8 121.8 208 126.5 Q 211.8 129.7 211 137.5 Q 209.6 143.6 204.5 146 L 196.5 148 Q 190 146.5 187 141.5 L 185 134.5 Q 186.1 127.1 191.5 124 L 196.5 122 Z M 192 126 L 189 129 L 195 135 L 189 142 L 193 144 L 199 138 L 205 144 L 207 142 L 202 136 L 207 129 L 206 126 L 204 126 L 199 131 L 192 126 Z " /><path fill="rgb(0,0,0)" stroke="rgb(0,0,0)" stroke-width="1" opacity="0" d="M 29 172 L 227.5 172 L 228 172.5 L 228 182.5 L 227 185 L 222.5 187 L 35.5 187 L 30 183.5 L 29 181.5 L 29 172 Z M 128 173 L 126 174 Q 122 176 123 183 L 128 186 L 133 185 L 135 182 L 134 176 Q 133 172 128 173 Z " /><path fill="rgb(0,0,0)" stroke="rgb(0,0,0)" stroke-width="1" opacity="0" d="M 127 178 L 131 179.5 L 127 181 L 127 178 Z " /><path fill="rgb(0,0,0)" stroke="rgb(0,0,0)" stroke-width="1" opacity="0" d="M 119 191 L 137.5 191 L 139 192.5 L 147 209.5 L 111.5 210 L 112 208.5 L 119 191 Z " /><path fill="rgb(7,3,3)" stroke="rgb(7,3,3)" stroke-width="1" opacity="0.6431372549019608" d="M 34.5 43 L 224 43.5 L 34.5 44 L 34.5 43 Z " /><path fill="rgb(7,3,3)" stroke="rgb(7,3,3)" stroke-width="1" opacity="0.6431372549019608" d="M 29.5 45 L 27.5 48 L 29.5 45 Z " /><path fill="rgb(7,3,3)" stroke="rgb(7,3,3)" stroke-width="1" opacity="0.6431372549019608" d="M 226.5 48 L 227.5 50 L 226.5 48 Z " /><path fill="rgb(7,3,3)" stroke="rgb(7,3,3)" stroke-width="1" opacity="0.6431372549019608" d="M 25.5 52 L 26 181.5 L 25 181.5 L 25.5 52 Z " /><path fill="rgb(7,3,3)" stroke="rgb(7,3,3)" stroke-width="1" opacity="0.6431372549019608" d="M 156.5 73 L 163 73.5 L 156.5 74 L 156.5 73 Z " /><path fill="rgb(7,3,3)" stroke="rgb(7,3,3)" stroke-width="1" opacity="0.6431372549019608" d="M 195.5 73 L 201 73.5 L 195.5 74 L 195.5 73 Z " /><path fill="rgb(7,3,3)" stroke="rgb(7,3,3)" stroke-width="1" opacity="0.6431372549019608" d="M 149.5 76 L 146.5 80 L 149.5 76 Z " /><path fill="rgb(7,3,3)" stroke="rgb(7,3,3)" stroke-width="1" opacity="0.6431372549019608" d="M 158.5 76 L 161 76.5 L 158.5 77 L 158.5 76 Z " /><path fill="rgb(7,3,3)" stroke="rgb(7,3,3)" stroke-width="1" opacity="0.6431372549019608" d="M 188.5 76 L 187.5 78 L 188.5 76 Z " /><path fill="rgb(7,3,3)" stroke="rgb(7,3,3)" stroke-width="1" opacity="0.6431372549019608" d="M 170.5 77 L 171.5 79 L 170.5 77 Z " /><path fill="rgb(7,3,3)" stroke="rgb(7,3,3)" stroke-width="1" opacity="0.6431372549019608" d="M 152.5 78 L 151.5 80 L 152.5 78 Z " /><path fill="rgb(7,3,3)" stroke="rgb(7,3,3)" stroke-width="1" opacity="0.6431372549019608" d="M 167.5 79 L 170.5 83 L 167.5 79 Z " /><path fill="rgb(7,3,3)" stroke="rgb(7,3,3)" stroke-width="1" opacity="0.6431372549019608" d="M 185.5 79 L 184.5 81 L 185.5 79 Z " /><path fill="rgb(7,3,3)" stroke="rgb(7,3,3)" stroke-width="1" opacity="0.6431372549019608" d="M 206.5 79 L 208.5 82 L 206.5 79 Z " /><path fill="rgb(7,3,3)" stroke="rgb(7,3,3)" stroke-width="1" opacity="0.6431372549019608" d="M 166.5 84 L 168 86.5 L 163 90.5 L 167 85.5 L 166.5 84 Z " /><path fill="rgb(7,3,3)" stroke="rgb(7,3,3)" stroke-width="1" opacity="0.6431372549019608" d="M 146.5 86 L 147 88.5 L 146 88.5 L 146.5 86 Z " /><path fill="rgb(7,3,3)" stroke="rgb(7,3,3)" stroke-width="1" opacity="0.6431372549019608" d="M 162.5 86 L 157.5 92 L 162.5 86 Z " /><path fill="rgb(7,3,3)" stroke="rgb(7,3,3)" stroke-width="1" opacity="0.6431372549019608" d="M 172.5 87 L 173 92.5 L 172 92.5 L 172.5 87 Z " /><path fill="rgb(7,3,3)" stroke="rgb(7,3,3)" stroke-width="1" opacity="0.6431372549019608" d="M 214.5 87 L 215 92.5 L 214 92.5 L 214.5 87 Z " /><path fill="rgb(7,3,3)" stroke="rgb(7,3,3)" stroke-width="1" opacity="0.6431372549019608" d="M 181.5 88 L 182 90.5 L 181 90.5 L 181.5 88 Z " /><path fill="rgb(7,3,3)" stroke="rgb(7,3,3)" stroke-width="1" opacity="0.6431372549019608" d="M 211.5 88 L 212 90.5 L 211 90.5 L 211.5 88 Z " /><path fill="rgb(7,3,3)" stroke="rgb(7,3,3)" stroke-width="1" opacity="0.6431372549019608" d="M 153.5 89 L 155.5 92 L 153.5 89 Z " /><path fill="rgb(7,3,3)" stroke="rgb(7,3,3)" stroke-width="1" opacity="0.6431372549019608" d="M 48.5 92 L 131 92.5 L 48.5 93 L 48.5 92 Z " /><path fill="rgb(7,3,3)" stroke="rgb(7,3,3)" stroke-width="1" opacity="0.6431372549019608" d="M 153.5 94 L 155.5 97 L 153.5 94 Z " /><path fill="rgb(7,3,3)" stroke="rgb(7,3,3)" stroke-width="1" opacity="0.6431372549019608" d="M 148.5 97 L 151.5 101 L 148.5 97 Z " /><path fill="rgb(7,3,3)" stroke="rgb(7,3,3)" stroke-width="1" opacity="0.6431372549019608" d="M 169.5 98 L 167.5 101 L 169.5 98 Z " /><path fill="rgb(7,3,3)" stroke="rgb(7,3,3)" stroke-width="1" opacity="0.6431372549019608" d="M 185.5 100 L 187.5 103 L 185.5 100 Z " /><path fill="rgb(7,3,3)" stroke="rgb(7,3,3)" stroke-width="1" opacity="0.6431372549019608" d="M 208.5 102 L 207.5 104 L 208.5 102 Z " /><path fill="rgb(7,3,3)" stroke="rgb(7,3,3)" stroke-width="1" opacity="0.6431372549019608" d="M 158.5 106 L 161 106.5 L 158.5 107 L 158.5 106 Z " /><path fill="rgb(7,3,3)" stroke="rgb(7,3,3)" stroke-width="1" opacity="0.6431372549019608" d="M 197.5 106 L 200 106.5 L 197.5 107 L 197.5 106 Z " /><path fill="rgb(7,3,3)" stroke="rgb(7,3,3)" stroke-width="1" opacity="0.6431372549019608" d="M 157.5 118 L 162 118.5 L 157.5 119 L 157.5 118 Z " /><path fill="rgb(7,3,3)" stroke="rgb(7,3,3)" stroke-width="1" opacity="0.6431372549019608" d="M 195.5 118 L 201 118.5 L 195.5 119 L 195.5 118 Z " /><path fill="rgb(7,3,3)" stroke="rgb(7,3,3)" stroke-width="1" opacity="0.6431372549019608" d="M 206.5 120 L 207.5 122 L 206.5 120 Z " /><path fill="rgb(7,3,3)" stroke="rgb(7,3,3)" stroke-width="1" opacity="0.6431372549019608" d="M 188.5 121 L 184.5 126 L 188.5 121 Z " /><path fill="rgb(7,3,3)" stroke="rgb(7,3,3)" stroke-width="1" opacity="0.6431372549019608" d="M 148.5 122 L 146.5 125 L 148.5 122 Z " /><path fill="rgb(7,3,3)" stroke="rgb(7,3,3)" stroke-width="1" opacity="0.6431372549019608" d="M 167.5 124 L 170.5 128 L 167.5 124 Z " /><path fill="rgb(7,3,3)" stroke="rgb(7,3,3)" stroke-width="1" opacity="0.6431372549019608" d="M 207.5 125 L 208.5 127 L 207.5 125 Z " /><path fill="rgb(7,3,3)" stroke="rgb(7,3,3)" stroke-width="1" opacity="0.6431372549019608" d="M 211.5 125 L 212.5 127 L 211.5 125 Z " /><path fill="rgb(7,3,3)" stroke="rgb(7,3,3)" stroke-width="1" opacity="0.6431372549019608" d="M 149.5 126 L 148.5 128 L 149.5 126 Z " /><path fill="rgb(7,3,3)" stroke="rgb(7,3,3)" stroke-width="1" opacity="0.6431372549019608" d="M 191.5 126 L 190 128.5 L 196 134.5 L 190 141.5 L 191.5 144 L 189 141.5 L 195 135.5 L 189 128.5 L 191.5 126 Z " /><path fill="rgb(7,3,3)" stroke="rgb(7,3,3)" stroke-width="1" opacity="0.6431372549019608" d="M 48.5 129 L 131 129.5 L 48.5 130 L 48.5 129 Z " /><path fill="rgb(7,3,3)" stroke="rgb(7,3,3)" stroke-width="1" opacity="0.6431372549019608" d="M 146.5 131 L 147 133.5 L 146 133.5 L 146.5 131 Z " /><path fill="rgb(7,3,3)" stroke="rgb(7,3,3)" stroke-width="1" opacity="0.6431372549019608" d="M 48.5 132 L 131 132.5 L 48.5 133 L 48.5 132 Z " /><path fill="rgb(7,3,3)" stroke="rgb(7,3,3)" stroke-width="1" opacity="0.6431372549019608" d="M 172.5 132 L 173 137.5 L 172 137.5 L 172.5 132 Z " /><path fill="rgb(7,3,3)" stroke="rgb(7,3,3)" stroke-width="1" opacity="0.6431372549019608" d="M 214.5 132 L 215 137.5 L 214 137.5 L 214.5 132 Z " /><path fill="rgb(7,3,3)" stroke="rgb(7,3,3)" stroke-width="1" opacity="0.6431372549019608" d="M 198.5 137 L 204.5 143 L 207 141.5 L 204.5 144 L 198.5 137 Z " /><path fill="rgb(7,3,3)" stroke="rgb(7,3,3)" stroke-width="1" opacity="0.6431372549019608" d="M 148.5 142 L 151.5 146 L 148.5 142 Z " /><path fill="rgb(7,3,3)" stroke="rgb(7,3,3)" stroke-width="1" opacity="0.6431372549019608" d="M 48.5 143 L 131 143.5 L 48.5 144 L 48.5 143 Z " /><path fill="rgb(7,3,3)" stroke="rgb(7,3,3)" stroke-width="1" opacity="0.6431372549019608" d="M 169.5 143 L 167.5 146 L 169.5 143 Z " /><path fill="rgb(7,3,3)" stroke="rgb(7,3,3)" stroke-width="1" opacity="0.6431372549019608" d="M 184.5 144 L 188.5 149 L 184.5 144 Z " /><path fill="rgb(7,3,3)" stroke="rgb(7,3,3)" stroke-width="1" opacity="0.6431372549019608" d="M 190.5 145 L 191.5 147 L 190.5 145 Z " /><path fill="rgb(7,3,3)" stroke="rgb(7,3,3)" stroke-width="1" opacity="0.6431372549019608" d="M 147.5 146 L 148.5 148 L 147.5 146 Z " /><path fill="rgb(7,3,3)" stroke="rgb(7,3,3)" stroke-width="1" opacity="0.6431372549019608" d="M 157.5 151 L 161 151.5 L 157.5 152 L 157.5 151 Z " /><path fill="rgb(7,3,3)" stroke="rgb(7,3,3)" stroke-width="1" opacity="0.6431372549019608" d="M 196.5 151 L 200 151.5 L 196.5 152 L 196.5 151 Z " /><path fill="rgb(7,3,3)" stroke="rgb(7,3,3)" stroke-width="1" opacity="0.6431372549019608" d="M 29.5 168 L 229 168.5 L 29.5 169 L 29.5 168 Z " /><path fill="rgb(7,3,3)" stroke="rgb(7,3,3)" stroke-width="1" opacity="0.6431372549019608" d="M 29.5 171 L 229 171.5 L 29.5 172 L 29.5 171 Z " /><path fill="rgb(7,3,3)" stroke="rgb(7,3,3)" stroke-width="1" opacity="0.6431372549019608" d="M 134.5 178 L 135 180.5 L 134 180.5 L 134.5 178 Z " /><path fill="rgb(7,3,3)" stroke="rgb(7,3,3)" stroke-width="1" opacity="0.6431372549019608" d="M 126.5 179 L 128 181.5 L 126 180.5 L 126.5 179 Z " /><path fill="rgb(7,3,3)" stroke="rgb(7,3,3)" stroke-width="1" opacity="0.6431372549019608" d="M 29.5 183 L 31.5 186 L 29.5 183 Z " /><path fill="rgb(7,3,3)" stroke="rgb(7,3,3)" stroke-width="1" opacity="0.6431372549019608" d="M 227.5 184 L 226.5 186 L 227.5 184 Z " /><path fill="rgb(7,3,3)" stroke="rgb(7,3,3)" stroke-width="1" opacity="0.6431372549019608" d="M 27.5 186 L 29.5 189 L 27.5 186 Z " /><path fill="rgb(7,3,3)" stroke="rgb(7,3,3)" stroke-width="1" opacity="0.6431372549019608" d="M 35.5 190 L 115 190.5 L 35.5 191 L 35.5 190 Z " /><path fill="rgb(7,3,3)" stroke="rgb(7,3,3)" stroke-width="1" opacity="0.6431372549019608" d="M 119.5 190 L 139 190.5 L 119.5 191 L 119.5 190 Z " /><path fill="rgb(7,3,3)" stroke="rgb(7,3,3)" stroke-width="1" opacity="0.6431372549019608" d="M 142 190 L 223 190.5 L 143.5 191 L 142.5 192 L 142 190 Z " /><path fill="rgb(7,3,3)" stroke="rgb(7,3,3)" stroke-width="1" opacity="0.6431372549019608" d="M 110.5 209 L 111.5 210 L 147 210.5 L 110 211 L 110.5 209 Z " /><path fill="rgb(7,3,3)" stroke="rgb(7,3,3)" stroke-width="1" opacity="0.6431372549019608" d="M 88.5 210 L 107 210.5 L 88.5 211 L 88.5 210 Z " /><path fill="rgb(7,3,3)" stroke="rgb(7,3,3)" stroke-width="1" opacity="0.6431372549019608" d="M 151.5 210 L 170 210.5 L 151.5 211 L 151.5 210 Z " /><path fill="rgb(8,4,4)" stroke="rgb(8,4,4)" stroke-width="1" opacity="1" d="M 32.5 44 L 225.5 44 L 231 48.5 L 232 50.5 L 232 182.5 L 227.5 189 L 225.5 190 L 142 190 L 151 211 L 170.5 211 L 171 212.5 L 169.5 214 L 87 214 L 87.5 211 L 106.5 211 L 107 209.5 Q 112.9 200.9 115 190 L 32.5 190 L 27 185.5 L 26 183.5 L 26 50.5 L 30.5 45 L 32.5 44 Z M 33 47 L 29 51 Q 28 57 30 57 L 229 57 L 228 50 L 225 47 L 33 47 Z M 29 60 L 29 169 L 229 169 L 229 60 L 29 60 Z M 29 171 L 29 184 L 34 187 L 225 187 L 227 186 L 229 183 L 229 172 L 229 171 L 29 171 Z M 119 190 L 110 210 L 111 211 L 147 211 Q 145 200 139 192 L 139 190 L 119 190 Z " /><path fill="rgb(8,4,4)" stroke="rgb(8,4,4)" stroke-width="1" opacity="1" d="M 154.5 74 Q 169.2 71.8 173 80.5 L 176 87.5 L 176 91.5 Q 174.8 99.3 169.5 103 Q 165.3 107.3 155.5 106 Q 149 104.5 146 99.5 Q 142.1 95.4 143 86.5 Q 144.8 79.3 150.5 76 L 154.5 74 Z M 159 76 L 153 78 L 146 87 Q 145 94 148 98 L 156 103 Q 164 104 168 101 L 173 93 Q 174 86 171 83 Q 167 77 159 76 Z " /><path fill="rgb(8,4,4)" stroke="rgb(8,4,4)" stroke-width="1" opacity="1" d="M 193.5 74 Q 208.2 71.8 212 80.5 Q 215.7 84.8 214 94.5 L 209.5 102 L 202.5 106 L 193.5 106 L 184 98.5 Q 180.9 94.1 182 85.5 L 186 78 L 193.5 74 Z M 198 76 L 192 78 Q 186 80 185 87 Q 184 94 187 98 L 195 103 Q 201 104 205 102 Q 211 99 212 91 L 209 82 Q 205 77 198 76 Z " /><path fill="rgb(8,4,4)" stroke="rgb(8,4,4)" stroke-width="1" opacity="1" d="M 48 82 L 130.5 82 L 131 85 L 48.5 85 L 48 82 Z " /><path fill="rgb(8,4,4)" stroke="rgb(8,4,4)" stroke-width="1" opacity="1" d="M 165.5 84 L 167 86.5 L 156.5 97 L 151 91.5 L 153.5 90 L 157.5 92 L 165.5 84 Z " /><path fill="rgb(8,4,4)" stroke="rgb(8,4,4)" stroke-width="1" opacity="1" d="M 48 93 L 130.5 93 L 131 96 L 48.5 96 L 48 93 Z " /><path fill="rgb(8,4,4)" stroke="rgb(8,4,4)" stroke-width="1" opacity="1" d="M 154.5 119 Q 169.2 116.8 173 125.5 Q 176 129.5 176 136.5 Q 174.5 145 168.5 149 Q 164.1 152.1 155.5 151 Q 149 149.5 146 144.5 L 144 141.5 L 143 132.5 Q 144.4 124.4 150.5 121 L 154.5 119 Z M 160 121 L 152 124 L 146 132 Q 145 139 148 143 L 156 148 Q 164 149 168 146 L 173 138 Q 174 131 171 128 Q 167 122 160 121 Z " /><path fill="rgb(8,4,4)" stroke="rgb(8,4,4)" stroke-width="1" opacity="1" d="M 193.5 119 Q 206.8 117.2 211 124.5 Q 215.9 128.6 214 139.5 L 208.5 148 Q 204 152.5 193.5 151 L 184 143.5 Q 180.5 139.5 182 130.5 L 190.5 120 L 193.5 119 Z M 198 121 L 192 123 Q 186 125 185 132 Q 184 139 187 143 L 195 148 L 203 148 L 208 145 L 212 136 L 209 127 Q 205 122 198 121 Z " /><path fill="rgb(8,4,4)" stroke="rgb(8,4,4)" stroke-width="1" opacity="1" d="M 204.5 126 L 206 129.5 L 201 135.5 L 206 141.5 L 204.5 143 L 198.5 137 L 192.5 143 L 190 141.5 L 196 134.5 L 190 128.5 L 191.5 127 L 198.5 132 L 204.5 126 Z " /><path fill="rgb(8,4,4)" stroke="rgb(8,4,4)" stroke-width="1" opacity="1" d="M 48 130 L 130.5 130 L 131 132 L 48.5 132 L 48 130 Z " /><path fill="rgb(8,4,4)" stroke="rgb(8,4,4)" stroke-width="1" opacity="1" d="M 48 140 L 130.5 140 L 131 143 L 48.5 143 L 48 140 Z " /><path fill="rgb(8,4,4)" stroke="rgb(8,4,4)" stroke-width="1" opacity="1" d="M 126.5 174 Q 132.3 173.2 134 176.5 Q 135.5 182.5 132.5 184 L 126.5 185 Q 123.3 183.3 123 178.5 L 126.5 174 Z M 127 177 L 126 181 Q 127 183 131 182 L 132 180 Q 131 176 127 177 Z " /></svg>