<svg width="256" height="256" version="1.1" xmlns="http://www.w3.org/2000/svg" desc="Created with imagetracer.js version 1.2.6" ><path fill="rgb(7,3,3)" stroke="rgb(7,3,3)" stroke-width="1" opacity="0.9921568627450981" d="M 45 32 L 212.5 32 L 213 34 L 152 34.5 L 177.5 45 Q 192.2 53.8 203 66.5 Q 215.8 81.2 222 102.5 L 225 117.5 L 225 139.5 L 221 158.5 L 213 176.5 Q 204 192 190.5 203 Q 176.2 215.7 155 221.5 L 213 222 L 212.5 225 L 45 225 L 45.5 222 L 102.5 222 L 102.5 221 Q 72.3 212.3 55 190.5 Q 42.2 175.8 36 154.5 L 33 138.5 L 33 118.5 L 36 102.5 L 43 84.5 Q 51.9 67.9 65.5 56 L 82.5 44 L 106 34.5 L 45 34 L 45 32 Z M 126 35 L 113 41 Q 99 52 92 71 L 97 77 L 98 83 L 127 85 L 128 84 L 128 37 L 126 35 Z M 132 35 L 130 37 L 130 84 L 132 85 L 152 84 L 169 81 Q 167 69 161 60 L 151 45 L 145 40 L 132 35 Z M 109 37 Q 84 44 68 58 Q 59 64 55 73 L 76 78 L 78 75 Q 81 70 89 71 L 100 50 L 113 38 L 109 37 Z M 146 37 L 147 38 Q 166 53 172 80 L 182 79 L 203 73 L 200 68 Q 181 44 146 37 Z M 84 74 L 82 75 L 78 81 L 80 88 L 87 91 L 91 90 L 95 85 L 94 78 Q 92 73 84 74 Z M 52 75 L 41 97 L 36 117 L 36 127 L 37 127 L 79 127 L 80 107 L 83 94 L 80 91 Q 75 89 76 83 L 73 80 L 52 75 Z M 204 75 L 186 81 L 173 83 L 176 94 L 177 105 L 178 106 L 178 116 L 179 117 L 179 127 L 180 127 L 222 127 L 222 116 L 220 106 Q 216 88 206 77 Q 207 74 204 75 Z M 167 84 L 159 86 L 150 86 L 149 87 L 132 87 L 130 89 L 130 127 L 176 127 L 175 105 L 171 88 Q 173 82 167 84 Z M 99 85 L 97 88 Q 95 93 87 93 L 85 95 L 83 105 L 82 127 L 128 127 L 128 89 L 127 87 L 110 87 L 99 85 Z M 36 130 Q 36 163 53 181 Q 61 176 74 175 L 75 174 L 76 168 L 82 163 L 80 151 L 80 141 L 79 140 L 79 131 L 79 130 L 36 130 Z M 82 130 L 82 144 L 85 162 L 92 163 L 97 170 L 103 169 L 112 169 L 113 168 L 127 168 L 128 167 L 128 130 L 82 130 Z M 130 130 L 130 167 L 132 168 L 147 168 L 148 169 L 161 170 L 162 168 Q 165 162 173 162 L 176 145 L 176 131 L 176 130 L 130 130 Z M 179 130 L 178 152 L 176 160 Q 174 164 178 163 Q 183 166 183 174 L 207 181 L 218 159 L 222 142 L 222 131 L 222 130 L 179 130 Z M 84 165 L 82 166 L 78 171 L 79 178 L 85 182 L 92 180 L 95 175 L 94 170 Q 92 164 84 165 Z M 170 165 L 168 166 L 163 173 L 165 179 L 171 182 Q 178 182 180 177 L 179 169 Q 177 164 170 165 Z M 110 171 L 97 173 L 96 180 L 91 183 Q 96 200 107 212 Q 113 219 125 222 L 128 221 L 128 171 L 110 171 Z M 130 171 L 130 221 L 132 222 Q 143 220 149 214 Q 161 202 167 185 Q 168 182 166 183 Q 160 181 161 173 L 150 171 L 130 171 Z M 74 177 L 54 183 L 57 189 Q 77 213 113 221 L 113 219 L 107 215 Q 95 203 89 186 Q 88 183 82 184 L 76 179 Q 77 176 74 177 Z M 182 177 L 182 179 L 177 184 L 171 184 L 161 204 L 154 213 L 150 216 L 147 220 L 151 220 L 166 215 L 189 201 Q 199 194 204 183 L 182 177 Z " /><path fill="rgb(9,3,3)" stroke="rgb(9,3,3)" stroke-width="1" opacity="0.20392156862745098" d="M 111.5 37 L 110.5 39 L 111.5 37 Z " /><path fill="rgb(9,3,3)" stroke="rgb(9,3,3)" stroke-width="1" opacity="0.20392156862745098" d="M 146.5 37 Q 148.8 36.3 148 38.5 L 146.5 37 Z " /><path fill="rgb(9,3,3)" stroke="rgb(9,3,3)" stroke-width="1" opacity="0.20392156862745098" d="M 146.5 42 L 148.5 45 L 146.5 42 Z " /><path fill="rgb(9,3,3)" stroke="rgb(9,3,3)" stroke-width="1" opacity="0.20392156862745098" d="M 110.5 43 L 105.5 49 L 110.5 43 Z " /><path fill="rgb(9,3,3)" stroke="rgb(9,3,3)" stroke-width="1" opacity="0.20392156862745098" d="M 150.5 46 L 153.5 50 L 150.5 46 Z " /><path fill="rgb(9,3,3)" stroke="rgb(9,3,3)" stroke-width="1" opacity="0.20392156862745098" d="M 70.5 51 L 69.5 53 L 70.5 51 Z " /><path fill="rgb(9,3,3)" stroke="rgb(9,3,3)" stroke-width="1" opacity="0.20392156862745098" d="M 98.5 51 L 97.5 53 L 98.5 51 Z " /><path fill="rgb(9,3,3)" stroke="rgb(9,3,3)" stroke-width="1" opacity="0.20392156862745098" d="M 103.5 51 L 102.5 53 L 103.5 51 Z " /><path fill="rgb(9,3,3)" stroke="rgb(9,3,3)" stroke-width="1" opacity="0.20392156862745098" d="M 65.5 55 L 56.5 65 L 65.5 55 Z " /><path fill="rgb(9,3,3)" stroke="rgb(9,3,3)" stroke-width="1" opacity="0.20392156862745098" d="M 192.5 55 L 202.5 66 L 192.5 55 Z " /><path fill="rgb(9,3,3)" stroke="rgb(9,3,3)" stroke-width="1" opacity="0.20392156862745098" d="M 70.5 56 L 68.5 59 L 70.5 56 Z " /><path fill="rgb(9,3,3)" stroke="rgb(9,3,3)" stroke-width="1" opacity="0.20392156862745098" d="M 187.5 56 L 188.5 58 L 187.5 56 Z " /><path fill="rgb(9,3,3)" stroke="rgb(9,3,3)" stroke-width="1" opacity="0.20392156862745098" d="M 58.5 68 L 57.5 70 L 58.5 68 Z " /><path fill="rgb(9,3,3)" stroke="rgb(9,3,3)" stroke-width="1" opacity="0.20392156862745098" d="M 200.5 69 L 201.5 71 L 200.5 69 Z " /><path fill="rgb(9,3,3)" stroke="rgb(9,3,3)" stroke-width="1" opacity="0.20392156862745098" d="M 205.5 69 L 206.5 71 L 205.5 69 Z " /><path fill="rgb(9,3,3)" stroke="rgb(9,3,3)" stroke-width="1" opacity="0.20392156862745098" d="M 78.5 73 L 77.5 75 L 78.5 73 Z " /><path fill="rgb(9,3,3)" stroke="rgb(9,3,3)" stroke-width="1" opacity="0.20392156862745098" d="M 94.5 80 L 95 83.5 L 94 83.5 L 94.5 80 Z " /><path fill="rgb(9,3,3)" stroke="rgb(9,3,3)" stroke-width="1" opacity="0.20392156862745098" d="M 154.5 82 L 157 82.5 L 154.5 83 L 154.5 82 Z " /><path fill="rgb(9,3,3)" stroke="rgb(9,3,3)" stroke-width="1" opacity="0.20392156862745098" d="M 112.5 83 L 116 83.5 L 112.5 84 L 112.5 83 Z " /><path fill="rgb(9,3,3)" stroke="rgb(9,3,3)" stroke-width="1" opacity="0.20392156862745098" d="M 143.5 83 L 146 83.5 L 143.5 84 L 143.5 83 Z " /><path fill="rgb(9,3,3)" stroke="rgb(9,3,3)" stroke-width="1" opacity="0.20392156862745098" d="M 154.5 86 L 157 86.5 L 154.5 87 L 154.5 86 Z " /><path fill="rgb(9,3,3)" stroke="rgb(9,3,3)" stroke-width="1" opacity="0.20392156862745098" d="M 112.5 87 L 117 87.5 L 112.5 88 L 112.5 87 Z " /><path fill="rgb(9,3,3)" stroke="rgb(9,3,3)" stroke-width="1" opacity="0.20392156862745098" d="M 142.5 87 L 146 87.5 L 142.5 88 L 142.5 87 Z " /><path fill="rgb(9,3,3)" stroke="rgb(9,3,3)" stroke-width="1" opacity="0.20392156862745098" d="M 77.5 89 L 79.5 92 L 77.5 89 Z " /><path fill="rgb(9,3,3)" stroke="rgb(9,3,3)" stroke-width="1" opacity="0.20392156862745098" d="M 174.5 107 L 175 109.5 L 174 109.5 L 174.5 107 Z " /><path fill="rgb(9,3,3)" stroke="rgb(9,3,3)" stroke-width="1" opacity="0.20392156862745098" d="M 79.5 108 L 80 110.5 L 79 110.5 L 79.5 108 Z " /><path fill="rgb(9,3,3)" stroke="rgb(9,3,3)" stroke-width="1" opacity="0.20392156862745098" d="M 83.5 108 L 84 110.5 L 83 110.5 L 83.5 108 Z " /><path fill="rgb(9,3,3)" stroke="rgb(9,3,3)" stroke-width="1" opacity="0.20392156862745098" d="M 175.5 119 L 176 126.5 L 175 126.5 L 175.5 119 Z " /><path fill="rgb(9,3,3)" stroke="rgb(9,3,3)" stroke-width="1" opacity="0.20392156862745098" d="M 221.5 119 L 222 121.5 L 221 121.5 L 221.5 119 Z " /><path fill="rgb(9,3,3)" stroke="rgb(9,3,3)" stroke-width="1" opacity="0.20392156862745098" d="M 225.5 119 L 226 121.5 L 225 121.5 L 225.5 119 Z " /><path fill="rgb(9,3,3)" stroke="rgb(9,3,3)" stroke-width="1" opacity="0.20392156862745098" d="M 32.5 120 L 33 124.5 L 32 124.5 L 32.5 120 Z " /><path fill="rgb(9,3,3)" stroke="rgb(9,3,3)" stroke-width="1" opacity="0.20392156862745098" d="M 36.5 120 L 37 123.5 L 36 123.5 L 36.5 120 Z " /><path fill="rgb(9,3,3)" stroke="rgb(9,3,3)" stroke-width="1" opacity="0.20392156862745098" d="M 179.5 120 L 180 126.5 L 179 126.5 L 179.5 120 Z " /><path fill="rgb(9,3,3)" stroke="rgb(9,3,3)" stroke-width="1" opacity="0.20392156862745098" d="M 82.5 122 L 83 126.5 L 82 126.5 L 82.5 122 Z " /><path fill="rgb(9,3,3)" stroke="rgb(9,3,3)" stroke-width="1" opacity="0.20392156862745098" d="M 78.5 123 L 79 126.5 L 78 126.5 L 78.5 123 Z " /><path fill="rgb(9,3,3)" stroke="rgb(9,3,3)" stroke-width="1" opacity="0.20392156862745098" d="M 36.5 130 L 77.5 130 L 79 131.5 L 78.5 134 L 78 131 L 36.5 131 L 36.5 130 Z " /><path fill="rgb(9,3,3)" stroke="rgb(9,3,3)" stroke-width="1" opacity="0.20392156862745098" d="M 83.5 130 L 127 130.5 L 83 131 L 82.5 136 L 82 131.5 L 83.5 130 Z " /><path fill="rgb(9,3,3)" stroke="rgb(9,3,3)" stroke-width="1" opacity="0.20392156862745098" d="M 131.5 130 L 174.5 130 L 176 131.5 L 175.5 138 L 175 131 L 131.5 131 L 131.5 130 Z " /><path fill="rgb(9,3,3)" stroke="rgb(9,3,3)" stroke-width="1" opacity="0.20392156862745098" d="M 180.5 130 L 222 130.5 L 180 131 L 179.5 137 L 179 131.5 L 180.5 130 Z " /><path fill="rgb(9,3,3)" stroke="rgb(9,3,3)" stroke-width="1" opacity="0.20392156862745098" d="M 32.5 133 L 33 136.5 L 32 136.5 L 32.5 133 Z " /><path fill="rgb(9,3,3)" stroke="rgb(9,3,3)" stroke-width="1" opacity="0.20392156862745098" d="M 36.5 134 L 37 136.5 L 36 136.5 L 36.5 134 Z " /><path fill="rgb(9,3,3)" stroke="rgb(9,3,3)" stroke-width="1" opacity="0.20392156862745098" d="M 221.5 135 L 222 137.5 L 221 137.5 L 221.5 135 Z " /><path fill="rgb(9,3,3)" stroke="rgb(9,3,3)" stroke-width="1" opacity="0.20392156862745098" d="M 225.5 135 L 226 137.5 L 225 137.5 L 225.5 135 Z " /><path fill="rgb(9,3,3)" stroke="rgb(9,3,3)" stroke-width="1" opacity="0.20392156862745098" d="M 79.5 146 L 80 148.5 L 79 148.5 L 79.5 146 Z " /><path fill="rgb(9,3,3)" stroke="rgb(9,3,3)" stroke-width="1" opacity="0.20392156862745098" d="M 83.5 146 L 84 148.5 L 83 148.5 L 83.5 146 Z " /><path fill="rgb(9,3,3)" stroke="rgb(9,3,3)" stroke-width="1" opacity="0.20392156862745098" d="M 174.5 147 L 175 149.5 L 174 149.5 L 174.5 147 Z " /><path fill="rgb(9,3,3)" stroke="rgb(9,3,3)" stroke-width="1" opacity="0.20392156862745098" d="M 178.5 147 L 179 149.5 L 178 149.5 L 178.5 147 Z " /><path fill="rgb(9,3,3)" stroke="rgb(9,3,3)" stroke-width="1" opacity="0.20392156862745098" d="M 85.5 160 L 89 161.5 L 86.5 162 L 85.5 160 Z " /><path fill="rgb(9,3,3)" stroke="rgb(9,3,3)" stroke-width="1" opacity="0.20392156862745098" d="M 169.5 161 L 173 161.5 L 169.5 162 L 169.5 161 Z " /><path fill="rgb(9,3,3)" stroke="rgb(9,3,3)" stroke-width="1" opacity="0.20392156862745098" d="M 79.5 163 L 76.5 167 L 79.5 163 Z " /><path fill="rgb(9,3,3)" stroke="rgb(9,3,3)" stroke-width="1" opacity="0.20392156862745098" d="M 84.5 165 L 88 165.5 L 84.5 166 L 84.5 165 Z " /><path fill="rgb(9,3,3)" stroke="rgb(9,3,3)" stroke-width="1" opacity="0.20392156862745098" d="M 91.5 167 L 92.5 169 L 91.5 167 Z " /><path fill="rgb(9,3,3)" stroke="rgb(9,3,3)" stroke-width="1" opacity="0.20392156862745098" d="M 116.5 167 L 121 167.5 L 116.5 168 L 116.5 167 Z " /><path fill="rgb(9,3,3)" stroke="rgb(9,3,3)" stroke-width="1" opacity="0.20392156862745098" d="M 137.5 167 L 143 167.5 L 137.5 168 L 137.5 167 Z " /><path fill="rgb(9,3,3)" stroke="rgb(9,3,3)" stroke-width="1" opacity="0.20392156862745098" d="M 166.5 167 L 165.5 169 L 166.5 167 Z " /><path fill="rgb(9,3,3)" stroke="rgb(9,3,3)" stroke-width="1" opacity="0.20392156862745098" d="M 152.5 168 L 155 168.5 L 152.5 169 L 152.5 168 Z " /><path fill="rgb(9,3,3)" stroke="rgb(9,3,3)" stroke-width="1" opacity="0.20392156862745098" d="M 74.5 171 L 75 173.5 L 74 173.5 L 74.5 171 Z " /><path fill="rgb(9,3,3)" stroke="rgb(9,3,3)" stroke-width="1" opacity="0.20392156862745098" d="M 115.5 171 L 120 171.5 L 115.5 172 L 115.5 171 Z " /><path fill="rgb(9,3,3)" stroke="rgb(9,3,3)" stroke-width="1" opacity="0.20392156862745098" d="M 139.5 171 L 144 171.5 L 139.5 172 L 139.5 171 Z " /><path fill="rgb(9,3,3)" stroke="rgb(9,3,3)" stroke-width="1" opacity="0.20392156862745098" d="M 152.5 172 L 155 172.5 L 152.5 173 L 152.5 172 Z " /><path fill="rgb(9,3,3)" stroke="rgb(9,3,3)" stroke-width="1" opacity="0.20392156862745098" d="M 79.5 177 L 81.5 180 L 79.5 177 Z " /><path fill="rgb(9,3,3)" stroke="rgb(9,3,3)" stroke-width="1" opacity="0.20392156862745098" d="M 178.5 177 L 176.5 180 L 178.5 177 Z " /><path fill="rgb(9,3,3)" stroke="rgb(9,3,3)" stroke-width="1" opacity="0.20392156862745098" d="M 95.5 180 L 93.5 183 L 95.5 180 Z " /><path fill="rgb(9,3,3)" stroke="rgb(9,3,3)" stroke-width="1" opacity="0.20392156862745098" d="M 162.5 180 L 164.5 183 L 162.5 180 Z " /><path fill="rgb(9,3,3)" stroke="rgb(9,3,3)" stroke-width="1" opacity="0.20392156862745098" d="M 202.5 185 L 201.5 187 L 202.5 185 Z " /><path fill="rgb(9,3,3)" stroke="rgb(9,3,3)" stroke-width="1" opacity="0.20392156862745098" d="M 56.5 186 L 57.5 188 L 56.5 186 Z " /><path fill="rgb(9,3,3)" stroke="rgb(9,3,3)" stroke-width="1" opacity="0.20392156862745098" d="M 203.5 190 L 201.5 193 L 203.5 190 Z " /><path fill="rgb(9,3,3)" stroke="rgb(9,3,3)" stroke-width="1" opacity="0.20392156862745098" d="M 55.5 191 L 58.5 195 L 55.5 191 Z " /><path fill="rgb(9,3,3)" stroke="rgb(9,3,3)" stroke-width="1" opacity="0.20392156862745098" d="M 197.5 191 L 192.5 197 L 197.5 191 Z " /><path fill="rgb(9,3,3)" stroke="rgb(9,3,3)" stroke-width="1" opacity="0.20392156862745098" d="M 62.5 193 L 64.5 196 L 62.5 193 Z " /><path fill="rgb(9,3,3)" stroke="rgb(9,3,3)" stroke-width="1" opacity="0.20392156862745098" d="M 63.5 199 L 66.5 203 L 63.5 199 Z " /><path fill="rgb(9,3,3)" stroke="rgb(9,3,3)" stroke-width="1" opacity="0.20392156862745098" d="M 70.5 200 L 71.5 202 L 70.5 200 Z " /><path fill="rgb(9,3,3)" stroke="rgb(9,3,3)" stroke-width="1" opacity="0.20392156862745098" d="M 187.5 200 L 186.5 202 L 187.5 200 Z " /><path fill="rgb(9,3,3)" stroke="rgb(9,3,3)" stroke-width="1" opacity="0.20392156862745098" d="M 193.5 200 L 190.5 204 L 193.5 200 Z " /><path fill="rgb(9,3,3)" stroke="rgb(9,3,3)" stroke-width="1" opacity="0.20392156862745098" d="M 74.5 203 L 75.5 205 L 74.5 203 Z " /><path fill="rgb(9,3,3)" stroke="rgb(9,3,3)" stroke-width="1" opacity="0.20392156862745098" d="M 70.5 205 L 71.5 207 L 70.5 205 Z " /><path fill="rgb(9,3,3)" stroke="rgb(9,3,3)" stroke-width="1" opacity="0.20392156862745098" d="M 104.5 207 L 106.5 210 L 104.5 207 Z " /><path fill="rgb(9,3,3)" stroke="rgb(9,3,3)" stroke-width="1" opacity="0.20392156862745098" d="M 153.5 207 L 152.5 209 L 153.5 207 Z " /><path fill="rgb(9,3,3)" stroke="rgb(9,3,3)" stroke-width="1" opacity="0.20392156862745098" d="M 158.5 207 L 157.5 209 L 158.5 207 Z " /><path fill="rgb(9,3,3)" stroke="rgb(9,3,3)" stroke-width="1" opacity="0.20392156862745098" d="M 109.5 212 L 111.5 215 L 109.5 212 Z " /><path fill="rgb(9,3,3)" stroke="rgb(9,3,3)" stroke-width="1" opacity="0.20392156862745098" d="M 154.5 212 L 150.5 217 L 154.5 212 Z " /><path fill="rgb(9,3,3)" stroke="rgb(9,3,3)" stroke-width="1" opacity="0.20392156862745098" d="M 147.5 213 L 145.5 216 L 147.5 213 Z " /><path fill="rgb(9,3,3)" stroke="rgb(9,3,3)" stroke-width="1" opacity="0.20392156862745098" d="M 110.5 218 L 111.5 220 Q 108.7 220.7 110.5 218 Z " /><path fill="rgb(9,3,3)" stroke="rgb(9,3,3)" stroke-width="1" opacity="0.20392156862745098" d="M 146.5 219 L 149 219.5 L 146.5 220 L 146.5 219 Z " /><path fill="rgb(9,3,3)" stroke="rgb(9,3,3)" stroke-width="1" opacity="0.20392156862745098" d="M 98.5 220 L 102 221.5 L 46.5 222 L 46.5 221 L 97.5 221 L 98.5 220 Z " /><path fill="rgb(9,3,3)" stroke="rgb(9,3,3)" stroke-width="1" opacity="0.20392156862745098" d="M 159.5 220 L 160.5 221 L 212 221.5 L 157.5 222 L 157.5 221 L 159.5 220 Z " /><path fill="rgb(9,3,3)" stroke="rgb(9,3,3)" stroke-width="1" opacity="0.20392156862745098" d="M 44.5 222 L 45 225 L 212.5 225 L 213.5 224 L 212.5 226 L 45.5 226 L 44 224.5 L 44.5 222 Z " /><path fill="rgb(0,0,0)" stroke="rgb(0,0,0)" stroke-width="1" opacity="0" d="M 0 0 L 256 0 L 256 256 L 0 256 L 0 0 Z M 46 31 L 44 34 L 46 35 L 102 36 Q 80 42 66 55 Q 54 66 45 80 L 35 104 L 32 121 L 32 137 L 35 154 Q 41 176 55 192 Q 71 211 98 221 L 47 221 L 46 222 Q 43 221 44 225 L 46 226 L 213 226 L 214 222 L 212 221 L 160 221 Q 178 215 191 204 Q 203 194 212 180 L 222 158 L 226 138 L 226 120 L 222 100 Q 215 80 203 66 Q 186 44 156 36 L 213 35 L 214 33 L 213 31 L 46 31 Z " /><path fill="rgb(0,0,0)" stroke="rgb(0,0,0)" stroke-width="1" opacity="0" d="M 124.5 36 L 127 36.5 L 127 84 L 99 82 L 98 77.5 L 93 71.5 L 93 69.5 Q 100 52 113.5 41 L 124.5 36 Z " /><path fill="rgb(0,0,0)" stroke="rgb(0,0,0)" stroke-width="1" opacity="0" d="M 131 36 L 139.5 38 L 150 45 L 159 57.5 L 167 74.5 L 168 81 L 154.5 82 L 153.5 83 L 131 84 L 131 36 Z " /><path fill="rgb(0,0,0)" stroke="rgb(0,0,0)" stroke-width="1" opacity="0" d="M 107.5 38 L 110 38.5 Q 94.9 50.2 89 70 Q 80.7 69.5 77 74.5 L 75.5 78 L 57.5 73 L 56 71.5 L 67.5 59 Q 83.5 44.5 107.5 38 Z " /><path fill="rgb(0,0,0)" stroke="rgb(0,0,0)" stroke-width="1" opacity="0" d="M 148.5 38 Q 181.8 45.7 200 68.5 L 202 71.5 L 197.5 74 L 173.5 80 L 169 67.5 L 161 52.5 L 148.5 38 Z " /><path fill="rgb(0,0,0)" stroke="rgb(0,0,0)" stroke-width="1" opacity="0" d="M 85.5 74 Q 91.9 74.1 94 78.5 Q 95.8 87.3 90.5 89 L 85.5 90 L 80 86.5 L 79 80.5 L 81 76 L 85.5 74 Z " /><path fill="rgb(0,0,0)" stroke="rgb(0,0,0)" stroke-width="1" opacity="0" d="M 52 76 L 73.5 81 L 75 82.5 L 75 85.5 L 79.5 92 L 82 93.5 L 79 108.5 Q 80.2 120.3 78 127 L 36.5 127 L 36 124.5 L 37 123.5 L 37 114.5 L 41 98.5 L 52 76 Z " /><path fill="rgb(0,0,0)" stroke="rgb(0,0,0)" stroke-width="1" opacity="0" d="M 202.5 76 Q 206.9 74.5 206 77.5 Q 214.8 88.7 219 104.5 L 222 127 L 180.5 127 Q 179.3 126.8 180 120.5 L 179 119.5 L 178 100.5 L 174 84.5 L 175.5 83 L 195.5 79 L 202.5 76 Z " /><path fill="rgb(0,0,0)" stroke="rgb(0,0,0)" stroke-width="1" opacity="0" d="M 164.5 85 Q 170.6 83.8 170 86.5 L 174 102.5 L 175 127 L 131 127 L 131 88 L 156.5 87 L 164.5 85 Z " /><path fill="rgb(0,0,0)" stroke="rgb(0,0,0)" stroke-width="1" opacity="0" d="M 98.5 86 L 111.5 87 L 112.5 88 L 127 88 L 127 127 L 83 127 L 83 111.5 L 86 94 Q 94.2 94.4 97 88.5 L 98.5 86 Z " /><path fill="rgb(0,0,0)" stroke="rgb(0,0,0)" stroke-width="1" opacity="0" d="M 36 131 L 77.5 131 L 78 133.5 L 79 134.5 L 79 148.5 L 80 149.5 L 81 163 L 76 166.5 L 74 174 L 52.5 180 L 47 172.5 L 42 161.5 L 38 147.5 L 36 131 Z " /><path fill="rgb(0,0,0)" stroke="rgb(0,0,0)" stroke-width="1" opacity="0" d="M 83 131 L 127 131 L 127 167 L 97 169 L 91.5 162 L 85 159.5 L 84 146.5 L 83 145.5 L 83 131 Z " /><path fill="rgb(0,0,0)" stroke="rgb(0,0,0)" stroke-width="1" opacity="0" d="M 131 131 L 175 131 L 175 146.5 L 174 147.5 L 173 161 Q 164 160.7 161 167.5 Q 161.6 170.3 155.5 169 L 154.5 168 L 131 167 L 131 131 Z " /><path fill="rgb(0,0,0)" stroke="rgb(0,0,0)" stroke-width="1" opacity="0" d="M 180 131 L 221.5 131 L 222 134.5 L 221 135.5 L 220 148.5 L 216 161.5 L 210 174.5 L 205.5 180 L 184 174 Q 183.8 166.4 178.5 163 Q 175.8 163.6 177 157.5 L 179 149.5 L 179 137.5 L 180 131 Z " /><path fill="rgb(0,0,0)" stroke="rgb(0,0,0)" stroke-width="1" opacity="0" d="M 171.5 165 Q 177.1 165.5 179 169.5 L 180 174.5 L 175.5 180 L 169.5 181 L 166 178.5 L 164 171.5 L 168.5 166 L 171.5 165 Z " /><path fill="rgb(0,0,0)" stroke="rgb(0,0,0)" stroke-width="1" opacity="0" d="M 83.5 166 Q 91.5 164.5 93 169.5 L 94 175.5 L 90.5 180 L 84.5 181 L 79 176.5 L 78 173.5 L 81.5 167 L 83.5 166 Z " /><path fill="rgb(0,0,0)" stroke="rgb(0,0,0)" stroke-width="1" opacity="0" d="M 120.5 171 Q 126.8 170.3 127 171.5 L 127 221 Q 114 219.3 107 210.5 Q 96.7 199.1 92 183 L 96 180.5 L 98 173 L 105.5 173 L 106.5 172 L 119.5 172 L 120.5 171 Z " /><path fill="rgb(0,0,0)" stroke="rgb(0,0,0)" stroke-width="1" opacity="0" d="M 131 171 L 160 173 Q 159.2 180.1 164.5 183 Q 167.1 182.2 166 185.5 Q 159.9 201.9 148.5 213 Q 142.4 220.4 131 221 L 131 171 Z " /><path fill="rgb(0,0,0)" stroke="rgb(0,0,0)" stroke-width="1" opacity="0" d="M 72.5 178 L 74.5 178 L 82.5 185 L 88 185 L 94 199.5 L 105 215 L 110 218.5 L 107.5 219 Q 75.9 210.6 58 188.5 L 55 183 L 72.5 178 Z " /><path fill="rgb(0,0,0)" stroke="rgb(0,0,0)" stroke-width="1" opacity="0" d="M 183.5 178 L 203 183 L 201 187.5 L 188.5 200 Q 177.8 209.3 163.5 215 L 148.5 219 L 149.5 217 L 155 212.5 Q 165.3 201.1 170 185 Q 180.3 185.6 183.5 178 Z " /><path fill="rgb(7,4,4)" stroke="rgb(7,4,4)" stroke-width="1" opacity="0.6509803921568628" d="M 45.5 31 L 212.5 31 L 214 32.5 L 212.5 35 L 155.5 35 L 153.5 36 L 152.5 34 L 212.5 34 L 213 32 L 45.5 32 L 45.5 31 Z " /><path fill="rgb(7,4,4)" stroke="rgb(7,4,4)" stroke-width="1" opacity="0.6509803921568628" d="M 45.5 34 L 106 34.5 L 103.5 36 L 102.5 35 L 45.5 35 L 45.5 34 Z " /><path fill="rgb(7,4,4)" stroke="rgb(7,4,4)" stroke-width="1" opacity="0.6509803921568628" d="M 125.5 35 L 128 36.5 L 128 83.5 L 126.5 85 L 121 84.5 L 127 84 L 127 36.5 L 125.5 36 L 125.5 35 Z " /><path fill="rgb(7,4,4)" stroke="rgb(7,4,4)" stroke-width="1" opacity="0.6509803921568628" d="M 131.5 35 L 133 35.5 L 131 36 L 131 83.5 Q 131.1 84.6 136.5 84 L 136.5 85 Q 131.3 86.3 130 83.5 L 130 36.5 L 131.5 35 Z " /><path fill="rgb(7,4,4)" stroke="rgb(7,4,4)" stroke-width="1" opacity="0.6509803921568628" d="M 108.5 37 L 111 37.5 L 108.5 38 L 108.5 37 Z " /><path fill="rgb(7,4,4)" stroke="rgb(7,4,4)" stroke-width="1" opacity="0.6509803921568628" d="M 109.5 39 L 101.5 48 L 109.5 39 Z " /><path fill="rgb(7,4,4)" stroke="rgb(7,4,4)" stroke-width="1" opacity="0.6509803921568628" d="M 148.5 39 L 156.5 48 L 148.5 39 Z " /><path fill="rgb(7,4,4)" stroke="rgb(7,4,4)" stroke-width="1" opacity="0.6509803921568628" d="M 144.5 40 L 145.5 42 L 144.5 40 Z " /><path fill="rgb(7,4,4)" stroke="rgb(7,4,4)" stroke-width="1" opacity="0.6509803921568628" d="M 112.5 41 L 111.5 43 L 112.5 41 Z " /><path fill="rgb(7,4,4)" stroke="rgb(7,4,4)" stroke-width="1" opacity="0.6509803921568628" d="M 181.5 47 L 182.5 49 L 181.5 47 Z " /><path fill="rgb(7,4,4)" stroke="rgb(7,4,4)" stroke-width="1" opacity="0.6509803921568628" d="M 104.5 49 L 103.5 51 L 104.5 49 Z " /><path fill="rgb(7,4,4)" stroke="rgb(7,4,4)" stroke-width="1" opacity="0.6509803921568628" d="M 178.5 49 L 179.5 51 L 178.5 49 Z " /><path fill="rgb(7,4,4)" stroke="rgb(7,4,4)" stroke-width="1" opacity="0.6509803921568628" d="M 184.5 49 L 185.5 51 L 184.5 49 Z " /><path fill="rgb(7,4,4)" stroke="rgb(7,4,4)" stroke-width="1" opacity="0.6509803921568628" d="M 72.5 50 L 71.5 52 L 72.5 50 Z " /><path fill="rgb(7,4,4)" stroke="rgb(7,4,4)" stroke-width="1" opacity="0.6509803921568628" d="M 154.5 50 L 155.5 52 L 154.5 50 Z " /><path fill="rgb(7,4,4)" stroke="rgb(7,4,4)" stroke-width="1" opacity="0.6509803921568628" d="M 158.5 50 L 159.5 52 L 158.5 50 Z " /><path fill="rgb(7,4,4)" stroke="rgb(7,4,4)" stroke-width="1" opacity="0.6509803921568628" d="M 76.5 51 L 75.5 53 L 76.5 51 Z " /><path fill="rgb(7,4,4)" stroke="rgb(7,4,4)" stroke-width="1" opacity="0.6509803921568628" d="M 181.5 51 L 182.5 53 L 181.5 51 Z " /><path fill="rgb(7,4,4)" stroke="rgb(7,4,4)" stroke-width="1" opacity="0.6509803921568628" d="M 188.5 52 L 190.5 55 L 188.5 52 Z " /><path fill="rgb(7,4,4)" stroke="rgb(7,4,4)" stroke-width="1" opacity="0.6509803921568628" d="M 68.5 53 L 66.5 56 L 68.5 53 Z " /><path fill="rgb(7,4,4)" stroke="rgb(7,4,4)" stroke-width="1" opacity="0.6509803921568628" d="M 156.5 53 L 157.5 55 L 156.5 53 Z " /><path fill="rgb(7,4,4)" stroke="rgb(7,4,4)" stroke-width="1" opacity="0.6509803921568628" d="M 160.5 53 L 161.5 55 L 160.5 53 Z " /><path fill="rgb(7,4,4)" stroke="rgb(7,4,4)" stroke-width="1" opacity="0.6509803921568628" d="M 72.5 54 L 71.5 56 L 72.5 54 Z " /><path fill="rgb(7,4,4)" stroke="rgb(7,4,4)" stroke-width="1" opacity="0.6509803921568628" d="M 185.5 54 L 186.5 56 L 185.5 54 Z " /><path fill="rgb(7,4,4)" stroke="rgb(7,4,4)" stroke-width="1" opacity="0.6509803921568628" d="M 67.5 58 L 59.5 67 L 67.5 58 Z " /><path fill="rgb(7,4,4)" stroke="rgb(7,4,4)" stroke-width="1" opacity="0.6509803921568628" d="M 190.5 58 L 199.5 68 L 190.5 58 Z " /><path fill="rgb(7,4,4)" stroke="rgb(7,4,4)" stroke-width="1" opacity="0.6509803921568628" d="M 55.5 66 L 53.5 69 L 55.5 66 Z " /><path fill="rgb(7,4,4)" stroke="rgb(7,4,4)" stroke-width="1" opacity="0.6509803921568628" d="M 203.5 67 L 204.5 69 L 203.5 67 Z " /><path fill="rgb(7,4,4)" stroke="rgb(7,4,4)" stroke-width="1" opacity="0.6509803921568628" d="M 89.5 69 L 88.5 71 L 85 70.5 L 89.5 69 Z " /><path fill="rgb(7,4,4)" stroke="rgb(7,4,4)" stroke-width="1" opacity="0.6509803921568628" d="M 56.5 70 L 56 71.5 L 55.5 73 L 55 71.5 L 56.5 70 Z " /><path fill="rgb(7,4,4)" stroke="rgb(7,4,4)" stroke-width="1" opacity="0.6509803921568628" d="M 51.5 71 L 50.5 73 L 51.5 71 Z " /><path fill="rgb(7,4,4)" stroke="rgb(7,4,4)" stroke-width="1" opacity="0.6509803921568628" d="M 206.5 71 L 207.5 73 L 206.5 71 Z " /><path fill="rgb(7,4,4)" stroke="rgb(7,4,4)" stroke-width="1" opacity="0.6509803921568628" d="M 93.5 72 L 95.5 75 L 93.5 72 Z " /><path fill="rgb(7,4,4)" stroke="rgb(7,4,4)" stroke-width="1" opacity="0.6509803921568628" d="M 81.5 75 L 80.5 77 L 81.5 75 Z " /><path fill="rgb(7,4,4)" stroke="rgb(7,4,4)" stroke-width="1" opacity="0.6509803921568628" d="M 47.5 77 L 46.5 79 L 47.5 77 Z " /><path fill="rgb(7,4,4)" stroke="rgb(7,4,4)" stroke-width="1" opacity="0.6509803921568628" d="M 78.5 80 L 79 83.5 L 78 83.5 L 78.5 80 Z " /><path fill="rgb(7,4,4)" stroke="rgb(7,4,4)" stroke-width="1" opacity="0.6509803921568628" d="M 164.5 81 L 167 81.5 L 164.5 82 L 164.5 81 Z " /><path fill="rgb(7,4,4)" stroke="rgb(7,4,4)" stroke-width="1" opacity="0.6509803921568628" d="M 75.5 82 L 76 84.5 L 75 84.5 L 75.5 82 Z " /><path fill="rgb(7,4,4)" stroke="rgb(7,4,4)" stroke-width="1" opacity="0.6509803921568628" d="M 98.5 82 L 102 82.5 L 98.5 83 L 98.5 82 Z " /><path fill="rgb(7,4,4)" stroke="rgb(7,4,4)" stroke-width="1" opacity="0.6509803921568628" d="M 157.5 82 L 160 82.5 L 157.5 83 L 157.5 82 Z " /><path fill="rgb(7,4,4)" stroke="rgb(7,4,4)" stroke-width="1" opacity="0.6509803921568628" d="M 106.5 83 L 112 83.5 L 106.5 84 L 106.5 83 Z " /><path fill="rgb(7,4,4)" stroke="rgb(7,4,4)" stroke-width="1" opacity="0.6509803921568628" d="M 146.5 83 L 152 83.5 L 146.5 84 L 146.5 83 Z " /><path fill="rgb(7,4,4)" stroke="rgb(7,4,4)" stroke-width="1" opacity="0.6509803921568628" d="M 166.5 84 L 169 84.5 L 166.5 85 L 166.5 84 Z " /><path fill="rgb(7,4,4)" stroke="rgb(7,4,4)" stroke-width="1" opacity="0.6509803921568628" d="M 98.5 85 L 100 85.5 L 97.5 87 L 98.5 85 Z " /><path fill="rgb(7,4,4)" stroke="rgb(7,4,4)" stroke-width="1" opacity="0.6509803921568628" d="M 159.5 85 L 162 85.5 L 159.5 86 L 159.5 85 Z " /><path fill="rgb(7,4,4)" stroke="rgb(7,4,4)" stroke-width="1" opacity="0.6509803921568628" d="M 104.5 86 L 109 86.5 L 104.5 87 L 104.5 86 Z " /><path fill="rgb(7,4,4)" stroke="rgb(7,4,4)" stroke-width="1" opacity="0.6509803921568628" d="M 149.5 86 L 154 86.5 L 149.5 87 L 149.5 86 Z " /><path fill="rgb(7,4,4)" stroke="rgb(7,4,4)" stroke-width="1" opacity="0.6509803921568628" d="M 80.5 87 L 81.5 89 L 80.5 87 Z " /><path fill="rgb(7,4,4)" stroke="rgb(7,4,4)" stroke-width="1" opacity="0.6509803921568628" d="M 117.5 87 L 126.5 87 L 128 88.5 L 127.5 127 L 127 88 L 117.5 88 L 117.5 87 Z " /><path fill="rgb(7,4,4)" stroke="rgb(7,4,4)" stroke-width="1" opacity="0.6509803921568628" d="M 131.5 87 L 142 87.5 L 131 88 L 130.5 127 L 130 88.5 L 131.5 87 Z " /><path fill="rgb(7,4,4)" stroke="rgb(7,4,4)" stroke-width="1" opacity="0.6509803921568628" d="M 91.5 88 L 90.5 90 L 91.5 88 Z " /><path fill="rgb(7,4,4)" stroke="rgb(7,4,4)" stroke-width="1" opacity="0.6509803921568628" d="M 96.5 88 L 93.5 92 L 96.5 88 Z " /><path fill="rgb(7,4,4)" stroke="rgb(7,4,4)" stroke-width="1" opacity="0.6509803921568628" d="M 86.5 93 L 89 93.5 L 85.5 95 L 86.5 93 Z " /><path fill="rgb(7,4,4)" stroke="rgb(7,4,4)" stroke-width="1" opacity="0.6509803921568628" d="M 176.5 96 L 177 98.5 L 176 98.5 L 176.5 96 Z " /><path fill="rgb(7,4,4)" stroke="rgb(7,4,4)" stroke-width="1" opacity="0.6509803921568628" d="M 84.5 98 L 85 100.5 L 84 100.5 L 84.5 98 Z " /><path fill="rgb(7,4,4)" stroke="rgb(7,4,4)" stroke-width="1" opacity="0.6509803921568628" d="M 177.5 102 L 178 104.5 L 177 104.5 L 177.5 102 Z " /><path fill="rgb(7,4,4)" stroke="rgb(7,4,4)" stroke-width="1" opacity="0.6509803921568628" d="M 80.5 103 L 81 105.5 L 80 105.5 L 80.5 103 Z " /><path fill="rgb(7,4,4)" stroke="rgb(7,4,4)" stroke-width="1" opacity="0.6509803921568628" d="M 83.5 104 L 84 107.5 L 83 107.5 L 83.5 104 Z " /><path fill="rgb(7,4,4)" stroke="rgb(7,4,4)" stroke-width="1" opacity="0.6509803921568628" d="M 174.5 104 L 175 106.5 L 174 106.5 L 174.5 104 Z " /><path fill="rgb(7,4,4)" stroke="rgb(7,4,4)" stroke-width="1" opacity="0.6509803921568628" d="M 178.5 110 L 179 115.5 L 178 115.5 L 178.5 110 Z " /><path fill="rgb(7,4,4)" stroke="rgb(7,4,4)" stroke-width="1" opacity="0.6509803921568628" d="M 79.5 111 L 80 116.5 L 79 116.5 L 79.5 111 Z " /><path fill="rgb(7,4,4)" stroke="rgb(7,4,4)" stroke-width="1" opacity="0.6509803921568628" d="M 175.5 112 L 176 118.5 L 175 118.5 L 175.5 112 Z " /><path fill="rgb(7,4,4)" stroke="rgb(7,4,4)" stroke-width="1" opacity="0.6509803921568628" d="M 224.5 113 L 225 116.5 L 224 116.5 L 224.5 113 Z " /><path fill="rgb(7,4,4)" stroke="rgb(7,4,4)" stroke-width="1" opacity="0.6509803921568628" d="M 33.5 114 L 34 117.5 L 33 117.5 L 33.5 114 Z " /><path fill="rgb(7,4,4)" stroke="rgb(7,4,4)" stroke-width="1" opacity="0.6509803921568628" d="M 82.5 114 L 83 121.5 L 82 121.5 L 82.5 114 Z " /><path fill="rgb(7,4,4)" stroke="rgb(7,4,4)" stroke-width="1" opacity="0.6509803921568628" d="M 221.5 115 L 222 118.5 L 221 118.5 L 221.5 115 Z " /><path fill="rgb(7,4,4)" stroke="rgb(7,4,4)" stroke-width="1" opacity="0.6509803921568628" d="M 36.5 116 L 37 119.5 L 36 119.5 L 36.5 116 Z " /><path fill="rgb(7,4,4)" stroke="rgb(7,4,4)" stroke-width="1" opacity="0.6509803921568628" d="M 225.5 122 L 226 134.5 L 225 134.5 L 225.5 122 Z " /><path fill="rgb(7,4,4)" stroke="rgb(7,4,4)" stroke-width="1" opacity="0.6509803921568628" d="M 32.5 125 L 33 132.5 L 32 132.5 L 32.5 125 Z " /><path fill="rgb(7,4,4)" stroke="rgb(7,4,4)" stroke-width="1" opacity="0.6509803921568628" d="M 127.5 130 L 128 166.5 Q 126.8 169.3 121.5 168 L 121.5 167 Q 126.9 167.6 127 166.5 L 127.5 130 Z " /><path fill="rgb(7,4,4)" stroke="rgb(7,4,4)" stroke-width="1" opacity="0.6509803921568628" d="M 130.5 130 L 131 167 L 137 167.5 L 131.5 168 L 130 166.5 L 130.5 130 Z " /><path fill="rgb(7,4,4)" stroke="rgb(7,4,4)" stroke-width="1" opacity="0.6509803921568628" d="M 82.5 136 L 83 143.5 L 82 143.5 L 82.5 136 Z " /><path fill="rgb(7,4,4)" stroke="rgb(7,4,4)" stroke-width="1" opacity="0.6509803921568628" d="M 36.5 137 L 37 140.5 L 36 140.5 L 36.5 137 Z " /><path fill="rgb(7,4,4)" stroke="rgb(7,4,4)" stroke-width="1" opacity="0.6509803921568628" d="M 175.5 138 L 176 144.5 L 175 144.5 L 175.5 138 Z " /><path fill="rgb(7,4,4)" stroke="rgb(7,4,4)" stroke-width="1" opacity="0.6509803921568628" d="M 221.5 138 L 222 141.5 L 221 141.5 L 221.5 138 Z " /><path fill="rgb(7,4,4)" stroke="rgb(7,4,4)" stroke-width="1" opacity="0.6509803921568628" d="M 33.5 139 L 34 142.5 L 33 142.5 L 33.5 139 Z " /><path fill="rgb(7,4,4)" stroke="rgb(7,4,4)" stroke-width="1" opacity="0.6509803921568628" d="M 79.5 140 L 80 145.5 L 79 145.5 L 79.5 140 Z " /><path fill="rgb(7,4,4)" stroke="rgb(7,4,4)" stroke-width="1" opacity="0.6509803921568628" d="M 224.5 140 L 225 143.5 L 224 143.5 L 224.5 140 Z " /><path fill="rgb(7,4,4)" stroke="rgb(7,4,4)" stroke-width="1" opacity="0.6509803921568628" d="M 178.5 141 L 179 146.5 L 178 146.5 L 178.5 141 Z " /><path fill="rgb(7,4,4)" stroke="rgb(7,4,4)" stroke-width="1" opacity="0.6509803921568628" d="M 220.5 145 L 221 147.5 L 220 147.5 L 220.5 145 Z " /><path fill="rgb(7,4,4)" stroke="rgb(7,4,4)" stroke-width="1" opacity="0.6509803921568628" d="M 34.5 146 L 35 148.5 L 34 148.5 L 34.5 146 Z " /><path fill="rgb(7,4,4)" stroke="rgb(7,4,4)" stroke-width="1" opacity="0.6509803921568628" d="M 83.5 149 L 84 152.5 L 83 152.5 L 83.5 149 Z " /><path fill="rgb(7,4,4)" stroke="rgb(7,4,4)" stroke-width="1" opacity="0.6509803921568628" d="M 174.5 150 L 175 152.5 L 174 152.5 L 174.5 150 Z " /><path fill="rgb(7,4,4)" stroke="rgb(7,4,4)" stroke-width="1" opacity="0.6509803921568628" d="M 80.5 151 L 81 153.5 L 80 153.5 L 80.5 151 Z " /><path fill="rgb(7,4,4)" stroke="rgb(7,4,4)" stroke-width="1" opacity="0.6509803921568628" d="M 177.5 152 L 178 154.5 L 177 154.5 L 177.5 152 Z " /><path fill="rgb(7,4,4)" stroke="rgb(7,4,4)" stroke-width="1" opacity="0.6509803921568628" d="M 84.5 156 L 85 158.5 L 84 158.5 L 84.5 156 Z " /><path fill="rgb(7,4,4)" stroke="rgb(7,4,4)" stroke-width="1" opacity="0.6509803921568628" d="M 173.5 157 L 174 159.5 L 173 159.5 L 173.5 157 Z " /><path fill="rgb(7,4,4)" stroke="rgb(7,4,4)" stroke-width="1" opacity="0.6509803921568628" d="M 81.5 158 L 82 160.5 L 81 160.5 L 81.5 158 Z " /><path fill="rgb(7,4,4)" stroke="rgb(7,4,4)" stroke-width="1" opacity="0.6509803921568628" d="M 92.5 163 L 95.5 167 L 92.5 163 Z " /><path fill="rgb(7,4,4)" stroke="rgb(7,4,4)" stroke-width="1" opacity="0.6509803921568628" d="M 165.5 163 L 162.5 167 L 165.5 163 Z " /><path fill="rgb(7,4,4)" stroke="rgb(7,4,4)" stroke-width="1" opacity="0.6509803921568628" d="M 179.5 164 L 180.5 166 L 179.5 164 Z " /><path fill="rgb(7,4,4)" stroke="rgb(7,4,4)" stroke-width="1" opacity="0.6509803921568628" d="M 81.5 166 L 79.5 169 L 81.5 166 Z " /><path fill="rgb(7,4,4)" stroke="rgb(7,4,4)" stroke-width="1" opacity="0.6509803921568628" d="M 106.5 168 L 112 168.5 L 106.5 169 L 106.5 168 Z " /><path fill="rgb(7,4,4)" stroke="rgb(7,4,4)" stroke-width="1" opacity="0.6509803921568628" d="M 147.5 168 L 152 168.5 L 147.5 169 L 147.5 168 Z " /><path fill="rgb(7,4,4)" stroke="rgb(7,4,4)" stroke-width="1" opacity="0.6509803921568628" d="M 161.5 168 L 160.5 170 L 157 169.5 L 161.5 168 Z " /><path fill="rgb(7,4,4)" stroke="rgb(7,4,4)" stroke-width="1" opacity="0.6509803921568628" d="M 97.5 169 L 102 169.5 L 97.5 170 L 97.5 169 Z " /><path fill="rgb(7,4,4)" stroke="rgb(7,4,4)" stroke-width="1" opacity="0.6509803921568628" d="M 94.5 171 L 95 174.5 L 94 174.5 L 94.5 171 Z " /><path fill="rgb(7,4,4)" stroke="rgb(7,4,4)" stroke-width="1" opacity="0.6509803921568628" d="M 109.5 171 L 115 171.5 L 109.5 172 L 109.5 171 Z " /><path fill="rgb(7,4,4)" stroke="rgb(7,4,4)" stroke-width="1" opacity="0.6509803921568628" d="M 127.5 171 L 128 220.5 L 124.5 222 L 124.5 221 L 127 220.5 L 127.5 171 Z " /><path fill="rgb(7,4,4)" stroke="rgb(7,4,4)" stroke-width="1" opacity="0.6509803921568628" d="M 130.5 171 L 131 221 L 134 221.5 L 131.5 222 L 130 220.5 L 130.5 171 Z " /><path fill="rgb(7,4,4)" stroke="rgb(7,4,4)" stroke-width="1" opacity="0.6509803921568628" d="M 144.5 171 L 150 171.5 L 144.5 172 L 144.5 171 Z " /><path fill="rgb(7,4,4)" stroke="rgb(7,4,4)" stroke-width="1" opacity="0.6509803921568628" d="M 100.5 172 L 104 172.5 L 100.5 173 L 100.5 172 Z " /><path fill="rgb(7,4,4)" stroke="rgb(7,4,4)" stroke-width="1" opacity="0.6509803921568628" d="M 155.5 172 L 159 172.5 L 155.5 173 L 155.5 172 Z " /><path fill="rgb(7,4,4)" stroke="rgb(7,4,4)" stroke-width="1" opacity="0.6509803921568628" d="M 97.5 173 L 98 175.5 L 97 175.5 L 97.5 173 Z " /><path fill="rgb(7,4,4)" stroke="rgb(7,4,4)" stroke-width="1" opacity="0.6509803921568628" d="M 160.5 173 L 161 175.5 L 160 175.5 L 160.5 173 Z " /><path fill="rgb(7,4,4)" stroke="rgb(7,4,4)" stroke-width="1" opacity="0.6509803921568628" d="M 73.5 177 L 76 177.5 L 73.5 178 L 73.5 177 Z " /><path fill="rgb(7,4,4)" stroke="rgb(7,4,4)" stroke-width="1" opacity="0.6509803921568628" d="M 182.5 177 L 185 177.5 L 182.5 178 L 182.5 177 Z " /><path fill="rgb(7,4,4)" stroke="rgb(7,4,4)" stroke-width="1" opacity="0.6509803921568628" d="M 208.5 177 L 207.5 179 L 208.5 177 Z " /><path fill="rgb(7,4,4)" stroke="rgb(7,4,4)" stroke-width="1" opacity="0.6509803921568628" d="M 92.5 178 L 91.5 180 L 92.5 178 Z " /><path fill="rgb(7,4,4)" stroke="rgb(7,4,4)" stroke-width="1" opacity="0.6509803921568628" d="M 165.5 178 L 166.5 180 L 165.5 178 Z " /><path fill="rgb(7,4,4)" stroke="rgb(7,4,4)" stroke-width="1" opacity="0.6509803921568628" d="M 76.5 179 L 79.5 183 L 76.5 179 Z " /><path fill="rgb(7,4,4)" stroke="rgb(7,4,4)" stroke-width="1" opacity="0.6509803921568628" d="M 181.5 179 L 178.5 183 L 181.5 179 Z " /><path fill="rgb(7,4,4)" stroke="rgb(7,4,4)" stroke-width="1" opacity="0.6509803921568628" d="M 210.5 180 L 209.5 182 L 210.5 180 Z " /><path fill="rgb(7,4,4)" stroke="rgb(7,4,4)" stroke-width="1" opacity="0.6509803921568628" d="M 84.5 181 L 88 181.5 L 84.5 182 L 84.5 181 Z " /><path fill="rgb(7,4,4)" stroke="rgb(7,4,4)" stroke-width="1" opacity="0.6509803921568628" d="M 170.5 181 L 173 181.5 L 170.5 182 L 170.5 181 Z " /><path fill="rgb(7,4,4)" stroke="rgb(7,4,4)" stroke-width="1" opacity="0.6509803921568628" d="M 208.5 183 L 207.5 185 L 208.5 183 Z " /><path fill="rgb(7,4,4)" stroke="rgb(7,4,4)" stroke-width="1" opacity="0.6509803921568628" d="M 54.5 184 L 55.5 186 L 54.5 184 Z " /><path fill="rgb(7,4,4)" stroke="rgb(7,4,4)" stroke-width="1" opacity="0.6509803921568628" d="M 83.5 184 Q 88 183 89 185.5 L 87.5 185 Q 82.5 186 83.5 184 Z " /><path fill="rgb(7,4,4)" stroke="rgb(7,4,4)" stroke-width="1" opacity="0.6509803921568628" d="M 170.5 184 L 175 184.5 L 169.5 186 L 170.5 184 Z " /><path fill="rgb(7,4,4)" stroke="rgb(7,4,4)" stroke-width="1" opacity="0.6509803921568628" d="M 52.5 187 L 54.5 190 L 52.5 187 Z " /><path fill="rgb(7,4,4)" stroke="rgb(7,4,4)" stroke-width="1" opacity="0.6509803921568628" d="M 205.5 187 L 204.5 189 L 205.5 187 Z " /><path fill="rgb(7,4,4)" stroke="rgb(7,4,4)" stroke-width="1" opacity="0.6509803921568628" d="M 57.5 188 L 61.5 193 L 57.5 188 Z " /><path fill="rgb(7,4,4)" stroke="rgb(7,4,4)" stroke-width="1" opacity="0.6509803921568628" d="M 200.5 188 L 198.5 191 L 200.5 188 Z " /><path fill="rgb(7,4,4)" stroke="rgb(7,4,4)" stroke-width="1" opacity="0.6509803921568628" d="M 200.5 193 L 194.5 200 L 200.5 193 Z " /><path fill="rgb(7,4,4)" stroke="rgb(7,4,4)" stroke-width="1" opacity="0.6509803921568628" d="M 59.5 195 L 62.5 199 L 59.5 195 Z " /><path fill="rgb(7,4,4)" stroke="rgb(7,4,4)" stroke-width="1" opacity="0.6509803921568628" d="M 65.5 196 L 68.5 200 L 65.5 196 Z " /><path fill="rgb(7,4,4)" stroke="rgb(7,4,4)" stroke-width="1" opacity="0.6509803921568628" d="M 191.5 197 L 188.5 201 L 191.5 197 Z " /><path fill="rgb(7,4,4)" stroke="rgb(7,4,4)" stroke-width="1" opacity="0.6509803921568628" d="M 72.5 202 L 73.5 204 L 72.5 202 Z " /><path fill="rgb(7,4,4)" stroke="rgb(7,4,4)" stroke-width="1" opacity="0.6509803921568628" d="M 96.5 202 L 97.5 204 L 96.5 202 Z " /><path fill="rgb(7,4,4)" stroke="rgb(7,4,4)" stroke-width="1" opacity="0.6509803921568628" d="M 100.5 202 L 101.5 204 L 100.5 202 Z " /><path fill="rgb(7,4,4)" stroke="rgb(7,4,4)" stroke-width="1" opacity="0.6509803921568628" d="M 185.5 202 L 184.5 204 L 185.5 202 Z " /><path fill="rgb(7,4,4)" stroke="rgb(7,4,4)" stroke-width="1" opacity="0.6509803921568628" d="M 68.5 203 L 69.5 205 L 68.5 203 Z " /><path fill="rgb(7,4,4)" stroke="rgb(7,4,4)" stroke-width="1" opacity="0.6509803921568628" d="M 189.5 203 L 187.5 206 L 189.5 203 Z " /><path fill="rgb(7,4,4)" stroke="rgb(7,4,4)" stroke-width="1" opacity="0.6509803921568628" d="M 98.5 205 L 99.5 207 L 98.5 205 Z " /><path fill="rgb(7,4,4)" stroke="rgb(7,4,4)" stroke-width="1" opacity="0.6509803921568628" d="M 102.5 205 L 103.5 207 L 102.5 205 Z " /><path fill="rgb(7,4,4)" stroke="rgb(7,4,4)" stroke-width="1" opacity="0.6509803921568628" d="M 155.5 205 L 154.5 207 L 155.5 205 Z " /><path fill="rgb(7,4,4)" stroke="rgb(7,4,4)" stroke-width="1" opacity="0.6509803921568628" d="M 159.5 205 L 158.5 207 L 159.5 205 Z " /><path fill="rgb(7,4,4)" stroke="rgb(7,4,4)" stroke-width="1" opacity="0.6509803921568628" d="M 72.5 206 L 73.5 208 L 72.5 206 Z " /><path fill="rgb(7,4,4)" stroke="rgb(7,4,4)" stroke-width="1" opacity="0.6509803921568628" d="M 101.5 209 L 104.5 213 L 101.5 209 Z " /><path fill="rgb(7,4,4)" stroke="rgb(7,4,4)" stroke-width="1" opacity="0.6509803921568628" d="M 156.5 209 L 154.5 212 L 156.5 209 Z " /><path fill="rgb(7,4,4)" stroke="rgb(7,4,4)" stroke-width="1" opacity="0.6509803921568628" d="M 78.5 210 L 79.5 212 L 78.5 210 Z " /><path fill="rgb(7,4,4)" stroke="rgb(7,4,4)" stroke-width="1" opacity="0.6509803921568628" d="M 151.5 210 L 148.5 214 L 151.5 210 Z " /><path fill="rgb(7,4,4)" stroke="rgb(7,4,4)" stroke-width="1" opacity="0.6509803921568628" d="M 107.5 211 L 108.5 213 L 107.5 211 Z " /><path fill="rgb(7,4,4)" stroke="rgb(7,4,4)" stroke-width="1" opacity="0.6509803921568628" d="M 107.5 215 L 109.5 218 L 107.5 215 Z " /><path fill="rgb(7,4,4)" stroke="rgb(7,4,4)" stroke-width="1" opacity="0.6509803921568628" d="M 112.5 215 L 113.5 217 L 112.5 215 Z " /><path fill="rgb(7,4,4)" stroke="rgb(7,4,4)" stroke-width="1" opacity="0.6509803921568628" d="M 149.5 216 L 147.5 219 L 149.5 216 Z " /><path fill="rgb(7,4,4)" stroke="rgb(7,4,4)" stroke-width="1" opacity="0.6509803921568628" d="M 115.5 217 L 116.5 219 L 115.5 217 Z " /></svg>