<svg width="256" height="256" version="1.1" xmlns="http://www.w3.org/2000/svg" desc="Created with imagetracer.js version 1.2.6" ><path fill="rgb(8,4,4)" stroke="rgb(8,4,4)" stroke-width="1" opacity="0.24313725490196078" d="M 106.5 20 Q 109.8 21.8 108 28.5 L 107 28.5 Q 107.6 21.7 106.5 20 Z " /><path fill="rgb(8,4,4)" stroke="rgb(8,4,4)" stroke-width="1" opacity="0.24313725490196078" d="M 126.5 21 L 127 28.5 L 126 28.5 L 126.5 21 Z " /><path fill="rgb(8,4,4)" stroke="rgb(8,4,4)" stroke-width="1" opacity="0.24313725490196078" d="M 160.5 21 L 161 28.5 L 160 28.5 L 160.5 21 Z " /><path fill="rgb(8,4,4)" stroke="rgb(8,4,4)" stroke-width="1" opacity="0.24313725490196078" d="M 88.5 22 L 89 28.5 L 88 28.5 L 88.5 22 Z " /><path fill="rgb(8,4,4)" stroke="rgb(8,4,4)" stroke-width="1" opacity="0.24313725490196078" d="M 88.5 33 L 89 39.5 L 88 39.5 L 88.5 33 Z " /><path fill="rgb(8,4,4)" stroke="rgb(8,4,4)" stroke-width="1" opacity="0.24313725490196078" d="M 107.5 33 L 108 40.5 L 106 41.5 L 107.5 33 Z " /><path fill="rgb(8,4,4)" stroke="rgb(8,4,4)" stroke-width="1" opacity="0.24313725490196078" d="M 126.5 33 L 127 40.5 L 126 40.5 L 126.5 33 Z " /><path fill="rgb(8,4,4)" stroke="rgb(8,4,4)" stroke-width="1" opacity="0.24313725490196078" d="M 160.5 33 L 161 40.5 L 160 40.5 L 160.5 33 Z " /><path fill="rgb(8,4,4)" stroke="rgb(8,4,4)" stroke-width="1" opacity="0.24313725490196078" d="M 175.5 33 L 176 231.5 L 174.5 233 L 35.5 233 L 35.5 232 L 175 232 L 175.5 33 Z " /><path fill="rgb(8,4,4)" stroke="rgb(8,4,4)" stroke-width="1" opacity="0.24313725490196078" d="M 57.5 59 L 154 59.5 L 57.5 60 L 57.5 59 Z " /><path fill="rgb(8,4,4)" stroke="rgb(8,4,4)" stroke-width="1" opacity="0.24313725490196078" d="M 155.5 61 L 156 85.5 L 154 86.5 L 155 85.5 L 155.5 61 Z " /><path fill="rgb(8,4,4)" stroke="rgb(8,4,4)" stroke-width="1" opacity="0.24313725490196078" d="M 59.5 64 L 60 82.5 L 59 82.5 L 59.5 64 Z " /><path fill="rgb(8,4,4)" stroke="rgb(8,4,4)" stroke-width="1" opacity="0.24313725490196078" d="M 196.5 64 L 217 64.5 L 196.5 65 L 196.5 64 Z " /><path fill="rgb(8,4,4)" stroke="rgb(8,4,4)" stroke-width="1" opacity="0.24313725490196078" d="M 192.5 66 L 189.5 70 L 192.5 66 Z " /><path fill="rgb(8,4,4)" stroke="rgb(8,4,4)" stroke-width="1" opacity="0.24313725490196078" d="M 220.5 66 L 223.5 70 L 220.5 66 Z " /><path fill="rgb(8,4,4)" stroke="rgb(8,4,4)" stroke-width="1" opacity="0.24313725490196078" d="M 195.5 69 L 193.5 72 L 195.5 69 Z " /><path fill="rgb(8,4,4)" stroke="rgb(8,4,4)" stroke-width="1" opacity="0.24313725490196078" d="M 217.5 69 L 219.5 72 L 217.5 69 Z " /><path fill="rgb(8,4,4)" stroke="rgb(8,4,4)" stroke-width="1" opacity="0.24313725490196078" d="M 192.5 74 L 193 80.5 L 192 80.5 L 192.5 74 Z " /><path fill="rgb(8,4,4)" stroke="rgb(8,4,4)" stroke-width="1" opacity="0.24313725490196078" d="M 220.5 74 L 221 80.5 L 220 80.5 L 220.5 74 Z " /><path fill="rgb(8,4,4)" stroke="rgb(8,4,4)" stroke-width="1" opacity="0.24313725490196078" d="M 193.5 85 L 196 86.5 L 196 191.5 L 194.5 193 L 195 191.5 L 195 86.5 L 193 86 L 192.5 194 L 192 86.5 L 193.5 85 Z " /><path fill="rgb(8,4,4)" stroke="rgb(8,4,4)" stroke-width="1" opacity="0.24313725490196078" d="M 200.5 85 L 203 85.5 L 200.5 86 L 200.5 85 Z " /><path fill="rgb(8,4,4)" stroke="rgb(8,4,4)" stroke-width="1" opacity="0.24313725490196078" d="M 208.5 85 L 212 85.5 L 208 86 L 207.5 96 L 207 86.5 L 208.5 85 Z " /><path fill="rgb(8,4,4)" stroke="rgb(8,4,4)" stroke-width="1" opacity="0.24313725490196078" d="M 217.5 85 L 221 86.5 L 221 193.5 L 219.5 194 L 220 192.5 L 220 86.5 L 217 86 L 217 191.5 L 218 192.5 L 216 191.5 L 216 86.5 L 217.5 85 Z " /><path fill="rgb(8,4,4)" stroke="rgb(8,4,4)" stroke-width="1" opacity="0.24313725490196078" d="M 203.5 108 L 204 162.5 L 203 162.5 L 203.5 108 Z " /><path fill="rgb(8,4,4)" stroke="rgb(8,4,4)" stroke-width="1" opacity="0.24313725490196078" d="M 58.5 112 L 152.5 112 L 154 113.5 L 152.5 113 L 58.5 113 L 58.5 112 Z " /><path fill="rgb(8,4,4)" stroke="rgb(8,4,4)" stroke-width="1" opacity="0.24313725490196078" d="M 153.5 115 L 152.5 117 L 153.5 115 Z " /><path fill="rgb(8,4,4)" stroke="rgb(8,4,4)" stroke-width="1" opacity="0.24313725490196078" d="M 58.5 141 L 129 141.5 L 58.5 142 L 58.5 141 Z " /><path fill="rgb(8,4,4)" stroke="rgb(8,4,4)" stroke-width="1" opacity="0.24313725490196078" d="M 130.5 143 L 131 144.5 L 129 145.5 L 130.5 143 Z " /><path fill="rgb(8,4,4)" stroke="rgb(8,4,4)" stroke-width="1" opacity="0.24313725490196078" d="M 78.5 170 L 152 170.5 L 78.5 171 L 78.5 170 Z " /><path fill="rgb(8,4,4)" stroke="rgb(8,4,4)" stroke-width="1" opacity="0.24313725490196078" d="M 76.5 171 L 78 174.5 L 76 173.5 L 76.5 171 Z " /><path fill="rgb(8,4,4)" stroke="rgb(8,4,4)" stroke-width="1" opacity="0.24313725490196078" d="M 153.5 173 L 152.5 175 L 153.5 173 Z " /><path fill="rgb(8,4,4)" stroke="rgb(8,4,4)" stroke-width="1" opacity="0.24313725490196078" d="M 208.5 192 L 209.5 194 L 208.5 192 Z " /><path fill="rgb(8,4,4)" stroke="rgb(8,4,4)" stroke-width="1" opacity="0.24313725490196078" d="M 196.5 196 L 199.5 200 L 196.5 196 Z " /><path fill="rgb(8,4,4)" stroke="rgb(8,4,4)" stroke-width="1" opacity="0.24313725490196078" d="M 216.5 197 L 218 197.5 L 214.5 200 L 216.5 197 Z " /><path fill="rgb(8,4,4)" stroke="rgb(8,4,4)" stroke-width="1" opacity="0.24313725490196078" d="M 202.5 218 Q 204 220.5 209.5 219 L 211 218.5 Q 209.5 221.5 203.5 220 L 202.5 218 Z " /><path fill="rgb(8,4,4)" stroke="rgb(8,4,4)" stroke-width="1" opacity="0.24313725490196078" d="M 204.5 232 L 205.5 234 L 204.5 232 Z " /><path fill="rgb(8,4,4)" stroke="rgb(8,4,4)" stroke-width="1" opacity="0.24313725490196078" d="M 208.5 232 L 207.5 234 L 208.5 232 Z " /><path fill="rgb(8,4,4)" stroke="rgb(8,4,4)" stroke-width="1" opacity="0.24313725490196078" d="M 179.5 235 L 178.5 237 L 179.5 235 Z " /><path fill="rgb(0,0,0)" stroke="rgb(0,0,0)" stroke-width="1" opacity="0" d="M 0 0 L 256 0 L 256 256 L 0 256 L 0 0 Z M 46 20 L 46 29 L 32 29 L 31 30 L 31 236 L 33 237 L 179 237 L 180 236 L 180 31 L 179 29 L 165 29 L 165 22 L 164 20 L 160 22 L 160 29 L 146 29 L 146 22 L 145 20 L 141 22 L 141 29 L 127 29 L 127 22 L 126 20 L 122 22 L 122 29 L 108 29 L 108 22 L 107 20 L 103 22 L 103 29 L 89 29 L 89 23 L 88 22 Q 89 19 86 20 L 84 22 L 84 29 L 69 29 L 69 20 L 65 20 L 65 29 L 50 29 L 50 20 L 46 20 Z M 197 64 L 193 66 L 188 73 L 188 200 L 204 233 L 208 234 L 225 200 L 225 73 L 224 70 L 217 64 L 197 64 Z " /><path fill="rgb(0,0,0)" stroke="rgb(0,0,0)" stroke-width="1" opacity="0" d="M 35 33 L 46 33 L 46 42 L 50 42 L 50 33 L 65 33 L 65 40.5 L 66.5 42 L 69 41.5 L 69 33 L 84 33 L 84 40.5 L 85.5 42 Q 88.8 43.1 88 40.5 L 89 39.5 L 89 33 L 103 33 L 103 40.5 L 106.5 42 L 108 40.5 L 108 33 L 122 33 L 122 40.5 L 125.5 42 L 127 40.5 L 127 33 L 141 33 L 141 40.5 L 144.5 42 L 146 40.5 L 146 33 L 160 33 L 160 40.5 L 163.5 42 L 165 40.5 L 165 33 L 174.5 33 L 175 33.5 L 175 232 L 35 232 L 35 33 Z M 58 59 L 57 60 L 55 61 L 55 86 L 57 87 L 155 87 L 156 86 L 156 62 L 154 59 L 58 59 Z M 57 98 L 58 102 L 153 102 L 154 100 L 153 98 L 57 98 Z M 59 112 L 57 116 L 59 117 L 153 117 L 154 114 L 153 112 L 59 112 Z M 86 127 L 87 131 L 153 131 L 154 129 L 153 127 L 86 127 Z M 59 141 L 57 145 L 59 146 L 130 146 L 131 144 L 129 141 L 59 141 Z M 57 156 L 58 160 L 153 160 L 154 158 L 153 156 L 57 156 Z M 79 170 L 78 171 Q 75 170 76 174 L 78 175 L 153 175 L 154 171 L 152 170 L 79 170 Z M 57 185 L 58 189 L 153 189 L 154 187 L 153 185 L 57 185 Z " /><path fill="rgb(0,0,0)" stroke="rgb(0,0,0)" stroke-width="1" opacity="0" d="M 60 64 L 150.5 64 L 151 64.5 L 151 83 L 60.5 83 L 60 82.5 L 60 64 Z " /><path fill="rgb(0,0,0)" stroke="rgb(0,0,0)" stroke-width="1" opacity="0" d="M 196.5 69 L 216.5 69 L 220 72.5 L 220 80.5 L 219.5 81 L 193 81 L 193 72.5 L 196.5 69 Z " /><path fill="rgb(0,0,0)" stroke="rgb(0,0,0)" stroke-width="1" opacity="0" d="M 193 86 L 195 86.5 L 195 191.5 L 193 192.5 L 193 86 Z " /><path fill="rgb(0,0,0)" stroke="rgb(0,0,0)" stroke-width="1" opacity="0" d="M 200 86 L 203 86.5 L 203 162.5 L 204 163.5 L 204 192.5 Q 202 197 200 193.5 L 200 86 Z " /><path fill="rgb(0,0,0)" stroke="rgb(0,0,0)" stroke-width="1" opacity="0" d="M 208 86 L 212 86.5 L 212 194.5 L 208 191.5 L 208 86 Z " /><path fill="rgb(0,0,0)" stroke="rgb(0,0,0)" stroke-width="1" opacity="0" d="M 217 86 L 220 86.5 L 220 193 L 217 191.5 L 217 86 Z " /><path fill="rgb(0,0,0)" stroke="rgb(0,0,0)" stroke-width="1" opacity="0" d="M 195.5 197 L 201.5 201 L 206.5 197 L 210.5 200 L 214.5 200 Q 215.6 197.3 219 198 L 218 203.5 L 209.5 219 Q 203.5 220.5 202 217.5 L 194 198.5 L 195.5 197 Z " /><path fill="rgb(7,3,3)" stroke="rgb(7,3,3)" stroke-width="1" opacity="0.6078431372549019" d="M 47.5 20 L 49 20.5 L 47 21 L 46.5 29 L 46 21.5 L 47.5 20 Z " /><path fill="rgb(7,3,3)" stroke="rgb(7,3,3)" stroke-width="1" opacity="0.6078431372549019" d="M 66.5 20 L 68 20.5 L 66 21 L 65.5 29 L 65 21.5 L 66.5 20 Z " /><path fill="rgb(7,3,3)" stroke="rgb(7,3,3)" stroke-width="1" opacity="0.6078431372549019" d="M 85.5 20 L 87 20.5 L 85 21 L 84.5 29 L 84 21.5 L 85.5 20 Z " /><path fill="rgb(7,3,3)" stroke="rgb(7,3,3)" stroke-width="1" opacity="0.6078431372549019" d="M 104.5 20 L 106 20.5 L 104 21 L 103.5 29 L 103 21.5 L 104.5 20 Z " /><path fill="rgb(7,3,3)" stroke="rgb(7,3,3)" stroke-width="1" opacity="0.6078431372549019" d="M 123.5 20 L 126 20.5 L 123 21 L 122.5 29 L 122 21.5 L 123.5 20 Z " /><path fill="rgb(7,3,3)" stroke="rgb(7,3,3)" stroke-width="1" opacity="0.6078431372549019" d="M 142.5 20 L 145 20.5 L 142.5 21 L 142.5 20 Z " /><path fill="rgb(7,3,3)" stroke="rgb(7,3,3)" stroke-width="1" opacity="0.6078431372549019" d="M 161.5 20 L 165 21.5 L 164.5 29 L 164 21 Q 160.7 21.8 161.5 20 Z " /><path fill="rgb(7,3,3)" stroke="rgb(7,3,3)" stroke-width="1" opacity="0.6078431372549019" d="M 141.5 22 L 142 28.5 L 141 28.5 L 141.5 22 Z " /><path fill="rgb(7,3,3)" stroke="rgb(7,3,3)" stroke-width="1" opacity="0.6078431372549019" d="M 145.5 22 L 146 28.5 L 145 28.5 L 145.5 22 Z " /><path fill="rgb(7,3,3)" stroke="rgb(7,3,3)" stroke-width="1" opacity="0.6078431372549019" d="M 178.5 29 L 180 30.5 L 180 234.5 L 179 234.5 L 179 30.5 L 178.5 29 Z " /><path fill="rgb(7,3,3)" stroke="rgb(7,3,3)" stroke-width="1" opacity="0.6078431372549019" d="M 31.5 30 L 32 235.5 L 31 235.5 L 31.5 30 Z " /><path fill="rgb(7,3,3)" stroke="rgb(7,3,3)" stroke-width="1" opacity="0.6078431372549019" d="M 35.5 32 L 45.5 32 L 47 33.5 L 47 40.5 L 48.5 41 L 48.5 42 L 46 40.5 L 46 33 L 35.5 33 L 35.5 32 Z " /><path fill="rgb(7,3,3)" stroke="rgb(7,3,3)" stroke-width="1" opacity="0.6078431372549019" d="M 50.5 32 L 64.5 32 L 66 33.5 L 66 40.5 L 67.5 41 L 67.5 42 L 65 40.5 L 65 33 L 50.5 33 L 50.5 32 Z " /><path fill="rgb(7,3,3)" stroke="rgb(7,3,3)" stroke-width="1" opacity="0.6078431372549019" d="M 69.5 32 L 83.5 32 L 85 33.5 L 85 40.5 L 86.5 41 L 86.5 42 L 84 40.5 L 84 33 L 69.5 33 L 69.5 32 Z " /><path fill="rgb(7,3,3)" stroke="rgb(7,3,3)" stroke-width="1" opacity="0.6078431372549019" d="M 89.5 32 L 102.5 32 L 104 33.5 L 104 40.5 L 105.5 41 L 105.5 42 L 103 40.5 L 103 33 L 89.5 33 L 89.5 32 Z " /><path fill="rgb(7,3,3)" stroke="rgb(7,3,3)" stroke-width="1" opacity="0.6078431372549019" d="M 108.5 32 L 121.5 32 L 123 33.5 L 123 40.5 L 125.5 41 L 125.5 42 L 122 40.5 L 122 33 L 108.5 33 L 108.5 32 Z " /><path fill="rgb(7,3,3)" stroke="rgb(7,3,3)" stroke-width="1" opacity="0.6078431372549019" d="M 127.5 32 L 140.5 32 L 142 33.5 L 141.5 40 L 141 33 L 127.5 33 L 127.5 32 Z " /><path fill="rgb(7,3,3)" stroke="rgb(7,3,3)" stroke-width="1" opacity="0.6078431372549019" d="M 146.5 32 L 160 32.5 L 146 33 L 145.5 40 L 145 33.5 L 146.5 32 Z " /><path fill="rgb(7,3,3)" stroke="rgb(7,3,3)" stroke-width="1" opacity="0.6078431372549019" d="M 165.5 32 L 175 32.5 L 165 33 L 164.5 40 L 164 33.5 L 165.5 32 Z " /><path fill="rgb(7,3,3)" stroke="rgb(7,3,3)" stroke-width="1" opacity="0.6078431372549019" d="M 142.5 41 L 145 41.5 L 142.5 42 L 142.5 41 Z " /><path fill="rgb(7,3,3)" stroke="rgb(7,3,3)" stroke-width="1" opacity="0.6078431372549019" d="M 161.5 41 L 164 41.5 L 161.5 42 L 161.5 41 Z " /><path fill="rgb(7,3,3)" stroke="rgb(7,3,3)" stroke-width="1" opacity="0.6078431372549019" d="M 55.5 61 L 56 86 L 154 86.5 L 56.5 87 L 55 85.5 L 55.5 61 Z " /><path fill="rgb(7,3,3)" stroke="rgb(7,3,3)" stroke-width="1" opacity="0.6078431372549019" d="M 59.5 63 L 151.5 63 L 152 63.5 L 152 82.5 L 151 82.5 L 151 64.5 L 150.5 64 L 59.5 64 L 59.5 63 Z " /><path fill="rgb(7,3,3)" stroke="rgb(7,3,3)" stroke-width="1" opacity="0.6078431372549019" d="M 197.5 68 L 216 68.5 L 197.5 69 L 197.5 68 Z " /><path fill="rgb(7,3,3)" stroke="rgb(7,3,3)" stroke-width="1" opacity="0.6078431372549019" d="M 188.5 73 L 189 198.5 L 188 198.5 L 188.5 73 Z " /><path fill="rgb(7,3,3)" stroke="rgb(7,3,3)" stroke-width="1" opacity="0.6078431372549019" d="M 224.5 73 L 225 196.5 L 224 196.5 L 224.5 73 Z " /><path fill="rgb(7,3,3)" stroke="rgb(7,3,3)" stroke-width="1" opacity="0.6078431372549019" d="M 192.5 81 L 221 81.5 L 192.5 82 L 192.5 81 Z " /><path fill="rgb(7,3,3)" stroke="rgb(7,3,3)" stroke-width="1" opacity="0.6078431372549019" d="M 199.5 85 L 200 193.5 L 199 193.5 L 199.5 85 Z " /><path fill="rgb(7,3,3)" stroke="rgb(7,3,3)" stroke-width="1" opacity="0.6078431372549019" d="M 203.5 85 L 204 107.5 L 203 107.5 L 203.5 85 Z " /><path fill="rgb(7,3,3)" stroke="rgb(7,3,3)" stroke-width="1" opacity="0.6078431372549019" d="M 212.5 85 L 213 195.5 L 212 195.5 L 212.5 85 Z " /><path fill="rgb(7,3,3)" stroke="rgb(7,3,3)" stroke-width="1" opacity="0.6078431372549019" d="M 207.5 96 L 208 191.5 L 207 191.5 L 207.5 96 Z " /><path fill="rgb(7,3,3)" stroke="rgb(7,3,3)" stroke-width="1" opacity="0.6078431372549019" d="M 58.5 98 L 153 98.5 L 58 99 L 57.5 101 L 57 99.5 L 58.5 98 Z " /><path fill="rgb(7,3,3)" stroke="rgb(7,3,3)" stroke-width="1" opacity="0.6078431372549019" d="M 153.5 100 L 152.5 102 L 153.5 100 Z " /><path fill="rgb(7,3,3)" stroke="rgb(7,3,3)" stroke-width="1" opacity="0.6078431372549019" d="M 57.5 113 L 58 116 L 152 116.5 L 58.5 117 Q 56 116 57.5 113 Z " /><path fill="rgb(7,3,3)" stroke="rgb(7,3,3)" stroke-width="1" opacity="0.6078431372549019" d="M 87.5 127 L 153 127.5 L 87.5 128 L 87.5 127 Z " /><path fill="rgb(7,3,3)" stroke="rgb(7,3,3)" stroke-width="1" opacity="0.6078431372549019" d="M 153.5 129 L 152.5 131 L 153.5 129 Z " /><path fill="rgb(7,3,3)" stroke="rgb(7,3,3)" stroke-width="1" opacity="0.6078431372549019" d="M 57.5 142 L 58 145 L 129 145.5 L 58.5 146 Q 56 145 57.5 142 Z " /><path fill="rgb(7,3,3)" stroke="rgb(7,3,3)" stroke-width="1" opacity="0.6078431372549019" d="M 58.5 156 L 153 156.5 L 58 157 L 57.5 159 L 57 157.5 L 58.5 156 Z " /><path fill="rgb(7,3,3)" stroke="rgb(7,3,3)" stroke-width="1" opacity="0.6078431372549019" d="M 153.5 158 L 152.5 160 L 153.5 158 Z " /><path fill="rgb(7,3,3)" stroke="rgb(7,3,3)" stroke-width="1" opacity="0.6078431372549019" d="M 78.5 174 L 152 174.5 L 78.5 175 L 78.5 174 Z " /><path fill="rgb(7,3,3)" stroke="rgb(7,3,3)" stroke-width="1" opacity="0.6078431372549019" d="M 58.5 185 L 153 185.5 L 58 186 L 57.5 188 L 57 186.5 L 58.5 185 Z " /><path fill="rgb(7,3,3)" stroke="rgb(7,3,3)" stroke-width="1" opacity="0.6078431372549019" d="M 153.5 187 L 152.5 189 L 153.5 187 Z " /><path fill="rgb(7,3,3)" stroke="rgb(7,3,3)" stroke-width="1" opacity="0.6078431372549019" d="M 203.5 193 L 201.5 196 L 203.5 193 Z " /><path fill="rgb(7,3,3)" stroke="rgb(7,3,3)" stroke-width="1" opacity="0.6078431372549019" d="M 208.5 197 L 209.5 199 L 208.5 197 Z " /><path fill="rgb(7,3,3)" stroke="rgb(7,3,3)" stroke-width="1" opacity="0.6078431372549019" d="M 224.5 199 L 223.5 201 L 224.5 199 Z " /><path fill="rgb(7,3,3)" stroke="rgb(7,3,3)" stroke-width="1" opacity="0.6078431372549019" d="M 205.5 223 L 208 223.5 L 205.5 224 L 205.5 223 Z " /><path fill="rgb(7,3,3)" stroke="rgb(7,3,3)" stroke-width="1" opacity="0.6078431372549019" d="M 205.5 225 L 208 225.5 Q 205.9 228.8 205.5 225 Z " /><path fill="rgb(7,3,3)" stroke="rgb(7,3,3)" stroke-width="1" opacity="0.6078431372549019" d="M 33.5 236 L 178 236.5 L 33.5 237 L 33.5 236 Z " /><path fill="rgb(8,4,4)" stroke="rgb(8,4,4)" stroke-width="1" opacity="1" d="M 47 21 L 50 21 L 50 29 L 66 29 L 66 21 L 69 21 L 69 29 L 85 29 L 85 21 L 88 21 L 88 29 L 104 29 L 104 21 L 107 21 L 107 29 L 123 29 L 123 21 L 126 21 L 126 29 L 142 29 L 142 21 L 145 21 L 145 29 L 161 29 L 161 21 L 164 21 L 164 29 L 177.5 29 L 179 30.5 L 179 236 L 32 236 L 32 29 L 47 29 L 47 21 Z M 35 32 L 35 233 L 176 233 L 176 34 L 175 32 L 166 32 L 164 34 L 164 41 L 161 41 L 161 34 L 160 32 L 147 32 L 145 34 L 145 41 L 142 41 L 142 34 L 141 32 L 128 32 L 126 34 L 126 41 L 123 41 L 123 34 L 122 32 L 109 32 L 107 34 L 107 41 L 104 41 L 104 34 L 103 32 L 90 32 L 88 34 L 88 41 L 85 41 L 85 34 L 84 32 L 69 32 L 69 41 L 66 41 L 66 34 L 65 32 L 50 32 L 50 41 L 47 41 L 47 34 L 46 32 L 35 32 Z " /><path fill="rgb(8,4,4)" stroke="rgb(8,4,4)" stroke-width="1" opacity="1" d="M 56 60 L 154.5 60 L 155 60.5 L 155 86 L 56.5 86 L 56 85.5 L 56 60 Z M 59 63 L 59 83 L 60 83 L 152 83 L 152 64 L 152 63 L 59 63 Z " /><path fill="rgb(8,4,4)" stroke="rgb(8,4,4)" stroke-width="1" opacity="1" d="M 195.5 65 L 217.5 65 L 223 69.5 L 224 71.5 L 224 196.5 L 225 198.5 L 208 233 Q 204.3 234.5 205 231.5 L 189 199.5 L 189 71.5 L 193.5 66 L 195.5 65 Z M 198 68 L 196 69 L 192 73 L 192 82 L 221 82 L 221 73 L 216 68 L 198 68 Z M 192 85 L 192 194 L 196 192 L 196 86 L 192 85 Z M 199 85 L 199 194 Q 202 199 204 194 L 204 86 L 199 85 Z M 207 85 L 207 192 L 212 195 L 213 196 L 213 86 L 213 85 L 207 85 Z M 216 85 L 216 193 L 220 194 L 221 195 L 221 86 L 216 85 Z M 197 196 L 193 199 L 202 219 Q 203 222 210 220 L 220 201 L 220 198 L 218 197 L 214 200 L 208 197 L 207 196 L 203 200 L 201 200 L 197 196 Z M 205 223 L 205 226 Q 207 229 208 226 Q 209 221 205 223 Z " /><path fill="rgb(8,4,4)" stroke="rgb(8,4,4)" stroke-width="1" opacity="1" d="M 58 99 L 152.5 99 L 153 100.5 L 151.5 102 L 58 102 L 58 99 Z " /><path fill="rgb(8,4,4)" stroke="rgb(8,4,4)" stroke-width="1" opacity="1" d="M 58 113 L 152.5 113 L 153 116 L 58.5 116 L 58 113 Z " /><path fill="rgb(8,4,4)" stroke="rgb(8,4,4)" stroke-width="1" opacity="1" d="M 86 128 L 152.5 128 L 153 129.5 L 151.5 131 L 87.5 131 L 86 128 Z " /><path fill="rgb(8,4,4)" stroke="rgb(8,4,4)" stroke-width="1" opacity="1" d="M 58 142 L 129.5 142 L 130 145 L 58.5 145 L 58 142 Z " /><path fill="rgb(8,4,4)" stroke="rgb(8,4,4)" stroke-width="1" opacity="1" d="M 58 157 L 152.5 157 L 153 158.5 L 151.5 160 L 58 160 L 58 157 Z " /><path fill="rgb(8,4,4)" stroke="rgb(8,4,4)" stroke-width="1" opacity="1" d="M 77 171 L 152.5 171 L 153 174 L 77.5 174 L 77 171 Z " /><path fill="rgb(8,4,4)" stroke="rgb(8,4,4)" stroke-width="1" opacity="1" d="M 58 186 L 152.5 186 L 153 187.5 L 151.5 189 L 58 189 L 58 186 Z " /></svg>